<ttFont>
    <TTGlyph name="A" xMin="0" yMin="0" xMax="563" yMax="621">
      <contour>
        <pt x="563" y="0" on="1"/>
        <pt x="353" y="0" on="1"/>
        <pt x="333" y="96" on="1"/>
        <pt x="222" y="96" on="1"/>
        <pt x="201" y="0" on="1"/>
        <pt x="0" y="0" on="1"/>
        <pt x="129" y="621" on="1"/>
        <pt x="434" y="621" on="1"/>
      </contour>
      <contour>
        <pt x="318" y="225" on="1"/>
        <pt x="280" y="433" on="1"/>
        <pt x="276" y="433" on="1"/>
        <pt x="237" y="225" on="1"/>
      </contour>
    </TTGlyph>
    <TTGlyph name="AE" xMin="-5" yMin="0" xMax="753" yMax="621">
      <contour>
        <pt x="739" y="0" on="1"/>
        <pt x="343" y="0" on="1"/>
        <pt x="343" y="96" on="1"/>
        <pt x="236" y="96" on="1"/>
        <pt x="203" y="0" on="1"/>
        <pt x="-5" y="0" on="1"/>
        <pt x="215" y="621" on="1"/>
        <pt x="753" y="621" on="1"/>
        <pt x="739" y="456" on="1"/>
        <pt x="557" y="456" on="1"/>
        <pt x="557" y="381" on="1"/>
        <pt x="716" y="381" on="1"/>
        <pt x="716" y="237" on="1"/>
        <pt x="557" y="237" on="1"/>
        <pt x="557" y="152" on="1"/>
        <pt x="753" y="152" on="1"/>
      </contour>
      <contour>
        <pt x="343" y="225" on="1"/>
        <pt x="343" y="433" on="1"/>
        <pt x="339" y="433" on="1"/>
        <pt x="272" y="225" on="1"/>
      </contour>
    </TTGlyph>
    <TTGlyph name="Aacute" xMin="0" yMin="0" xMax="563" yMax="785">
      <contour>
        <pt x="563" y="0" on="1"/>
        <pt x="353" y="0" on="1"/>
        <pt x="333" y="96" on="1"/>
        <pt x="222" y="96" on="1"/>
        <pt x="201" y="0" on="1"/>
        <pt x="0" y="0" on="1"/>
        <pt x="129" y="621" on="1"/>
        <pt x="434" y="621" on="1"/>
      </contour>
      <contour>
        <pt x="318" y="225" on="1"/>
        <pt x="280" y="433" on="1"/>
        <pt x="276" y="433" on="1"/>
        <pt x="237" y="225" on="1"/>
      </contour>
      <contour>
        <pt x="449" y="785" on="1"/>
        <pt x="317" y="661" on="1"/>
        <pt x="185" y="661" on="1"/>
        <pt x="246" y="785" on="1"/>
      </contour>
    </TTGlyph>
    <TTGlyph name="Acircumflex" xMin="0" yMin="0" xMax="563" yMax="780">
      <contour>
        <pt x="563" y="0" on="1"/>
        <pt x="353" y="0" on="1"/>
        <pt x="333" y="96" on="1"/>
        <pt x="222" y="96" on="1"/>
        <pt x="201" y="0" on="1"/>
        <pt x="0" y="0" on="1"/>
        <pt x="129" y="621" on="1"/>
        <pt x="434" y="621" on="1"/>
      </contour>
      <contour>
        <pt x="318" y="225" on="1"/>
        <pt x="280" y="433" on="1"/>
        <pt x="276" y="433" on="1"/>
        <pt x="237" y="225" on="1"/>
      </contour>
      <contour>
        <pt x="363" y="780" on="1"/>
        <pt x="437" y="655" on="1"/>
        <pt x="313" y="655" on="1"/>
        <pt x="279" y="705" on="1"/>
        <pt x="245" y="655" on="1"/>
        <pt x="120" y="655" on="1"/>
        <pt x="194" y="780" on="1"/>
      </contour>
    </TTGlyph>
    <TTGlyph name="Adieresis" xMin="0" yMin="0" xMax="563" yMax="769">
      <contour>
        <pt x="563" y="0" on="1"/>
        <pt x="353" y="0" on="1"/>
        <pt x="333" y="96" on="1"/>
        <pt x="222" y="96" on="1"/>
        <pt x="201" y="0" on="1"/>
        <pt x="0" y="0" on="1"/>
        <pt x="129" y="621" on="1"/>
        <pt x="434" y="621" on="1"/>
      </contour>
      <contour>
        <pt x="318" y="225" on="1"/>
        <pt x="280" y="433" on="1"/>
        <pt x="276" y="433" on="1"/>
        <pt x="237" y="225" on="1"/>
      </contour>
      <contour>
        <pt x="117" y="644" on="0"/>
        <pt x="117" y="769" on="0"/>
        <pt x="264" y="769" on="0"/>
        <pt x="264" y="644" on="0"/>
      </contour>
      <contour>
        <pt x="294" y="644" on="0"/>
        <pt x="294" y="769" on="0"/>
        <pt x="441" y="769" on="0"/>
        <pt x="441" y="644" on="0"/>
      </contour>
    </TTGlyph>
    <TTGlyph name="Agrave" xMin="0" yMin="0" xMax="563" yMax="775">
      <contour>
        <pt x="563" y="0" on="1"/>
        <pt x="353" y="0" on="1"/>
        <pt x="333" y="96" on="1"/>
        <pt x="222" y="96" on="1"/>
        <pt x="201" y="0" on="1"/>
        <pt x="0" y="0" on="1"/>
        <pt x="129" y="621" on="1"/>
        <pt x="434" y="621" on="1"/>
      </contour>
      <contour>
        <pt x="318" y="225" on="1"/>
        <pt x="280" y="433" on="1"/>
        <pt x="276" y="433" on="1"/>
        <pt x="237" y="225" on="1"/>
      </contour>
      <contour>
        <pt x="240" y="651" on="1"/>
        <pt x="119" y="775" on="1"/>
        <pt x="310" y="775" on="1"/>
        <pt x="375" y="651" on="1"/>
      </contour>
    </TTGlyph>
    <TTGlyph name="Aring" xMin="0" yMin="0" xMax="563" yMax="724">
      <contour>
        <pt x="180" y="644" on="1"/>
        <pt x="180" y="724" on="0"/>
        <pt x="375" y="724" on="0"/>
        <pt x="375" y="649" on="1"/>
        <pt x="375" y="632" on="0"/>
        <pt x="371" y="621" on="1"/>
        <pt x="434" y="621" on="1"/>
        <pt x="563" y="0" on="1"/>
        <pt x="353" y="0" on="1"/>
        <pt x="333" y="96" on="1"/>
        <pt x="222" y="96" on="1"/>
        <pt x="201" y="0" on="1"/>
        <pt x="0" y="0" on="1"/>
        <pt x="129" y="621" on="1"/>
        <pt x="183" y="621" on="1"/>
        <pt x="180" y="632" on="0"/>
      </contour>
      <contour>
        <pt x="315" y="225" on="1"/>
        <pt x="281" y="409" on="1"/>
        <pt x="277" y="409" on="1"/>
        <pt x="242" y="225" on="1"/>
      </contour>
      <contour>
        <pt x="296" y="672" on="0"/>
        <pt x="258" y="672" on="0"/>
        <pt x="258" y="622" on="0"/>
        <pt x="273" y="621" on="1"/>
        <pt x="280" y="621" on="1"/>
        <pt x="296" y="622" on="0"/>
      </contour>
    </TTGlyph>
    <TTGlyph name="Atilde" xMin="0" yMin="0" xMax="563" yMax="784">
      <contour>
        <pt x="563" y="0" on="1"/>
        <pt x="353" y="0" on="1"/>
        <pt x="333" y="96" on="1"/>
        <pt x="222" y="96" on="1"/>
        <pt x="201" y="0" on="1"/>
        <pt x="0" y="0" on="1"/>
        <pt x="129" y="621" on="1"/>
        <pt x="434" y="621" on="1"/>
      </contour>
      <contour>
        <pt x="318" y="225" on="1"/>
        <pt x="280" y="433" on="1"/>
        <pt x="276" y="433" on="1"/>
        <pt x="237" y="225" on="1"/>
      </contour>
      <contour>
        <pt x="443" y="784" on="1"/>
        <pt x="443" y="773" on="1"/>
        <pt x="443" y="710" on="0"/>
        <pt x="403" y="644" on="0"/>
        <pt x="342" y="644" on="1"/>
        <pt x="308" y="644" on="0"/>
        <pt x="236" y="668" on="1"/>
        <pt x="236" y="638" on="1"/>
        <pt x="110" y="638" on="1"/>
        <pt x="110" y="650" on="1"/>
        <pt x="110" y="714" on="0"/>
        <pt x="153" y="779" on="0"/>
        <pt x="207" y="779" on="1"/>
        <pt x="235" y="779" on="0"/>
        <pt x="317" y="755" on="1"/>
        <pt x="317" y="784" on="1"/>
      </contour>
    </TTGlyph>
    <TTGlyph name="B" xMin="40" yMin="0" xMax="549" yMax="621">
      <contour>
        <pt x="549" y="182" on="1"/>
        <pt x="549" y="0" on="0"/>
        <pt x="323" y="0" on="1"/>
        <pt x="40" y="0" on="1"/>
        <pt x="40" y="621" on="1"/>
        <pt x="319" y="621" on="1"/>
        <pt x="431" y="621" on="0"/>
        <pt x="538" y="541" on="0"/>
        <pt x="538" y="375" on="0"/>
        <pt x="468" y="330" on="1"/>
        <pt x="468" y="326" on="1"/>
        <pt x="549" y="289" on="0"/>
      </contour>
      <contour>
        <pt x="309" y="124" on="0"/>
        <pt x="327" y="147" on="0"/>
        <pt x="327" y="221" on="0"/>
        <pt x="308" y="252" on="0"/>
        <pt x="282" y="252" on="1"/>
        <pt x="253" y="252" on="1"/>
        <pt x="253" y="124" on="1"/>
        <pt x="282" y="124" on="1"/>
      </contour>
      <contour>
        <pt x="301" y="362" on="0"/>
        <pt x="318" y="386" on="0"/>
        <pt x="318" y="445" on="0"/>
        <pt x="301" y="471" on="0"/>
        <pt x="282" y="471" on="1"/>
        <pt x="253" y="471" on="1"/>
        <pt x="253" y="362" on="1"/>
        <pt x="283" y="362" on="1"/>
      </contour>
    </TTGlyph>
    <TTGlyph name="C" xMin="20" yMin="-10" xMax="475" yMax="631">
      <contour>
        <pt x="236" y="227" on="0"/>
        <pt x="270" y="158" on="0"/>
        <pt x="350" y="158" on="0"/>
        <pt x="443" y="180" on="1"/>
        <pt x="475" y="21" on="1"/>
        <pt x="377" y="-10" on="0"/>
        <pt x="286" y="-10" on="1"/>
        <pt x="147" y="-10" on="0"/>
        <pt x="20" y="149" on="0"/>
        <pt x="20" y="464" on="0"/>
        <pt x="152" y="631" on="0"/>
        <pt x="301" y="631" on="1"/>
        <pt x="388" y="631" on="0"/>
        <pt x="475" y="597" on="1"/>
        <pt x="442" y="419" on="1"/>
        <pt x="343" y="448" on="0"/>
        <pt x="270" y="448" on="0"/>
        <pt x="236" y="379" on="0"/>
      </contour>
    </TTGlyph>
    <TTGlyph name="Ccedilla" xMin="21" yMin="-168" xMax="476" yMax="631">
      <contour>
        <pt x="443" y="419" on="1"/>
        <pt x="344" y="448" on="0"/>
        <pt x="271" y="448" on="0"/>
        <pt x="237" y="379" on="0"/>
        <pt x="237" y="227" on="0"/>
        <pt x="271" y="158" on="0"/>
        <pt x="351" y="158" on="0"/>
        <pt x="444" y="180" on="1"/>
        <pt x="476" y="21" on="1"/>
        <pt x="392" y="-5" on="0"/>
        <pt x="316" y="-9" on="1"/>
        <pt x="310" y="-15" on="0"/>
        <pt x="310" y="-21" on="1"/>
        <pt x="310" y="-24" on="0"/>
        <pt x="345" y="-38" on="0"/>
        <pt x="380" y="-69" on="0"/>
        <pt x="380" y="-94" on="1"/>
        <pt x="380" y="-168" on="0"/>
        <pt x="271" y="-168" on="1"/>
        <pt x="206" y="-168" on="0"/>
        <pt x="162" y="-138" on="1"/>
        <pt x="199" y="-67" on="1"/>
        <pt x="245" y="-98" on="0"/>
        <pt x="269" y="-98" on="1"/>
        <pt x="276" y="-98" on="0"/>
        <pt x="276" y="-92" on="1"/>
        <pt x="276" y="-88" on="0"/>
        <pt x="263" y="-81" on="1"/>
        <pt x="237" y="-69" on="1"/>
        <pt x="214" y="-56" on="0"/>
        <pt x="214" y="-18" on="0"/>
        <pt x="228" y="-6" on="1"/>
        <pt x="120" y="10" on="0"/>
        <pt x="21" y="167" on="0"/>
        <pt x="21" y="464" on="0"/>
        <pt x="153" y="631" on="0"/>
        <pt x="302" y="631" on="1"/>
        <pt x="389" y="631" on="0"/>
        <pt x="476" y="597" on="1"/>
      </contour>
    </TTGlyph>
    <TTGlyph name="D" xMin="40" yMin="0" xMax="577" yMax="621">
      <contour>
        <pt x="577" y="324" on="1"/>
        <pt x="577" y="0" on="0"/>
        <pt x="281" y="0" on="1"/>
        <pt x="40" y="0" on="1"/>
        <pt x="40" y="621" on="1"/>
        <pt x="286" y="621" on="1"/>
        <pt x="445" y="621" on="0"/>
        <pt x="577" y="468" on="0"/>
      </contour>
      <contour>
        <pt x="329" y="156" on="0"/>
        <pt x="359" y="226" on="0"/>
        <pt x="359" y="389" on="0"/>
        <pt x="326" y="458" on="0"/>
        <pt x="274" y="458" on="1"/>
        <pt x="253" y="458" on="1"/>
        <pt x="253" y="156" on="1"/>
        <pt x="278" y="156" on="1"/>
      </contour>
    </TTGlyph>
    <TTGlyph name="Delta" xMin="0" yMin="0" xMax="563" yMax="621">
      <contour>
        <pt x="0" y="0" on="1"/>
        <pt x="129" y="621" on="1"/>
        <pt x="434" y="621" on="1"/>
        <pt x="563" y="0" on="1"/>
      </contour>
      <contour>
        <pt x="234" y="180" on="1"/>
        <pt x="325" y="180" on="1"/>
        <pt x="280" y="427" on="1"/>
        <pt x="275" y="427" on="1"/>
      </contour>
    </TTGlyph>
    <TTGlyph name="E" xMin="40" yMin="0" xMax="450" yMax="621">
      <contour>
        <pt x="436" y="0" on="1"/>
        <pt x="40" y="0" on="1"/>
        <pt x="40" y="621" on="1"/>
        <pt x="450" y="621" on="1"/>
        <pt x="436" y="456" on="1"/>
        <pt x="254" y="456" on="1"/>
        <pt x="254" y="381" on="1"/>
        <pt x="413" y="381" on="1"/>
        <pt x="413" y="237" on="1"/>
        <pt x="254" y="237" on="1"/>
        <pt x="254" y="152" on="1"/>
        <pt x="450" y="152" on="1"/>
      </contour>
    </TTGlyph>
    <TTGlyph name="Eacute" xMin="40" yMin="0" xMax="450" yMax="775">
      <contour>
        <pt x="436" y="0" on="1"/>
        <pt x="40" y="0" on="1"/>
        <pt x="40" y="621" on="1"/>
        <pt x="450" y="621" on="1"/>
        <pt x="436" y="456" on="1"/>
        <pt x="254" y="456" on="1"/>
        <pt x="254" y="381" on="1"/>
        <pt x="413" y="381" on="1"/>
        <pt x="413" y="237" on="1"/>
        <pt x="254" y="237" on="1"/>
        <pt x="254" y="152" on="1"/>
        <pt x="450" y="152" on="1"/>
      </contour>
      <contour>
        <pt x="425" y="775" on="1"/>
        <pt x="293" y="651" on="1"/>
        <pt x="161" y="651" on="1"/>
        <pt x="222" y="775" on="1"/>
      </contour>
    </TTGlyph>
    <TTGlyph name="Ecircumflex" xMin="40" yMin="0" xMax="450" yMax="770">
      <contour>
        <pt x="436" y="0" on="1"/>
        <pt x="40" y="0" on="1"/>
        <pt x="40" y="621" on="1"/>
        <pt x="450" y="621" on="1"/>
        <pt x="436" y="456" on="1"/>
        <pt x="254" y="456" on="1"/>
        <pt x="254" y="381" on="1"/>
        <pt x="413" y="381" on="1"/>
        <pt x="413" y="237" on="1"/>
        <pt x="254" y="237" on="1"/>
        <pt x="254" y="152" on="1"/>
        <pt x="450" y="152" on="1"/>
      </contour>
      <contour>
        <pt x="332" y="770" on="1"/>
        <pt x="406" y="645" on="1"/>
        <pt x="282" y="645" on="1"/>
        <pt x="248" y="695" on="1"/>
        <pt x="214" y="645" on="1"/>
        <pt x="89" y="645" on="1"/>
        <pt x="163" y="770" on="1"/>
      </contour>
    </TTGlyph>
    <TTGlyph name="Edieresis" xMin="40" yMin="0" xMax="450" yMax="769">
      <contour>
        <pt x="436" y="0" on="1"/>
        <pt x="40" y="0" on="1"/>
        <pt x="40" y="621" on="1"/>
        <pt x="450" y="621" on="1"/>
        <pt x="436" y="456" on="1"/>
        <pt x="254" y="456" on="1"/>
        <pt x="254" y="381" on="1"/>
        <pt x="413" y="381" on="1"/>
        <pt x="413" y="237" on="1"/>
        <pt x="254" y="237" on="1"/>
        <pt x="254" y="152" on="1"/>
        <pt x="450" y="152" on="1"/>
      </contour>
      <contour>
        <pt x="84" y="644" on="0"/>
        <pt x="84" y="769" on="0"/>
        <pt x="231" y="769" on="0"/>
        <pt x="231" y="644" on="0"/>
      </contour>
      <contour>
        <pt x="261" y="644" on="0"/>
        <pt x="261" y="769" on="0"/>
        <pt x="408" y="769" on="0"/>
        <pt x="408" y="644" on="0"/>
      </contour>
    </TTGlyph>
    <TTGlyph name="Egrave" xMin="40" yMin="0" xMax="450" yMax="775">
      <contour>
        <pt x="436" y="0" on="1"/>
        <pt x="40" y="0" on="1"/>
        <pt x="40" y="621" on="1"/>
        <pt x="450" y="621" on="1"/>
        <pt x="436" y="456" on="1"/>
        <pt x="254" y="456" on="1"/>
        <pt x="254" y="381" on="1"/>
        <pt x="413" y="381" on="1"/>
        <pt x="413" y="237" on="1"/>
        <pt x="254" y="237" on="1"/>
        <pt x="254" y="152" on="1"/>
        <pt x="450" y="152" on="1"/>
      </contour>
      <contour>
        <pt x="206" y="651" on="1"/>
        <pt x="85" y="775" on="1"/>
        <pt x="276" y="775" on="1"/>
        <pt x="341" y="651" on="1"/>
      </contour>
    </TTGlyph>
    <TTGlyph name="Eth" xMin="-9" yMin="0" xMax="577" yMax="621">
      <contour>
        <pt x="577" y="324" on="1"/>
        <pt x="577" y="0" on="0"/>
        <pt x="281" y="0" on="1"/>
        <pt x="40" y="0" on="1"/>
        <pt x="40" y="235" on="1"/>
        <pt x="-9" y="235" on="1"/>
        <pt x="-9" y="373" on="1"/>
        <pt x="40" y="373" on="1"/>
        <pt x="40" y="621" on="1"/>
        <pt x="286" y="621" on="1"/>
        <pt x="445" y="621" on="0"/>
        <pt x="577" y="468" on="0"/>
      </contour>
      <contour>
        <pt x="298" y="235" on="1"/>
        <pt x="253" y="235" on="1"/>
        <pt x="253" y="156" on="1"/>
        <pt x="278" y="156" on="1"/>
        <pt x="329" y="156" on="0"/>
        <pt x="359" y="226" on="0"/>
        <pt x="359" y="389" on="0"/>
        <pt x="326" y="458" on="0"/>
        <pt x="274" y="458" on="1"/>
        <pt x="253" y="458" on="1"/>
        <pt x="253" y="373" on="1"/>
        <pt x="298" y="373" on="1"/>
      </contour>
    </TTGlyph>
    <TTGlyph name="Euro" xMin="16" yMin="-10" xMax="513" yMax="631">
      <contour>
        <pt x="16" y="408" on="1"/>
        <pt x="71" y="408" on="1"/>
        <pt x="114" y="631" on="0"/>
        <pt x="347" y="631" on="1"/>
        <pt x="430" y="631" on="0"/>
        <pt x="513" y="601" on="1"/>
        <pt x="487" y="433" on="1"/>
        <pt x="384" y="448" on="0"/>
        <pt x="357" y="448" on="1"/>
        <pt x="313" y="448" on="0"/>
        <pt x="300" y="408" on="1"/>
        <pt x="484" y="408" on="1"/>
        <pt x="471" y="309" on="1"/>
        <pt x="280" y="309" on="1"/>
        <pt x="280" y="290" on="1"/>
        <pt x="470" y="290" on="1"/>
        <pt x="458" y="192" on="1"/>
        <pt x="293" y="192" on="1"/>
        <pt x="308" y="157" on="0"/>
        <pt x="362" y="157" on="1"/>
        <pt x="378" y="157" on="0"/>
        <pt x="472" y="167" on="1"/>
        <pt x="498" y="13" on="1"/>
        <pt x="411" y="-10" on="0"/>
        <pt x="332" y="-10" on="1"/>
        <pt x="227" y="-10" on="0"/>
        <pt x="95" y="96" on="0"/>
        <pt x="74" y="192" on="1"/>
        <pt x="16" y="192" on="1"/>
        <pt x="16" y="290" on="1"/>
        <pt x="66" y="290" on="1"/>
        <pt x="66" y="309" on="1"/>
        <pt x="16" y="309" on="1"/>
      </contour>
    </TTGlyph>
    <TTGlyph name="F" xMin="40" yMin="0" xMax="450" yMax="621">
      <contour>
        <pt x="436" y="456" on="1"/>
        <pt x="254" y="456" on="1"/>
        <pt x="254" y="371" on="1"/>
        <pt x="392" y="371" on="1"/>
        <pt x="392" y="227" on="1"/>
        <pt x="254" y="227" on="1"/>
        <pt x="254" y="0" on="1"/>
        <pt x="40" y="0" on="1"/>
        <pt x="40" y="621" on="1"/>
        <pt x="450" y="621" on="1"/>
      </contour>
    </TTGlyph>
    <TTGlyph name="G" xMin="21" yMin="-10" xMax="548" yMax="631">
      <contour>
        <pt x="314" y="153" on="1"/>
        <pt x="332" y="153" on="0"/>
        <pt x="362" y="159" on="1"/>
        <pt x="362" y="219" on="1"/>
        <pt x="312" y="219" on="1"/>
        <pt x="312" y="357" on="1"/>
        <pt x="548" y="357" on="1"/>
        <pt x="548" y="0" on="1"/>
        <pt x="397" y="0" on="1"/>
        <pt x="382" y="32" on="1"/>
        <pt x="378" y="32" on="1"/>
        <pt x="326" y="-10" on="0"/>
        <pt x="255" y="-10" on="1"/>
        <pt x="21" y="-10" on="0"/>
        <pt x="21" y="306" on="1"/>
        <pt x="21" y="464" on="0"/>
        <pt x="148" y="631" on="0"/>
        <pt x="299" y="631" on="1"/>
        <pt x="411" y="631" on="0"/>
        <pt x="511" y="600" on="1"/>
        <pt x="478" y="412" on="1"/>
        <pt x="366" y="443" on="0"/>
        <pt x="269" y="443" on="0"/>
        <pt x="238" y="379" on="0"/>
        <pt x="238" y="225" on="0"/>
        <pt x="267" y="153" on="0"/>
      </contour>
    </TTGlyph>
    <TTGlyph name="H" xMin="40" yMin="0" xMax="573" yMax="621">
      <contour>
        <pt x="573" y="0" on="1"/>
        <pt x="362" y="0" on="1"/>
        <pt x="362" y="219" on="1"/>
        <pt x="254" y="219" on="1"/>
        <pt x="254" y="0" on="1"/>
        <pt x="40" y="0" on="1"/>
        <pt x="40" y="621" on="1"/>
        <pt x="254" y="621" on="1"/>
        <pt x="254" y="389" on="1"/>
        <pt x="362" y="389" on="1"/>
        <pt x="362" y="621" on="1"/>
        <pt x="573" y="621" on="1"/>
      </contour>
    </TTGlyph>
    <TTGlyph name="I" xMin="46" yMin="0" xMax="257" yMax="621">
      <contour>
        <pt x="257" y="0" on="1"/>
        <pt x="46" y="0" on="1"/>
        <pt x="46" y="621" on="1"/>
        <pt x="257" y="621" on="1"/>
      </contour>
    </TTGlyph>
    <TTGlyph name="IJ" xMin="46" yMin="-10" xMax="580" yMax="621">
      <contour>
        <pt x="257" y="0" on="1"/>
        <pt x="46" y="0" on="1"/>
        <pt x="46" y="621" on="1"/>
        <pt x="257" y="621" on="1"/>
      </contour>
      <contour>
        <pt x="580" y="621" on="1"/>
        <pt x="580" y="130" on="1"/>
        <pt x="580" y="50" on="0"/>
        <pt x="498" y="-10" on="0"/>
        <pt x="386" y="-10" on="1"/>
        <pt x="313" y="-10" on="1"/>
        <pt x="302" y="138" on="1"/>
        <pt x="352" y="138" on="1"/>
        <pt x="363" y="138" on="0"/>
        <pt x="370" y="146" on="0"/>
        <pt x="370" y="155" on="1"/>
        <pt x="370" y="621" on="1"/>
      </contour>
    </TTGlyph>
    <TTGlyph name="Iacute" xMin="47" yMin="0" xMax="326" yMax="785">
      <contour>
        <pt x="258" y="0" on="1"/>
        <pt x="47" y="0" on="1"/>
        <pt x="47" y="621" on="1"/>
        <pt x="258" y="621" on="1"/>
      </contour>
      <contour>
        <pt x="326" y="785" on="1"/>
        <pt x="194" y="661" on="1"/>
        <pt x="62" y="661" on="1"/>
        <pt x="123" y="785" on="1"/>
      </contour>
    </TTGlyph>
    <TTGlyph name="Icircumflex" xMin="-2" yMin="0" xMax="315" yMax="780">
      <contour>
        <pt x="259" y="0" on="1"/>
        <pt x="48" y="0" on="1"/>
        <pt x="48" y="621" on="1"/>
        <pt x="259" y="621" on="1"/>
      </contour>
      <contour>
        <pt x="241" y="780" on="1"/>
        <pt x="315" y="655" on="1"/>
        <pt x="191" y="655" on="1"/>
        <pt x="157" y="705" on="1"/>
        <pt x="123" y="655" on="1"/>
        <pt x="-2" y="655" on="1"/>
        <pt x="72" y="780" on="1"/>
      </contour>
    </TTGlyph>
    <TTGlyph name="Idieresis" xMin="-7" yMin="0" xMax="317" yMax="779">
      <contour>
        <pt x="261" y="0" on="1"/>
        <pt x="50" y="0" on="1"/>
        <pt x="50" y="621" on="1"/>
        <pt x="261" y="621" on="1"/>
      </contour>
      <contour>
        <pt x="-7" y="654" on="0"/>
        <pt x="-7" y="779" on="0"/>
        <pt x="140" y="779" on="0"/>
        <pt x="140" y="654" on="0"/>
      </contour>
      <contour>
        <pt x="170" y="654" on="0"/>
        <pt x="170" y="779" on="0"/>
        <pt x="317" y="779" on="0"/>
        <pt x="317" y="654" on="0"/>
      </contour>
    </TTGlyph>
    <TTGlyph name="Igrave" xMin="-8" yMin="0" xMax="257" yMax="785">
      <contour>
        <pt x="257" y="0" on="1"/>
        <pt x="46" y="0" on="1"/>
        <pt x="46" y="621" on="1"/>
        <pt x="257" y="621" on="1"/>
      </contour>
      <contour>
        <pt x="113" y="661" on="1"/>
        <pt x="-8" y="785" on="1"/>
        <pt x="183" y="785" on="1"/>
        <pt x="248" y="661" on="1"/>
      </contour>
    </TTGlyph>
    <TTGlyph name="Itilde" xMin="-24" yMin="0" xMax="327" yMax="799">
      <contour>
        <pt x="257" y="0" on="1"/>
        <pt x="46" y="0" on="1"/>
        <pt x="46" y="621" on="1"/>
        <pt x="257" y="621" on="1"/>
      </contour>
      <contour>
        <pt x="327" y="799" on="1"/>
        <pt x="327" y="787" on="1"/>
        <pt x="327" y="721" on="0"/>
        <pt x="284" y="651" on="0"/>
        <pt x="220" y="651" on="1"/>
        <pt x="183" y="651" on="0"/>
        <pt x="109" y="677" on="1"/>
        <pt x="109" y="645" on="1"/>
        <pt x="-24" y="645" on="1"/>
        <pt x="-24" y="658" on="1"/>
        <pt x="-24" y="725" on="0"/>
        <pt x="21" y="794" on="0"/>
        <pt x="78" y="794" on="1"/>
        <pt x="108" y="794" on="0"/>
        <pt x="194" y="768" on="1"/>
        <pt x="194" y="799" on="1"/>
      </contour>
    </TTGlyph>
    <TTGlyph name="J" xMin="4" yMin="-10" xMax="282" yMax="621">
      <contour>
        <pt x="282" y="621" on="1"/>
        <pt x="282" y="130" on="1"/>
        <pt x="282" y="50" on="0"/>
        <pt x="200" y="-10" on="0"/>
        <pt x="88" y="-10" on="1"/>
        <pt x="15" y="-10" on="1"/>
        <pt x="4" y="138" on="1"/>
        <pt x="54" y="138" on="1"/>
        <pt x="65" y="138" on="0"/>
        <pt x="72" y="146" on="0"/>
        <pt x="72" y="155" on="1"/>
        <pt x="72" y="621" on="1"/>
      </contour>
    </TTGlyph>
    <TTGlyph name="Jcircumflex" xMin="4" yMin="-10" xMax="340" yMax="784">
      <contour>
        <pt x="282" y="621" on="1"/>
        <pt x="282" y="130" on="1"/>
        <pt x="282" y="50" on="0"/>
        <pt x="200" y="-10" on="0"/>
        <pt x="88" y="-10" on="1"/>
        <pt x="15" y="-10" on="1"/>
        <pt x="4" y="138" on="1"/>
        <pt x="54" y="138" on="1"/>
        <pt x="65" y="138" on="0"/>
        <pt x="72" y="146" on="0"/>
        <pt x="72" y="155" on="1"/>
        <pt x="72" y="621" on="1"/>
      </contour>
      <contour>
        <pt x="262" y="784" on="1"/>
        <pt x="340" y="653" on="1"/>
        <pt x="209" y="653" on="1"/>
        <pt x="174" y="705" on="1"/>
        <pt x="138" y="653" on="1"/>
        <pt x="6" y="653" on="1"/>
        <pt x="84" y="784" on="1"/>
      </contour>
    </TTGlyph>
    <TTGlyph name="K" xMin="40" yMin="0" xMax="562" yMax="621">
      <contour>
        <pt x="552" y="0" on="1"/>
        <pt x="317" y="0" on="1"/>
        <pt x="254" y="206" on="1"/>
        <pt x="243" y="206" on="1"/>
        <pt x="243" y="0" on="1"/>
        <pt x="40" y="0" on="1"/>
        <pt x="40" y="621" on="1"/>
        <pt x="243" y="621" on="1"/>
        <pt x="243" y="375" on="1"/>
        <pt x="254" y="375" on="1"/>
        <pt x="333" y="621" on="1"/>
        <pt x="562" y="621" on="1"/>
        <pt x="433" y="298" on="1"/>
      </contour>
    </TTGlyph>
    <TTGlyph name="L" xMin="40" yMin="0" xMax="427" yMax="621">
      <contour>
        <pt x="413" y="0" on="1"/>
        <pt x="40" y="0" on="1"/>
        <pt x="40" y="621" on="1"/>
        <pt x="254" y="621" on="1"/>
        <pt x="254" y="161" on="1"/>
        <pt x="427" y="161" on="1"/>
      </contour>
    </TTGlyph>
    <TTGlyph name="Ldotaccent" xMin="40" yMin="0" xMax="496" yMax="621">
      <contour>
        <pt x="413" y="0" on="1"/>
        <pt x="40" y="0" on="1"/>
        <pt x="40" y="621" on="1"/>
        <pt x="254" y="621" on="1"/>
        <pt x="254" y="161" on="1"/>
        <pt x="427" y="161" on="1"/>
      </contour>
      <contour>
        <pt x="282" y="333" on="1"/>
        <pt x="282" y="418" on="0"/>
        <pt x="496" y="418" on="0"/>
        <pt x="496" y="333" on="1"/>
        <pt x="496" y="289" on="0"/>
        <pt x="443" y="251" on="0"/>
        <pt x="335" y="251" on="0"/>
        <pt x="282" y="288" on="0"/>
      </contour>
    </TTGlyph>
    <TTGlyph name="Lslash" xMin="8" yMin="0" xMax="435" yMax="621">
      <contour>
        <pt x="421" y="0" on="1"/>
        <pt x="48" y="0" on="1"/>
        <pt x="48" y="155" on="1"/>
        <pt x="8" y="131" on="1"/>
        <pt x="8" y="288" on="1"/>
        <pt x="48" y="312" on="1"/>
        <pt x="48" y="621" on="1"/>
        <pt x="262" y="621" on="1"/>
        <pt x="262" y="441" on="1"/>
        <pt x="310" y="470" on="1"/>
        <pt x="310" y="314" on="1"/>
        <pt x="262" y="285" on="1"/>
        <pt x="262" y="161" on="1"/>
        <pt x="435" y="161" on="1"/>
      </contour>
    </TTGlyph>
    <TTGlyph name="M" xMin="38" yMin="0" xMax="716" yMax="621">
      <contour>
        <pt x="716" y="0" on="1"/>
        <pt x="527" y="0" on="1"/>
        <pt x="527" y="296" on="1"/>
        <pt x="522" y="296" on="1"/>
        <pt x="463" y="0" on="1"/>
        <pt x="288" y="0" on="1"/>
        <pt x="230" y="296" on="1"/>
        <pt x="225" y="296" on="1"/>
        <pt x="225" y="0" on="1"/>
        <pt x="38" y="0" on="1"/>
        <pt x="62" y="621" on="1"/>
        <pt x="328" y="621" on="1"/>
        <pt x="375" y="340" on="1"/>
        <pt x="384" y="340" on="1"/>
        <pt x="430" y="621" on="1"/>
        <pt x="693" y="621" on="1"/>
      </contour>
    </TTGlyph>
    <TTGlyph name="N" xMin="40" yMin="0" xMax="567" yMax="621">
      <contour>
        <pt x="567" y="0" on="1"/>
        <pt x="363" y="0" on="1"/>
        <pt x="237" y="245" on="1"/>
        <pt x="230" y="245" on="1"/>
        <pt x="230" y="0" on="1"/>
        <pt x="40" y="0" on="1"/>
        <pt x="40" y="621" on="1"/>
        <pt x="251" y="621" on="1"/>
        <pt x="369" y="368" on="1"/>
        <pt x="375" y="368" on="1"/>
        <pt x="375" y="621" on="1"/>
        <pt x="567" y="621" on="1"/>
      </contour>
    </TTGlyph>
    <TTGlyph name="Nacute" xMin="40" yMin="0" xMax="567" yMax="789">
      <contour>
        <pt x="567" y="0" on="1"/>
        <pt x="363" y="0" on="1"/>
        <pt x="237" y="245" on="1"/>
        <pt x="230" y="245" on="1"/>
        <pt x="230" y="0" on="1"/>
        <pt x="40" y="0" on="1"/>
        <pt x="40" y="621" on="1"/>
        <pt x="251" y="621" on="1"/>
        <pt x="369" y="368" on="1"/>
        <pt x="375" y="368" on="1"/>
        <pt x="375" y="621" on="1"/>
        <pt x="567" y="621" on="1"/>
      </contour>
      <contour>
        <pt x="492" y="789" on="1"/>
        <pt x="353" y="659" on="1"/>
        <pt x="214" y="659" on="1"/>
        <pt x="278" y="789" on="1"/>
      </contour>
    </TTGlyph>
    <TTGlyph name="Ntilde" xMin="40" yMin="0" xMax="567" yMax="784">
      <contour>
        <pt x="567" y="0" on="1"/>
        <pt x="363" y="0" on="1"/>
        <pt x="237" y="245" on="1"/>
        <pt x="230" y="245" on="1"/>
        <pt x="230" y="0" on="1"/>
        <pt x="40" y="0" on="1"/>
        <pt x="40" y="621" on="1"/>
        <pt x="251" y="621" on="1"/>
        <pt x="369" y="368" on="1"/>
        <pt x="375" y="368" on="1"/>
        <pt x="375" y="621" on="1"/>
        <pt x="567" y="621" on="1"/>
      </contour>
      <contour>
        <pt x="469" y="784" on="1"/>
        <pt x="469" y="773" on="1"/>
        <pt x="469" y="710" on="0"/>
        <pt x="429" y="644" on="0"/>
        <pt x="368" y="644" on="1"/>
        <pt x="334" y="644" on="0"/>
        <pt x="262" y="668" on="1"/>
        <pt x="262" y="638" on="1"/>
        <pt x="136" y="638" on="1"/>
        <pt x="136" y="650" on="1"/>
        <pt x="136" y="714" on="0"/>
        <pt x="179" y="779" on="0"/>
        <pt x="233" y="779" on="1"/>
        <pt x="261" y="779" on="0"/>
        <pt x="343" y="755" on="1"/>
        <pt x="343" y="784" on="1"/>
      </contour>
    </TTGlyph>
    <TTGlyph name="O" xMin="20" yMin="-10" xMax="589" yMax="631">
      <contour>
        <pt x="20" y="481" on="0"/>
        <pt x="153" y="631" on="0"/>
        <pt x="458" y="631" on="0"/>
        <pt x="589" y="483" on="0"/>
        <pt x="589" y="150" on="0"/>
        <pt x="454" y="-10" on="0"/>
        <pt x="153" y="-10" on="0"/>
        <pt x="20" y="148" on="0"/>
      </contour>
      <contour>
        <pt x="348" y="459" on="0"/>
        <pt x="262" y="459" on="0"/>
        <pt x="238" y="409" on="0"/>
        <pt x="238" y="327" on="1"/>
        <pt x="238" y="283" on="1"/>
        <pt x="238" y="199" on="0"/>
        <pt x="264" y="149" on="0"/>
        <pt x="352" y="149" on="0"/>
        <pt x="374" y="197" on="0"/>
        <pt x="374" y="280" on="1"/>
        <pt x="374" y="326" on="1"/>
        <pt x="374" y="408" on="0"/>
      </contour>
    </TTGlyph>
    <TTGlyph name="OE" xMin="20" yMin="-10" xMax="783" yMax="631">
      <contour>
        <pt x="769" y="0" on="1"/>
        <pt x="399" y="0" on="1"/>
        <pt x="351" y="-10" on="0"/>
        <pt x="302" y="-10" on="1"/>
        <pt x="153" y="-10" on="0"/>
        <pt x="20" y="148" on="0"/>
        <pt x="20" y="481" on="0"/>
        <pt x="153" y="631" on="0"/>
        <pt x="306" y="631" on="1"/>
        <pt x="358" y="631" on="0"/>
        <pt x="406" y="621" on="1"/>
        <pt x="783" y="621" on="1"/>
        <pt x="769" y="456" on="1"/>
        <pt x="587" y="456" on="1"/>
        <pt x="587" y="381" on="1"/>
        <pt x="746" y="381" on="1"/>
        <pt x="746" y="237" on="1"/>
        <pt x="587" y="237" on="1"/>
        <pt x="587" y="152" on="1"/>
        <pt x="783" y="152" on="1"/>
      </contour>
      <contour>
        <pt x="370" y="425" on="0"/>
        <pt x="341" y="459" on="0"/>
        <pt x="262" y="459" on="0"/>
        <pt x="238" y="409" on="0"/>
        <pt x="238" y="327" on="1"/>
        <pt x="238" y="283" on="1"/>
        <pt x="238" y="199" on="0"/>
        <pt x="264" y="149" on="0"/>
        <pt x="344" y="149" on="0"/>
        <pt x="370" y="179" on="0"/>
        <pt x="373" y="225" on="1"/>
        <pt x="373" y="375" on="1"/>
      </contour>
    </TTGlyph>
    <TTGlyph name="Oacute" xMin="20" yMin="-10" xMax="589" yMax="785">
      <contour>
        <pt x="20" y="481" on="0"/>
        <pt x="153" y="631" on="0"/>
        <pt x="458" y="631" on="0"/>
        <pt x="589" y="483" on="0"/>
        <pt x="589" y="150" on="0"/>
        <pt x="454" y="-10" on="0"/>
        <pt x="153" y="-10" on="0"/>
        <pt x="20" y="148" on="0"/>
      </contour>
      <contour>
        <pt x="348" y="459" on="0"/>
        <pt x="262" y="459" on="0"/>
        <pt x="238" y="409" on="0"/>
        <pt x="238" y="327" on="1"/>
        <pt x="238" y="283" on="1"/>
        <pt x="238" y="199" on="0"/>
        <pt x="264" y="149" on="0"/>
        <pt x="352" y="149" on="0"/>
        <pt x="374" y="197" on="0"/>
        <pt x="374" y="280" on="1"/>
        <pt x="374" y="326" on="1"/>
        <pt x="374" y="408" on="0"/>
      </contour>
      <contour>
        <pt x="489" y="785" on="1"/>
        <pt x="357" y="661" on="1"/>
        <pt x="225" y="661" on="1"/>
        <pt x="286" y="785" on="1"/>
      </contour>
    </TTGlyph>
    <TTGlyph name="Ocircumflex" xMin="20" yMin="-10" xMax="589" yMax="780">
      <contour>
        <pt x="20" y="481" on="0"/>
        <pt x="153" y="631" on="0"/>
        <pt x="458" y="631" on="0"/>
        <pt x="589" y="483" on="0"/>
        <pt x="589" y="150" on="0"/>
        <pt x="454" y="-10" on="0"/>
        <pt x="153" y="-10" on="0"/>
        <pt x="20" y="148" on="0"/>
      </contour>
      <contour>
        <pt x="348" y="459" on="0"/>
        <pt x="262" y="459" on="0"/>
        <pt x="238" y="409" on="0"/>
        <pt x="238" y="327" on="1"/>
        <pt x="238" y="283" on="1"/>
        <pt x="238" y="199" on="0"/>
        <pt x="264" y="149" on="0"/>
        <pt x="352" y="149" on="0"/>
        <pt x="374" y="197" on="0"/>
        <pt x="374" y="280" on="1"/>
        <pt x="374" y="326" on="1"/>
        <pt x="374" y="408" on="0"/>
      </contour>
      <contour>
        <pt x="389" y="780" on="1"/>
        <pt x="463" y="655" on="1"/>
        <pt x="339" y="655" on="1"/>
        <pt x="305" y="705" on="1"/>
        <pt x="271" y="655" on="1"/>
        <pt x="146" y="655" on="1"/>
        <pt x="220" y="780" on="1"/>
      </contour>
    </TTGlyph>
    <TTGlyph name="Odieresis" xMin="20" yMin="-10" xMax="589" yMax="769">
      <contour>
        <pt x="20" y="481" on="0"/>
        <pt x="153" y="631" on="0"/>
        <pt x="458" y="631" on="0"/>
        <pt x="589" y="483" on="0"/>
        <pt x="589" y="150" on="0"/>
        <pt x="454" y="-10" on="0"/>
        <pt x="153" y="-10" on="0"/>
        <pt x="20" y="148" on="0"/>
      </contour>
      <contour>
        <pt x="348" y="459" on="0"/>
        <pt x="262" y="459" on="0"/>
        <pt x="238" y="409" on="0"/>
        <pt x="238" y="327" on="1"/>
        <pt x="238" y="283" on="1"/>
        <pt x="238" y="199" on="0"/>
        <pt x="264" y="149" on="0"/>
        <pt x="352" y="149" on="0"/>
        <pt x="374" y="197" on="0"/>
        <pt x="374" y="280" on="1"/>
        <pt x="374" y="326" on="1"/>
        <pt x="374" y="408" on="0"/>
      </contour>
      <contour>
        <pt x="141" y="644" on="0"/>
        <pt x="141" y="769" on="0"/>
        <pt x="288" y="769" on="0"/>
        <pt x="288" y="644" on="0"/>
      </contour>
      <contour>
        <pt x="318" y="644" on="0"/>
        <pt x="318" y="769" on="0"/>
        <pt x="465" y="769" on="0"/>
        <pt x="465" y="644" on="0"/>
      </contour>
    </TTGlyph>
    <TTGlyph name="Ograve" xMin="20" yMin="-10" xMax="589" yMax="785">
      <contour>
        <pt x="20" y="481" on="0"/>
        <pt x="153" y="631" on="0"/>
        <pt x="458" y="631" on="0"/>
        <pt x="589" y="483" on="0"/>
        <pt x="589" y="150" on="0"/>
        <pt x="454" y="-10" on="0"/>
        <pt x="153" y="-10" on="0"/>
        <pt x="20" y="148" on="0"/>
      </contour>
      <contour>
        <pt x="348" y="459" on="0"/>
        <pt x="262" y="459" on="0"/>
        <pt x="238" y="409" on="0"/>
        <pt x="238" y="327" on="1"/>
        <pt x="238" y="283" on="1"/>
        <pt x="238" y="199" on="0"/>
        <pt x="264" y="149" on="0"/>
        <pt x="352" y="149" on="0"/>
        <pt x="374" y="197" on="0"/>
        <pt x="374" y="280" on="1"/>
        <pt x="374" y="326" on="1"/>
        <pt x="374" y="408" on="0"/>
      </contour>
      <contour>
        <pt x="245" y="661" on="1"/>
        <pt x="124" y="785" on="1"/>
        <pt x="315" y="785" on="1"/>
        <pt x="380" y="661" on="1"/>
      </contour>
    </TTGlyph>
    <TTGlyph name="Omega" xMin="32" yMin="0" xMax="599" yMax="631">
      <contour>
        <pt x="315" y="631" on="1"/>
        <pt x="596" y="631" on="0"/>
        <pt x="596" y="348" on="1"/>
        <pt x="596" y="280" on="0"/>
        <pt x="559" y="187" on="0"/>
        <pt x="518" y="149" on="1"/>
        <pt x="518" y="145" on="1"/>
        <pt x="599" y="145" on="1"/>
        <pt x="599" y="0" on="1"/>
        <pt x="325" y="0" on="1"/>
        <pt x="325" y="135" on="1"/>
        <pt x="381" y="190" on="0"/>
        <pt x="381" y="321" on="1"/>
        <pt x="381" y="401" on="0"/>
        <pt x="355" y="459" on="0"/>
        <pt x="269" y="459" on="0"/>
        <pt x="245" y="402" on="0"/>
        <pt x="245" y="322" on="1"/>
        <pt x="245" y="192" on="0"/>
        <pt x="304" y="135" on="1"/>
        <pt x="304" y="0" on="1"/>
        <pt x="34" y="0" on="1"/>
        <pt x="34" y="145" on="1"/>
        <pt x="109" y="145" on="1"/>
        <pt x="109" y="152" on="1"/>
        <pt x="32" y="223" on="0"/>
        <pt x="32" y="366" on="1"/>
        <pt x="32" y="631" on="0"/>
      </contour>
    </TTGlyph>
    <TTGlyph name="Oslash" xMin="20" yMin="-69" xMax="589" yMax="681">
      <contour>
        <pt x="302" y="-10" on="1"/>
        <pt x="272" y="-9" on="1"/>
        <pt x="245" y="-69" on="1"/>
        <pt x="33" y="-69" on="1"/>
        <pt x="92" y="62" on="1"/>
        <pt x="20" y="138" on="0"/>
        <pt x="20" y="481" on="0"/>
        <pt x="153" y="631" on="0"/>
        <pt x="306" y="631" on="1"/>
        <pt x="321" y="631" on="0"/>
        <pt x="349" y="629" on="1"/>
        <pt x="373" y="681" on="1"/>
        <pt x="582" y="681" on="1"/>
        <pt x="525" y="555" on="1"/>
        <pt x="589" y="482" on="0"/>
        <pt x="589" y="150" on="0"/>
        <pt x="454" y="-10" on="0"/>
      </contour>
      <contour>
        <pt x="348" y="459" on="0"/>
        <pt x="262" y="459" on="0"/>
        <pt x="238" y="409" on="0"/>
        <pt x="238" y="327" on="1"/>
        <pt x="238" y="283" on="1"/>
        <pt x="238" y="199" on="0"/>
        <pt x="264" y="149" on="0"/>
        <pt x="352" y="149" on="0"/>
        <pt x="374" y="197" on="0"/>
        <pt x="374" y="280" on="1"/>
        <pt x="374" y="326" on="1"/>
        <pt x="374" y="408" on="0"/>
      </contour>
    </TTGlyph>
    <TTGlyph name="Otilde" xMin="20" yMin="-10" xMax="589" yMax="794">
      <contour>
        <pt x="20" y="481" on="0"/>
        <pt x="153" y="631" on="0"/>
        <pt x="458" y="631" on="0"/>
        <pt x="589" y="483" on="0"/>
        <pt x="589" y="150" on="0"/>
        <pt x="454" y="-10" on="0"/>
        <pt x="153" y="-10" on="0"/>
        <pt x="20" y="148" on="0"/>
      </contour>
      <contour>
        <pt x="348" y="459" on="0"/>
        <pt x="262" y="459" on="0"/>
        <pt x="238" y="409" on="0"/>
        <pt x="238" y="327" on="1"/>
        <pt x="238" y="283" on="1"/>
        <pt x="238" y="199" on="0"/>
        <pt x="264" y="149" on="0"/>
        <pt x="352" y="149" on="0"/>
        <pt x="374" y="197" on="0"/>
        <pt x="374" y="280" on="1"/>
        <pt x="374" y="326" on="1"/>
        <pt x="374" y="408" on="0"/>
      </contour>
      <contour>
        <pt x="462" y="794" on="1"/>
        <pt x="462" y="783" on="1"/>
        <pt x="462" y="720" on="0"/>
        <pt x="422" y="654" on="0"/>
        <pt x="361" y="654" on="1"/>
        <pt x="327" y="654" on="0"/>
        <pt x="255" y="678" on="1"/>
        <pt x="255" y="648" on="1"/>
        <pt x="129" y="648" on="1"/>
        <pt x="129" y="660" on="1"/>
        <pt x="129" y="724" on="0"/>
        <pt x="172" y="789" on="0"/>
        <pt x="226" y="789" on="1"/>
        <pt x="254" y="789" on="0"/>
        <pt x="336" y="765" on="1"/>
        <pt x="336" y="794" on="1"/>
      </contour>
    </TTGlyph>
    <TTGlyph name="P" xMin="40" yMin="0" xMax="517" yMax="621">
      <contour>
        <pt x="293" y="194" on="1"/>
        <pt x="250" y="194" on="1"/>
        <pt x="250" y="0" on="1"/>
        <pt x="40" y="0" on="1"/>
        <pt x="40" y="621" on="1"/>
        <pt x="282" y="621" on="1"/>
        <pt x="405" y="621" on="0"/>
        <pt x="517" y="521" on="0"/>
        <pt x="517" y="291" on="0"/>
        <pt x="409" y="194" on="0"/>
      </contour>
      <contour>
        <pt x="312" y="355" on="0"/>
        <pt x="312" y="431" on="0"/>
        <pt x="293" y="463" on="0"/>
        <pt x="267" y="463" on="1"/>
        <pt x="246" y="463" on="1"/>
        <pt x="246" y="323" on="1"/>
        <pt x="272" y="323" on="1"/>
        <pt x="295" y="323" on="0"/>
      </contour>
    </TTGlyph>
    <TTGlyph name="Q" xMin="18" yMin="-103" xMax="606" yMax="631">
      <contour>
        <pt x="152" y="631" on="0"/>
        <pt x="456" y="631" on="0"/>
        <pt x="587" y="483" on="0"/>
        <pt x="587" y="320" on="1"/>
        <pt x="587" y="209" on="0"/>
        <pt x="530" y="82" on="0"/>
        <pt x="464" y="42" on="1"/>
        <pt x="464" y="38" on="1"/>
        <pt x="606" y="38" on="1"/>
        <pt x="593" y="-103" on="1"/>
        <pt x="551" y="-103" on="1"/>
        <pt x="454" y="-103" on="0"/>
        <pt x="389" y="-64" on="1"/>
        <pt x="300" y="-10" on="1"/>
        <pt x="147" y="-10" on="0"/>
        <pt x="18" y="153" on="0"/>
        <pt x="18" y="481" on="0"/>
      </contour>
      <contour>
        <pt x="346" y="459" on="0"/>
        <pt x="260" y="459" on="0"/>
        <pt x="236" y="409" on="0"/>
        <pt x="236" y="327" on="1"/>
        <pt x="236" y="283" on="1"/>
        <pt x="236" y="199" on="0"/>
        <pt x="262" y="149" on="0"/>
        <pt x="350" y="149" on="0"/>
        <pt x="372" y="197" on="0"/>
        <pt x="372" y="280" on="1"/>
        <pt x="372" y="326" on="1"/>
        <pt x="372" y="408" on="0"/>
      </contour>
    </TTGlyph>
    <TTGlyph name="R" xMin="40" yMin="0" xMax="544" yMax="621">
      <contour>
        <pt x="531" y="421" on="1"/>
        <pt x="531" y="361" on="0"/>
        <pt x="492" y="290" on="0"/>
        <pt x="451" y="263" on="1"/>
        <pt x="544" y="0" on="1"/>
        <pt x="323" y="0" on="1"/>
        <pt x="261" y="214" on="1"/>
        <pt x="245" y="214" on="1"/>
        <pt x="245" y="0" on="1"/>
        <pt x="40" y="0" on="1"/>
        <pt x="40" y="621" on="1"/>
        <pt x="305" y="621" on="1"/>
        <pt x="421" y="621" on="0"/>
        <pt x="531" y="524" on="0"/>
      </contour>
      <contour>
        <pt x="289" y="336" on="0"/>
        <pt x="308" y="363" on="0"/>
        <pt x="308" y="431" on="0"/>
        <pt x="288" y="457" on="0"/>
        <pt x="267" y="457" on="1"/>
        <pt x="241" y="457" on="1"/>
        <pt x="241" y="336" on="1"/>
        <pt x="266" y="336" on="1"/>
      </contour>
    </TTGlyph>
    <TTGlyph name="Racute" xMin="40" yMin="0" xMax="544" yMax="789">
      <contour>
        <pt x="531" y="421" on="1"/>
        <pt x="531" y="361" on="0"/>
        <pt x="492" y="290" on="0"/>
        <pt x="451" y="263" on="1"/>
        <pt x="544" y="0" on="1"/>
        <pt x="323" y="0" on="1"/>
        <pt x="261" y="214" on="1"/>
        <pt x="245" y="214" on="1"/>
        <pt x="245" y="0" on="1"/>
        <pt x="40" y="0" on="1"/>
        <pt x="40" y="621" on="1"/>
        <pt x="305" y="621" on="1"/>
        <pt x="421" y="621" on="0"/>
        <pt x="531" y="524" on="0"/>
      </contour>
      <contour>
        <pt x="289" y="336" on="0"/>
        <pt x="308" y="363" on="0"/>
        <pt x="308" y="431" on="0"/>
        <pt x="288" y="457" on="0"/>
        <pt x="267" y="457" on="1"/>
        <pt x="241" y="457" on="1"/>
        <pt x="241" y="336" on="1"/>
        <pt x="266" y="336" on="1"/>
      </contour>
      <contour>
        <pt x="441" y="789" on="1"/>
        <pt x="302" y="659" on="1"/>
        <pt x="163" y="659" on="1"/>
        <pt x="227" y="789" on="1"/>
      </contour>
    </TTGlyph>
    <TTGlyph name="Rcaron" xMin="40" yMin="0" xMax="544" yMax="788">
      <contour>
        <pt x="531" y="421" on="1"/>
        <pt x="531" y="361" on="0"/>
        <pt x="492" y="290" on="0"/>
        <pt x="451" y="263" on="1"/>
        <pt x="544" y="0" on="1"/>
        <pt x="323" y="0" on="1"/>
        <pt x="261" y="214" on="1"/>
        <pt x="245" y="214" on="1"/>
        <pt x="245" y="0" on="1"/>
        <pt x="40" y="0" on="1"/>
        <pt x="40" y="621" on="1"/>
        <pt x="305" y="621" on="1"/>
        <pt x="421" y="621" on="0"/>
        <pt x="531" y="524" on="0"/>
      </contour>
      <contour>
        <pt x="289" y="336" on="0"/>
        <pt x="308" y="363" on="0"/>
        <pt x="308" y="431" on="0"/>
        <pt x="288" y="457" on="0"/>
        <pt x="267" y="457" on="1"/>
        <pt x="241" y="457" on="1"/>
        <pt x="241" y="336" on="1"/>
        <pt x="266" y="336" on="1"/>
      </contour>
      <contour>
        <pt x="160" y="657" on="1"/>
        <pt x="82" y="788" on="1"/>
        <pt x="213" y="788" on="1"/>
        <pt x="248" y="736" on="1"/>
        <pt x="284" y="788" on="1"/>
        <pt x="416" y="788" on="1"/>
        <pt x="338" y="657" on="1"/>
      </contour>
    </TTGlyph>
    <TTGlyph name="Rcommaaccent" xMin="40" yMin="-164" xMax="544" yMax="621">
      <contour>
        <pt x="531" y="421" on="1"/>
        <pt x="531" y="361" on="0"/>
        <pt x="492" y="290" on="0"/>
        <pt x="451" y="263" on="1"/>
        <pt x="544" y="0" on="1"/>
        <pt x="323" y="0" on="1"/>
        <pt x="261" y="214" on="1"/>
        <pt x="245" y="214" on="1"/>
        <pt x="245" y="0" on="1"/>
        <pt x="40" y="0" on="1"/>
        <pt x="40" y="621" on="1"/>
        <pt x="305" y="621" on="1"/>
        <pt x="421" y="621" on="0"/>
        <pt x="531" y="524" on="0"/>
      </contour>
      <contour>
        <pt x="289" y="336" on="0"/>
        <pt x="308" y="363" on="0"/>
        <pt x="308" y="431" on="0"/>
        <pt x="288" y="457" on="0"/>
        <pt x="267" y="457" on="1"/>
        <pt x="241" y="457" on="1"/>
        <pt x="241" y="336" on="1"/>
        <pt x="266" y="336" on="1"/>
      </contour>
      <contour>
        <pt x="291" y="-10" on="1"/>
        <pt x="329" y="-10" on="0"/>
        <pt x="373" y="-44" on="0"/>
        <pt x="373" y="-74" on="1"/>
        <pt x="373" y="-130" on="0"/>
        <pt x="292" y="-164" on="1"/>
        <pt x="217" y="-155" on="1"/>
        <pt x="259" y="-113" on="1"/>
        <pt x="209" y="-104" on="0"/>
        <pt x="209" y="-65" on="1"/>
        <pt x="209" y="-10" on="0"/>
      </contour>
    </TTGlyph>
    <TTGlyph name="S" xMin="10" yMin="-10" xMax="473" yMax="631">
      <contour>
        <pt x="10" y="521" on="0"/>
        <pt x="130" y="631" on="0"/>
        <pt x="343" y="631" on="0"/>
        <pt x="456" y="611" on="1"/>
        <pt x="433" y="435" on="1"/>
        <pt x="308" y="460" on="0"/>
        <pt x="230" y="460" on="0"/>
        <pt x="230" y="436" on="1"/>
        <pt x="230" y="427" on="0"/>
        <pt x="242" y="420" on="0"/>
        <pt x="248" y="416" on="0"/>
        <pt x="265" y="410" on="0"/>
        <pt x="276" y="405" on="0"/>
        <pt x="337" y="380" on="0"/>
        <pt x="368" y="365" on="0"/>
        <pt x="395" y="348" on="1"/>
        <pt x="473" y="297" on="0"/>
        <pt x="473" y="99" on="0"/>
        <pt x="355" y="-10" on="0"/>
        <pt x="134" y="-10" on="0"/>
        <pt x="28" y="17" on="1"/>
        <pt x="42" y="186" on="1"/>
        <pt x="176" y="152" on="0"/>
        <pt x="223" y="152" on="1"/>
        <pt x="254" y="152" on="0"/>
        <pt x="254" y="174" on="1"/>
        <pt x="254" y="184" on="0"/>
        <pt x="239" y="196" on="0"/>
        <pt x="210" y="210" on="0"/>
        <pt x="154" y="233" on="0"/>
        <pt x="116" y="250" on="0"/>
        <pt x="90" y="268" on="1"/>
        <pt x="10" y="323" on="0"/>
      </contour>
    </TTGlyph>
    <TTGlyph name="Scaron" xMin="9" yMin="-10" xMax="472" yMax="774">
      <contour>
        <pt x="9" y="521" on="0"/>
        <pt x="129" y="631" on="0"/>
        <pt x="342" y="631" on="0"/>
        <pt x="455" y="611" on="1"/>
        <pt x="432" y="435" on="1"/>
        <pt x="307" y="460" on="0"/>
        <pt x="229" y="460" on="0"/>
        <pt x="229" y="436" on="1"/>
        <pt x="229" y="427" on="0"/>
        <pt x="241" y="420" on="0"/>
        <pt x="247" y="416" on="0"/>
        <pt x="264" y="410" on="0"/>
        <pt x="275" y="405" on="0"/>
        <pt x="336" y="380" on="0"/>
        <pt x="367" y="365" on="0"/>
        <pt x="394" y="348" on="1"/>
        <pt x="472" y="297" on="0"/>
        <pt x="472" y="99" on="0"/>
        <pt x="354" y="-10" on="0"/>
        <pt x="133" y="-10" on="0"/>
        <pt x="27" y="17" on="1"/>
        <pt x="41" y="186" on="1"/>
        <pt x="175" y="152" on="0"/>
        <pt x="222" y="152" on="1"/>
        <pt x="253" y="152" on="0"/>
        <pt x="253" y="174" on="1"/>
        <pt x="253" y="184" on="0"/>
        <pt x="238" y="196" on="0"/>
        <pt x="209" y="210" on="0"/>
        <pt x="153" y="233" on="0"/>
        <pt x="115" y="250" on="0"/>
        <pt x="90" y="268" on="1"/>
        <pt x="9" y="323" on="0"/>
      </contour>
      <contour>
        <pt x="150" y="649" on="1"/>
        <pt x="76" y="774" on="1"/>
        <pt x="200" y="774" on="1"/>
        <pt x="234" y="724" on="1"/>
        <pt x="268" y="774" on="1"/>
        <pt x="393" y="774" on="1"/>
        <pt x="319" y="649" on="1"/>
      </contour>
    </TTGlyph>
    <TTGlyph name="T" xMin="-10" yMin="0" xMax="486" yMax="621">
      <contour>
        <pt x="474" y="452" on="1"/>
        <pt x="342" y="452" on="1"/>
        <pt x="342" y="0" on="1"/>
        <pt x="129" y="0" on="1"/>
        <pt x="129" y="452" on="1"/>
        <pt x="-10" y="452" on="1"/>
        <pt x="-1" y="621" on="1"/>
        <pt x="486" y="621" on="1"/>
      </contour>
    </TTGlyph>
    <TTGlyph name="Thorn" xMin="40" yMin="0" xMax="504" yMax="621">
      <contour>
        <pt x="280" y="114" on="1"/>
        <pt x="250" y="114" on="1"/>
        <pt x="250" y="0" on="1"/>
        <pt x="40" y="0" on="1"/>
        <pt x="40" y="621" on="1"/>
        <pt x="250" y="621" on="1"/>
        <pt x="250" y="541" on="1"/>
        <pt x="269" y="541" on="1"/>
        <pt x="392" y="541" on="0"/>
        <pt x="504" y="441" on="0"/>
        <pt x="504" y="211" on="0"/>
        <pt x="396" y="114" on="0"/>
      </contour>
      <contour>
        <pt x="299" y="278" on="0"/>
        <pt x="299" y="354" on="0"/>
        <pt x="280" y="386" on="0"/>
        <pt x="254" y="386" on="1"/>
        <pt x="246" y="386" on="1"/>
        <pt x="246" y="246" on="1"/>
        <pt x="259" y="246" on="1"/>
        <pt x="282" y="246" on="0"/>
      </contour>
    </TTGlyph>
    <TTGlyph name="U" xMin="42" yMin="-10" xMax="571" yMax="621">
      <contour>
        <pt x="260" y="220" on="1"/>
        <pt x="260" y="166" on="0"/>
        <pt x="357" y="166" on="0"/>
        <pt x="357" y="221" on="1"/>
        <pt x="357" y="621" on="1"/>
        <pt x="571" y="621" on="1"/>
        <pt x="571" y="208" on="1"/>
        <pt x="571" y="98" on="0"/>
        <pt x="433" y="-10" on="0"/>
        <pt x="304" y="-10" on="1"/>
        <pt x="42" y="-10" on="0"/>
        <pt x="42" y="206" on="1"/>
        <pt x="42" y="621" on="1"/>
        <pt x="260" y="621" on="1"/>
      </contour>
    </TTGlyph>
    <TTGlyph name="Uacute" xMin="36" yMin="-10" xMax="565" yMax="775">
      <contour>
        <pt x="254" y="220" on="1"/>
        <pt x="254" y="166" on="0"/>
        <pt x="351" y="166" on="0"/>
        <pt x="351" y="221" on="1"/>
        <pt x="351" y="621" on="1"/>
        <pt x="565" y="621" on="1"/>
        <pt x="565" y="208" on="1"/>
        <pt x="565" y="98" on="0"/>
        <pt x="427" y="-10" on="0"/>
        <pt x="298" y="-10" on="1"/>
        <pt x="36" y="-10" on="0"/>
        <pt x="36" y="206" on="1"/>
        <pt x="36" y="621" on="1"/>
        <pt x="254" y="621" on="1"/>
      </contour>
      <contour>
        <pt x="500" y="775" on="1"/>
        <pt x="368" y="651" on="1"/>
        <pt x="236" y="651" on="1"/>
        <pt x="297" y="775" on="1"/>
      </contour>
    </TTGlyph>
    <TTGlyph name="Ucircumflex" xMin="36" yMin="-10" xMax="565" yMax="770">
      <contour>
        <pt x="254" y="220" on="1"/>
        <pt x="254" y="166" on="0"/>
        <pt x="351" y="166" on="0"/>
        <pt x="351" y="221" on="1"/>
        <pt x="351" y="621" on="1"/>
        <pt x="565" y="621" on="1"/>
        <pt x="565" y="208" on="1"/>
        <pt x="565" y="98" on="0"/>
        <pt x="427" y="-10" on="0"/>
        <pt x="298" y="-10" on="1"/>
        <pt x="36" y="-10" on="0"/>
        <pt x="36" y="206" on="1"/>
        <pt x="36" y="621" on="1"/>
        <pt x="254" y="621" on="1"/>
      </contour>
      <contour>
        <pt x="385" y="770" on="1"/>
        <pt x="459" y="645" on="1"/>
        <pt x="335" y="645" on="1"/>
        <pt x="301" y="695" on="1"/>
        <pt x="267" y="645" on="1"/>
        <pt x="142" y="645" on="1"/>
        <pt x="216" y="770" on="1"/>
      </contour>
    </TTGlyph>
    <TTGlyph name="Udieresis" xMin="36" yMin="-10" xMax="565" yMax="769">
      <contour>
        <pt x="254" y="220" on="1"/>
        <pt x="254" y="166" on="0"/>
        <pt x="351" y="166" on="0"/>
        <pt x="351" y="221" on="1"/>
        <pt x="351" y="621" on="1"/>
        <pt x="565" y="621" on="1"/>
        <pt x="565" y="208" on="1"/>
        <pt x="565" y="98" on="0"/>
        <pt x="427" y="-10" on="0"/>
        <pt x="298" y="-10" on="1"/>
        <pt x="36" y="-10" on="0"/>
        <pt x="36" y="206" on="1"/>
        <pt x="36" y="621" on="1"/>
        <pt x="254" y="621" on="1"/>
      </contour>
      <contour>
        <pt x="139" y="644" on="0"/>
        <pt x="139" y="769" on="0"/>
        <pt x="286" y="769" on="0"/>
        <pt x="286" y="644" on="0"/>
      </contour>
      <contour>
        <pt x="316" y="644" on="0"/>
        <pt x="316" y="769" on="0"/>
        <pt x="463" y="769" on="0"/>
        <pt x="463" y="644" on="0"/>
      </contour>
    </TTGlyph>
    <TTGlyph name="Ugrave" xMin="36" yMin="-10" xMax="565" yMax="775">
      <contour>
        <pt x="254" y="220" on="1"/>
        <pt x="254" y="166" on="0"/>
        <pt x="351" y="166" on="0"/>
        <pt x="351" y="221" on="1"/>
        <pt x="351" y="621" on="1"/>
        <pt x="565" y="621" on="1"/>
        <pt x="565" y="208" on="1"/>
        <pt x="565" y="98" on="0"/>
        <pt x="427" y="-10" on="0"/>
        <pt x="298" y="-10" on="1"/>
        <pt x="36" y="-10" on="0"/>
        <pt x="36" y="206" on="1"/>
        <pt x="36" y="621" on="1"/>
        <pt x="254" y="621" on="1"/>
      </contour>
      <contour>
        <pt x="245" y="651" on="1"/>
        <pt x="124" y="775" on="1"/>
        <pt x="315" y="775" on="1"/>
        <pt x="380" y="651" on="1"/>
      </contour>
    </TTGlyph>
    <TTGlyph name="V" xMin="10" yMin="0" xMax="564" yMax="621">
      <contour>
        <pt x="564" y="621" on="1"/>
        <pt x="444" y="0" on="1"/>
        <pt x="137" y="0" on="1"/>
        <pt x="10" y="621" on="1"/>
        <pt x="241" y="621" on="1"/>
        <pt x="289" y="240" on="1"/>
        <pt x="301" y="240" on="1"/>
        <pt x="344" y="621" on="1"/>
      </contour>
    </TTGlyph>
    <TTGlyph name="W" xMin="20" yMin="0" xMax="734" yMax="621">
      <contour>
        <pt x="734" y="621" on="1"/>
        <pt x="668" y="0" on="1"/>
        <pt x="430" y="0" on="1"/>
        <pt x="383" y="252" on="1"/>
        <pt x="375" y="252" on="1"/>
        <pt x="335" y="0" on="1"/>
        <pt x="97" y="0" on="1"/>
        <pt x="20" y="621" on="1"/>
        <pt x="216" y="621" on="1"/>
        <pt x="241" y="336" on="1"/>
        <pt x="250" y="336" on="1"/>
        <pt x="288" y="621" on="1"/>
        <pt x="477" y="621" on="1"/>
        <pt x="519" y="336" on="1"/>
        <pt x="526" y="336" on="1"/>
        <pt x="545" y="621" on="1"/>
      </contour>
    </TTGlyph>
    <TTGlyph name="X" xMin="0" yMin="0" xMax="573" yMax="621">
      <contour>
        <pt x="573" y="0" on="1"/>
        <pt x="344" y="0" on="1"/>
        <pt x="288" y="169" on="1"/>
        <pt x="279" y="169" on="1"/>
        <pt x="219" y="0" on="1"/>
        <pt x="0" y="0" on="1"/>
        <pt x="120" y="316" on="1"/>
        <pt x="12" y="621" on="1"/>
        <pt x="245" y="621" on="1"/>
        <pt x="291" y="447" on="1"/>
        <pt x="299" y="447" on="1"/>
        <pt x="350" y="621" on="1"/>
        <pt x="558" y="621" on="1"/>
        <pt x="458" y="315" on="1"/>
      </contour>
    </TTGlyph>
    <TTGlyph name="Y" xMin="0" yMin="0" xMax="536" yMax="621">
      <contour>
        <pt x="536" y="621" on="1"/>
        <pt x="372" y="197" on="1"/>
        <pt x="372" y="0" on="1"/>
        <pt x="159" y="0" on="1"/>
        <pt x="159" y="198" on="1"/>
        <pt x="0" y="621" on="1"/>
        <pt x="225" y="621" on="1"/>
        <pt x="269" y="393" on="1"/>
        <pt x="275" y="393" on="1"/>
        <pt x="317" y="621" on="1"/>
      </contour>
    </TTGlyph>
    <TTGlyph name="Yacute" xMin="0" yMin="0" xMax="536" yMax="775">
      <contour>
        <pt x="536" y="621" on="1"/>
        <pt x="372" y="197" on="1"/>
        <pt x="372" y="0" on="1"/>
        <pt x="159" y="0" on="1"/>
        <pt x="159" y="198" on="1"/>
        <pt x="0" y="621" on="1"/>
        <pt x="225" y="621" on="1"/>
        <pt x="269" y="393" on="1"/>
        <pt x="275" y="393" on="1"/>
        <pt x="317" y="621" on="1"/>
      </contour>
      <contour>
        <pt x="465" y="775" on="1"/>
        <pt x="333" y="651" on="1"/>
        <pt x="201" y="651" on="1"/>
        <pt x="262" y="775" on="1"/>
      </contour>
    </TTGlyph>
    <TTGlyph name="Ydieresis" xMin="0" yMin="0" xMax="536" yMax="779">
      <contour>
        <pt x="536" y="621" on="1"/>
        <pt x="372" y="197" on="1"/>
        <pt x="372" y="0" on="1"/>
        <pt x="159" y="0" on="1"/>
        <pt x="159" y="198" on="1"/>
        <pt x="0" y="621" on="1"/>
        <pt x="225" y="621" on="1"/>
        <pt x="269" y="393" on="1"/>
        <pt x="275" y="393" on="1"/>
        <pt x="317" y="621" on="1"/>
      </contour>
      <contour>
        <pt x="108" y="654" on="0"/>
        <pt x="108" y="779" on="0"/>
        <pt x="255" y="779" on="0"/>
        <pt x="255" y="654" on="0"/>
      </contour>
      <contour>
        <pt x="285" y="654" on="0"/>
        <pt x="285" y="779" on="0"/>
        <pt x="432" y="779" on="0"/>
        <pt x="432" y="654" on="0"/>
      </contour>
    </TTGlyph>
    <TTGlyph name="Z" xMin="12" yMin="0" xMax="515" yMax="621">
      <contour>
        <pt x="515" y="0" on="1"/>
        <pt x="45" y="0" on="1"/>
        <pt x="38" y="107" on="1"/>
        <pt x="230" y="450" on="1"/>
        <pt x="23" y="450" on="1"/>
        <pt x="12" y="621" on="1"/>
        <pt x="499" y="621" on="1"/>
        <pt x="506" y="516" on="1"/>
        <pt x="326" y="159" on="1"/>
        <pt x="515" y="159" on="1"/>
      </contour>
    </TTGlyph>
    <TTGlyph name="Zcaron" xMin="15" yMin="0" xMax="518" yMax="774">
      <contour>
        <pt x="518" y="0" on="1"/>
        <pt x="48" y="0" on="1"/>
        <pt x="41" y="107" on="1"/>
        <pt x="233" y="450" on="1"/>
        <pt x="26" y="450" on="1"/>
        <pt x="15" y="621" on="1"/>
        <pt x="502" y="621" on="1"/>
        <pt x="509" y="516" on="1"/>
        <pt x="329" y="159" on="1"/>
        <pt x="518" y="159" on="1"/>
      </contour>
      <contour>
        <pt x="188" y="649" on="1"/>
        <pt x="114" y="774" on="1"/>
        <pt x="238" y="774" on="1"/>
        <pt x="272" y="724" on="1"/>
        <pt x="306" y="774" on="1"/>
        <pt x="431" y="774" on="1"/>
        <pt x="357" y="649" on="1"/>
      </contour>
    </TTGlyph>
    <TTGlyph name="a" xMin="14" yMin="-10" xMax="495" yMax="491">
      <contour>
        <pt x="453" y="350" on="1"/>
        <pt x="447" y="150" on="1"/>
        <pt x="447" y="136" on="0"/>
        <pt x="468" y="127" on="0"/>
        <pt x="495" y="127" on="1"/>
        <pt x="476" y="-6" on="1"/>
        <pt x="416" y="-10" on="0"/>
        <pt x="395" y="-10" on="1"/>
        <pt x="322" y="-10" on="0"/>
        <pt x="289" y="29" on="1"/>
        <pt x="282" y="29" on="1"/>
        <pt x="234" y="-10" on="0"/>
        <pt x="89" y="-10" on="0"/>
        <pt x="14" y="67" on="0"/>
        <pt x="14" y="135" on="1"/>
        <pt x="14" y="219" on="0"/>
        <pt x="127" y="285" on="0"/>
        <pt x="250" y="294" on="1"/>
        <pt x="250" y="312" on="1"/>
        <pt x="250" y="330" on="0"/>
        <pt x="231" y="330" on="1"/>
        <pt x="180" y="330" on="0"/>
        <pt x="56" y="299" on="1"/>
        <pt x="25" y="457" on="1"/>
        <pt x="168" y="491" on="0"/>
        <pt x="374" y="491" on="0"/>
        <pt x="453" y="423" on="0"/>
      </contour>
      <contour>
        <pt x="227" y="119" on="1"/>
        <pt x="256" y="119" on="0"/>
        <pt x="256" y="149" on="1"/>
        <pt x="256" y="187" on="1"/>
        <pt x="204" y="180" on="0"/>
        <pt x="204" y="147" on="1"/>
        <pt x="204" y="119" on="0"/>
      </contour>
    </TTGlyph>
    <TTGlyph name="aacute" xMin="14" yMin="-10" xMax="495" yMax="647">
      <contour>
        <pt x="453" y="350" on="1"/>
        <pt x="447" y="150" on="1"/>
        <pt x="447" y="136" on="0"/>
        <pt x="468" y="127" on="0"/>
        <pt x="495" y="127" on="1"/>
        <pt x="476" y="-6" on="1"/>
        <pt x="416" y="-10" on="0"/>
        <pt x="395" y="-10" on="1"/>
        <pt x="322" y="-10" on="0"/>
        <pt x="289" y="29" on="1"/>
        <pt x="282" y="29" on="1"/>
        <pt x="234" y="-10" on="0"/>
        <pt x="89" y="-10" on="0"/>
        <pt x="14" y="67" on="0"/>
        <pt x="14" y="135" on="1"/>
        <pt x="14" y="219" on="0"/>
        <pt x="127" y="285" on="0"/>
        <pt x="250" y="294" on="1"/>
        <pt x="250" y="312" on="1"/>
        <pt x="250" y="330" on="0"/>
        <pt x="231" y="330" on="1"/>
        <pt x="180" y="330" on="0"/>
        <pt x="56" y="299" on="1"/>
        <pt x="25" y="457" on="1"/>
        <pt x="168" y="491" on="0"/>
        <pt x="374" y="491" on="0"/>
        <pt x="453" y="423" on="0"/>
      </contour>
      <contour>
        <pt x="227" y="119" on="1"/>
        <pt x="256" y="119" on="0"/>
        <pt x="256" y="149" on="1"/>
        <pt x="256" y="187" on="1"/>
        <pt x="204" y="180" on="0"/>
        <pt x="204" y="147" on="1"/>
        <pt x="204" y="119" on="0"/>
      </contour>
      <contour>
        <pt x="455" y="647" on="1"/>
        <pt x="316" y="517" on="1"/>
        <pt x="177" y="517" on="1"/>
        <pt x="241" y="647" on="1"/>
      </contour>
    </TTGlyph>
    <TTGlyph name="acircumflex" xMin="14" yMin="-10" xMax="495" yMax="642">
      <contour>
        <pt x="453" y="350" on="1"/>
        <pt x="447" y="150" on="1"/>
        <pt x="447" y="136" on="0"/>
        <pt x="468" y="127" on="0"/>
        <pt x="495" y="127" on="1"/>
        <pt x="476" y="-6" on="1"/>
        <pt x="416" y="-10" on="0"/>
        <pt x="395" y="-10" on="1"/>
        <pt x="322" y="-10" on="0"/>
        <pt x="289" y="29" on="1"/>
        <pt x="282" y="29" on="1"/>
        <pt x="234" y="-10" on="0"/>
        <pt x="89" y="-10" on="0"/>
        <pt x="14" y="67" on="0"/>
        <pt x="14" y="135" on="1"/>
        <pt x="14" y="219" on="0"/>
        <pt x="127" y="285" on="0"/>
        <pt x="250" y="294" on="1"/>
        <pt x="250" y="312" on="1"/>
        <pt x="250" y="330" on="0"/>
        <pt x="231" y="330" on="1"/>
        <pt x="180" y="330" on="0"/>
        <pt x="56" y="299" on="1"/>
        <pt x="25" y="457" on="1"/>
        <pt x="168" y="491" on="0"/>
        <pt x="374" y="491" on="0"/>
        <pt x="453" y="423" on="0"/>
      </contour>
      <contour>
        <pt x="227" y="119" on="1"/>
        <pt x="256" y="119" on="0"/>
        <pt x="256" y="149" on="1"/>
        <pt x="256" y="187" on="1"/>
        <pt x="204" y="180" on="0"/>
        <pt x="204" y="147" on="1"/>
        <pt x="204" y="119" on="0"/>
      </contour>
      <contour>
        <pt x="335" y="642" on="1"/>
        <pt x="413" y="511" on="1"/>
        <pt x="282" y="511" on="1"/>
        <pt x="247" y="563" on="1"/>
        <pt x="211" y="511" on="1"/>
        <pt x="79" y="511" on="1"/>
        <pt x="157" y="642" on="1"/>
      </contour>
    </TTGlyph>
    <TTGlyph name="acute" xMin="173" yMin="517" xMax="451" yMax="647">
      <contour>
        <pt x="451" y="647" on="1"/>
        <pt x="312" y="517" on="1"/>
        <pt x="173" y="517" on="1"/>
        <pt x="237" y="647" on="1"/>
      </contour>
    </TTGlyph>
    <TTGlyph name="adieresis" xMin="14" yMin="-10" xMax="495" yMax="641">
      <contour>
        <pt x="453" y="350" on="1"/>
        <pt x="447" y="150" on="1"/>
        <pt x="447" y="136" on="0"/>
        <pt x="468" y="127" on="0"/>
        <pt x="495" y="127" on="1"/>
        <pt x="476" y="-6" on="1"/>
        <pt x="416" y="-10" on="0"/>
        <pt x="395" y="-10" on="1"/>
        <pt x="322" y="-10" on="0"/>
        <pt x="289" y="29" on="1"/>
        <pt x="282" y="29" on="1"/>
        <pt x="234" y="-10" on="0"/>
        <pt x="89" y="-10" on="0"/>
        <pt x="14" y="67" on="0"/>
        <pt x="14" y="135" on="1"/>
        <pt x="14" y="219" on="0"/>
        <pt x="127" y="285" on="0"/>
        <pt x="250" y="294" on="1"/>
        <pt x="250" y="312" on="1"/>
        <pt x="250" y="330" on="0"/>
        <pt x="231" y="330" on="1"/>
        <pt x="180" y="330" on="0"/>
        <pt x="56" y="299" on="1"/>
        <pt x="25" y="457" on="1"/>
        <pt x="168" y="491" on="0"/>
        <pt x="374" y="491" on="0"/>
        <pt x="453" y="423" on="0"/>
      </contour>
      <contour>
        <pt x="227" y="119" on="1"/>
        <pt x="256" y="119" on="0"/>
        <pt x="256" y="149" on="1"/>
        <pt x="256" y="187" on="1"/>
        <pt x="204" y="180" on="0"/>
        <pt x="204" y="147" on="1"/>
        <pt x="204" y="119" on="0"/>
      </contour>
      <contour>
        <pt x="73" y="576" on="1"/>
        <pt x="73" y="608" on="0"/>
        <pt x="113" y="641" on="0"/>
        <pt x="148" y="641" on="1"/>
        <pt x="228" y="641" on="0"/>
        <pt x="228" y="576" on="1"/>
        <pt x="228" y="542" on="0"/>
        <pt x="189" y="510" on="0"/>
        <pt x="148" y="510" on="1"/>
        <pt x="73" y="510" on="0"/>
      </contour>
      <contour>
        <pt x="259" y="576" on="1"/>
        <pt x="259" y="608" on="0"/>
        <pt x="299" y="641" on="0"/>
        <pt x="334" y="641" on="1"/>
        <pt x="414" y="641" on="0"/>
        <pt x="414" y="576" on="1"/>
        <pt x="414" y="542" on="0"/>
        <pt x="375" y="510" on="0"/>
        <pt x="334" y="510" on="1"/>
        <pt x="259" y="510" on="0"/>
      </contour>
    </TTGlyph>
    <TTGlyph name="ae" xMin="14" yMin="-10" xMax="714" yMax="491">
      <contour>
        <pt x="491" y="491" on="1"/>
        <pt x="611" y="491" on="0"/>
        <pt x="714" y="391" on="0"/>
        <pt x="714" y="298" on="1"/>
        <pt x="714" y="267" on="0"/>
        <pt x="706" y="186" on="1"/>
        <pt x="455" y="186" on="1"/>
        <pt x="459" y="131" on="0"/>
        <pt x="520" y="131" on="1"/>
        <pt x="568" y="131" on="0"/>
        <pt x="673" y="153" on="1"/>
        <pt x="690" y="18" on="1"/>
        <pt x="584" y="-10" on="0"/>
        <pt x="391" y="-10" on="0"/>
        <pt x="333" y="39" on="1"/>
        <pt x="258" y="-10" on="0"/>
        <pt x="160" y="-10" on="1"/>
        <pt x="89" y="-10" on="0"/>
        <pt x="14" y="67" on="0"/>
        <pt x="14" y="135" on="1"/>
        <pt x="14" y="219" on="0"/>
        <pt x="127" y="285" on="0"/>
        <pt x="250" y="294" on="1"/>
        <pt x="250" y="312" on="1"/>
        <pt x="250" y="330" on="0"/>
        <pt x="231" y="330" on="1"/>
        <pt x="180" y="330" on="0"/>
        <pt x="56" y="299" on="1"/>
        <pt x="25" y="457" on="1"/>
        <pt x="168" y="491" on="0"/>
        <pt x="280" y="491" on="1"/>
        <pt x="342" y="491" on="0"/>
        <pt x="381" y="466" on="1"/>
        <pt x="424" y="491" on="0"/>
      </contour>
      <contour>
        <pt x="227" y="119" on="1"/>
        <pt x="256" y="119" on="0"/>
        <pt x="256" y="149" on="1"/>
        <pt x="256" y="187" on="1"/>
        <pt x="204" y="180" on="0"/>
        <pt x="204" y="147" on="1"/>
        <pt x="204" y="119" on="0"/>
      </contour>
      <contour>
        <pt x="488" y="330" on="1"/>
        <pt x="451" y="330" on="0"/>
        <pt x="451" y="277" on="1"/>
        <pt x="523" y="277" on="1"/>
        <pt x="523" y="292" on="1"/>
        <pt x="523" y="330" on="0"/>
      </contour>
    </TTGlyph>
    <TTGlyph name="agrave" xMin="14" yMin="-10" xMax="495" yMax="647">
      <contour>
        <pt x="453" y="350" on="1"/>
        <pt x="447" y="150" on="1"/>
        <pt x="447" y="136" on="0"/>
        <pt x="468" y="127" on="0"/>
        <pt x="495" y="127" on="1"/>
        <pt x="476" y="-6" on="1"/>
        <pt x="416" y="-10" on="0"/>
        <pt x="395" y="-10" on="1"/>
        <pt x="322" y="-10" on="0"/>
        <pt x="289" y="29" on="1"/>
        <pt x="282" y="29" on="1"/>
        <pt x="234" y="-10" on="0"/>
        <pt x="89" y="-10" on="0"/>
        <pt x="14" y="67" on="0"/>
        <pt x="14" y="135" on="1"/>
        <pt x="14" y="219" on="0"/>
        <pt x="127" y="285" on="0"/>
        <pt x="250" y="294" on="1"/>
        <pt x="250" y="312" on="1"/>
        <pt x="250" y="330" on="0"/>
        <pt x="231" y="330" on="1"/>
        <pt x="180" y="330" on="0"/>
        <pt x="56" y="299" on="1"/>
        <pt x="25" y="457" on="1"/>
        <pt x="168" y="491" on="0"/>
        <pt x="374" y="491" on="0"/>
        <pt x="453" y="423" on="0"/>
      </contour>
      <contour>
        <pt x="227" y="119" on="1"/>
        <pt x="256" y="119" on="0"/>
        <pt x="256" y="149" on="1"/>
        <pt x="256" y="187" on="1"/>
        <pt x="204" y="180" on="0"/>
        <pt x="204" y="147" on="1"/>
        <pt x="204" y="119" on="0"/>
      </contour>
      <contour>
        <pt x="219" y="517" on="1"/>
        <pt x="92" y="647" on="1"/>
        <pt x="293" y="647" on="1"/>
        <pt x="361" y="517" on="1"/>
      </contour>
    </TTGlyph>
    <TTGlyph name="ampersand" xMin="29" yMin="-10" xMax="672" yMax="641">
      <contour>
        <pt x="260" y="-10" on="1"/>
        <pt x="140" y="-10" on="0"/>
        <pt x="29" y="79" on="0"/>
        <pt x="29" y="184" on="1"/>
        <pt x="29" y="253" on="0"/>
        <pt x="86" y="328" on="0"/>
        <pt x="142" y="349" on="1"/>
        <pt x="92" y="405" on="0"/>
        <pt x="92" y="482" on="1"/>
        <pt x="92" y="641" on="0"/>
        <pt x="522" y="641" on="0"/>
        <pt x="522" y="478" on="1"/>
        <pt x="522" y="413" on="0"/>
        <pt x="473" y="347" on="0"/>
        <pt x="404" y="305" on="1"/>
        <pt x="477" y="226" on="1"/>
        <pt x="482" y="226" on="1"/>
        <pt x="482" y="320" on="1"/>
        <pt x="640" y="320" on="1"/>
        <pt x="640" y="247" on="1"/>
        <pt x="640" y="173" on="0"/>
        <pt x="587" y="133" on="1"/>
        <pt x="587" y="129" on="1"/>
        <pt x="672" y="129" on="1"/>
        <pt x="654" y="-10" on="1"/>
        <pt x="560" y="-10" on="1"/>
        <pt x="489" y="-10" on="0"/>
        <pt x="443" y="20" on="1"/>
        <pt x="436" y="20" on="1"/>
        <pt x="403" y="3" on="0"/>
        <pt x="330" y="-10" on="0"/>
      </contour>
      <contour>
        <pt x="228" y="182" on="1"/>
        <pt x="228" y="133" on="0"/>
        <pt x="279" y="133" on="1"/>
        <pt x="332" y="133" on="1"/>
        <pt x="332" y="137" on="1"/>
        <pt x="246" y="224" on="1"/>
        <pt x="228" y="213" on="0"/>
      </contour>
      <contour>
        <pt x="344" y="445" on="1"/>
        <pt x="344" y="475" on="0"/>
        <pt x="283" y="475" on="0"/>
        <pt x="283" y="447" on="1"/>
        <pt x="283" y="434" on="0"/>
        <pt x="290" y="424" on="0"/>
        <pt x="292" y="420" on="0"/>
        <pt x="299" y="413" on="0"/>
        <pt x="302" y="411" on="0"/>
        <pt x="311" y="402" on="0"/>
        <pt x="313" y="401" on="1"/>
        <pt x="331" y="415" on="0"/>
        <pt x="344" y="431" on="0"/>
      </contour>
    </TTGlyph>
    <TTGlyph name="approxequal" xMin="40" yMin="97" xMax="452" yMax="454">
      <contour>
        <pt x="452" y="263" on="1"/>
        <pt x="452" y="250" on="1"/>
        <pt x="452" y="179" on="0"/>
        <pt x="403" y="103" on="0"/>
        <pt x="329" y="103" on="1"/>
        <pt x="285" y="103" on="0"/>
        <pt x="201" y="131" on="1"/>
        <pt x="201" y="97" on="1"/>
        <pt x="48" y="97" on="1"/>
        <pt x="48" y="111" on="1"/>
        <pt x="48" y="183" on="0"/>
        <pt x="100" y="257" on="0"/>
        <pt x="166" y="257" on="1"/>
        <pt x="201" y="257" on="0"/>
        <pt x="299" y="229" on="1"/>
        <pt x="299" y="263" on="1"/>
      </contour>
      <contour>
        <pt x="444" y="454" on="1"/>
        <pt x="444" y="441" on="1"/>
        <pt x="444" y="370" on="0"/>
        <pt x="395" y="294" on="0"/>
        <pt x="321" y="294" on="1"/>
        <pt x="277" y="294" on="0"/>
        <pt x="193" y="322" on="1"/>
        <pt x="193" y="288" on="1"/>
        <pt x="40" y="288" on="1"/>
        <pt x="40" y="302" on="1"/>
        <pt x="40" y="374" on="0"/>
        <pt x="92" y="449" on="0"/>
        <pt x="158" y="449" on="1"/>
        <pt x="191" y="449" on="0"/>
        <pt x="291" y="421" on="1"/>
        <pt x="291" y="454" on="1"/>
      </contour>
    </TTGlyph>
    <TTGlyph name="aring" xMin="14" yMin="-10" xMax="495" yMax="668">
      <contour>
        <pt x="453" y="350" on="1"/>
        <pt x="447" y="150" on="1"/>
        <pt x="447" y="136" on="0"/>
        <pt x="468" y="127" on="0"/>
        <pt x="495" y="127" on="1"/>
        <pt x="476" y="-6" on="1"/>
        <pt x="416" y="-10" on="0"/>
        <pt x="395" y="-10" on="1"/>
        <pt x="322" y="-10" on="0"/>
        <pt x="289" y="29" on="1"/>
        <pt x="282" y="29" on="1"/>
        <pt x="234" y="-10" on="0"/>
        <pt x="89" y="-10" on="0"/>
        <pt x="14" y="67" on="0"/>
        <pt x="14" y="135" on="1"/>
        <pt x="14" y="219" on="0"/>
        <pt x="127" y="285" on="0"/>
        <pt x="250" y="294" on="1"/>
        <pt x="250" y="312" on="1"/>
        <pt x="250" y="330" on="0"/>
        <pt x="231" y="330" on="1"/>
        <pt x="180" y="330" on="0"/>
        <pt x="56" y="299" on="1"/>
        <pt x="25" y="457" on="1"/>
        <pt x="168" y="491" on="0"/>
        <pt x="374" y="491" on="0"/>
        <pt x="453" y="423" on="0"/>
      </contour>
      <contour>
        <pt x="227" y="119" on="1"/>
        <pt x="256" y="119" on="0"/>
        <pt x="256" y="149" on="1"/>
        <pt x="256" y="187" on="1"/>
        <pt x="204" y="180" on="0"/>
        <pt x="204" y="147" on="1"/>
        <pt x="204" y="119" on="0"/>
      </contour>
      <contour>
        <pt x="265" y="614" on="0"/>
        <pt x="225" y="614" on="0"/>
        <pt x="225" y="560" on="0"/>
        <pt x="265" y="560" on="0"/>
      </contour>
      <contour>
        <pt x="143" y="584" on="1"/>
        <pt x="143" y="668" on="0"/>
        <pt x="348" y="668" on="0"/>
        <pt x="348" y="589" on="1"/>
        <pt x="348" y="505" on="0"/>
        <pt x="245" y="505" on="1"/>
        <pt x="195" y="505" on="0"/>
        <pt x="143" y="547" on="0"/>
      </contour>
    </TTGlyph>
    <TTGlyph name="asciicircum" xMin="83" yMin="511" xMax="417" yMax="642">
      <contour>
        <pt x="339" y="642" on="1"/>
        <pt x="417" y="511" on="1"/>
        <pt x="286" y="511" on="1"/>
        <pt x="251" y="563" on="1"/>
        <pt x="215" y="511" on="1"/>
        <pt x="83" y="511" on="1"/>
        <pt x="161" y="642" on="1"/>
      </contour>
    </TTGlyph>
    <TTGlyph name="asciitilde" xMin="82" yMin="503" xMax="433" yMax="657">
      <contour>
        <pt x="433" y="657" on="1"/>
        <pt x="433" y="645" on="1"/>
        <pt x="433" y="579" on="0"/>
        <pt x="390" y="509" on="0"/>
        <pt x="326" y="509" on="1"/>
        <pt x="289" y="509" on="0"/>
        <pt x="215" y="535" on="1"/>
        <pt x="215" y="503" on="1"/>
        <pt x="82" y="503" on="1"/>
        <pt x="82" y="516" on="1"/>
        <pt x="82" y="583" on="0"/>
        <pt x="127" y="652" on="0"/>
        <pt x="184" y="652" on="1"/>
        <pt x="214" y="652" on="0"/>
        <pt x="300" y="626" on="1"/>
        <pt x="300" y="657" on="1"/>
      </contour>
    </TTGlyph>
    <TTGlyph name="asterisk" xMin="24" yMin="279" xMax="443" yMax="657">
      <contour>
        <pt x="443" y="464" on="1"/>
        <pt x="351" y="434" on="1"/>
        <pt x="418" y="343" on="1"/>
        <pt x="307" y="279" on="1"/>
        <pt x="237" y="354" on="1"/>
        <pt x="170" y="280" on="1"/>
        <pt x="59" y="344" on="1"/>
        <pt x="115" y="433" on="1"/>
        <pt x="24" y="464" on="1"/>
        <pt x="56" y="582" on="1"/>
        <pt x="156" y="560" on="1"/>
        <pt x="166" y="657" on="1"/>
        <pt x="305" y="657" on="1"/>
        <pt x="313" y="560" on="1"/>
        <pt x="406" y="581" on="1"/>
      </contour>
    </TTGlyph>
    <TTGlyph name="at" xMin="24" yMin="-180" xMax="933" yMax="668">
      <contour>
        <pt x="458" y="-180" on="1"/>
        <pt x="24" y="-180" on="0"/>
        <pt x="24" y="232" on="1"/>
        <pt x="24" y="437" on="0"/>
        <pt x="276" y="668" on="0"/>
        <pt x="711" y="668" on="0"/>
        <pt x="933" y="461" on="0"/>
        <pt x="933" y="279" on="1"/>
        <pt x="933" y="-10" on="0"/>
        <pt x="667" y="-10" on="1"/>
        <pt x="615" y="-10" on="0"/>
        <pt x="556" y="7" on="0"/>
        <pt x="531" y="29" on="1"/>
        <pt x="524" y="29" on="1"/>
        <pt x="476" y="-10" on="0"/>
        <pt x="331" y="-10" on="0"/>
        <pt x="256" y="67" on="0"/>
        <pt x="256" y="135" on="1"/>
        <pt x="256" y="219" on="0"/>
        <pt x="369" y="285" on="0"/>
        <pt x="492" y="294" on="1"/>
        <pt x="492" y="312" on="1"/>
        <pt x="492" y="330" on="0"/>
        <pt x="473" y="330" on="1"/>
        <pt x="422" y="330" on="0"/>
        <pt x="298" y="299" on="1"/>
        <pt x="276" y="453" on="1"/>
        <pt x="436" y="491" on="0"/>
        <pt x="616" y="491" on="0"/>
        <pt x="695" y="423" on="0"/>
        <pt x="695" y="350" on="1"/>
        <pt x="689" y="150" on="1"/>
        <pt x="689" y="128" on="0"/>
        <pt x="713" y="128" on="1"/>
        <pt x="771" y="128" on="0"/>
        <pt x="771" y="278" on="1"/>
        <pt x="771" y="399" on="0"/>
        <pt x="643" y="528" on="0"/>
        <pt x="332" y="528" on="0"/>
        <pt x="186" y="382" on="0"/>
        <pt x="186" y="84" on="0"/>
        <pt x="330" y="-44" on="0"/>
        <pt x="478" y="-44" on="1"/>
        <pt x="568" y="-44" on="0"/>
        <pt x="688" y="-29" on="1"/>
        <pt x="688" y="-158" on="1"/>
        <pt x="578" y="-180" on="0"/>
      </contour>
      <contour>
        <pt x="469" y="119" on="1"/>
        <pt x="498" y="119" on="0"/>
        <pt x="498" y="149" on="1"/>
        <pt x="498" y="187" on="1"/>
        <pt x="446" y="180" on="0"/>
        <pt x="446" y="147" on="1"/>
        <pt x="446" y="119" on="0"/>
      </contour>
    </TTGlyph>
    <TTGlyph name="atilde" xMin="14" yMin="-10" xMax="495" yMax="657">
      <contour>
        <pt x="453" y="350" on="1"/>
        <pt x="447" y="150" on="1"/>
        <pt x="447" y="136" on="0"/>
        <pt x="468" y="127" on="0"/>
        <pt x="495" y="127" on="1"/>
        <pt x="476" y="-6" on="1"/>
        <pt x="416" y="-10" on="0"/>
        <pt x="395" y="-10" on="1"/>
        <pt x="322" y="-10" on="0"/>
        <pt x="289" y="29" on="1"/>
        <pt x="282" y="29" on="1"/>
        <pt x="234" y="-10" on="0"/>
        <pt x="89" y="-10" on="0"/>
        <pt x="14" y="67" on="0"/>
        <pt x="14" y="135" on="1"/>
        <pt x="14" y="219" on="0"/>
        <pt x="127" y="285" on="0"/>
        <pt x="250" y="294" on="1"/>
        <pt x="250" y="312" on="1"/>
        <pt x="250" y="330" on="0"/>
        <pt x="231" y="330" on="1"/>
        <pt x="180" y="330" on="0"/>
        <pt x="56" y="299" on="1"/>
        <pt x="25" y="457" on="1"/>
        <pt x="168" y="491" on="0"/>
        <pt x="374" y="491" on="0"/>
        <pt x="453" y="423" on="0"/>
      </contour>
      <contour>
        <pt x="227" y="119" on="1"/>
        <pt x="256" y="119" on="0"/>
        <pt x="256" y="149" on="1"/>
        <pt x="256" y="187" on="1"/>
        <pt x="204" y="180" on="0"/>
        <pt x="204" y="147" on="1"/>
        <pt x="204" y="119" on="0"/>
      </contour>
      <contour>
        <pt x="417" y="657" on="1"/>
        <pt x="417" y="645" on="1"/>
        <pt x="417" y="579" on="0"/>
        <pt x="374" y="509" on="0"/>
        <pt x="310" y="509" on="1"/>
        <pt x="273" y="509" on="0"/>
        <pt x="199" y="535" on="1"/>
        <pt x="199" y="503" on="1"/>
        <pt x="66" y="503" on="1"/>
        <pt x="66" y="516" on="1"/>
        <pt x="66" y="583" on="0"/>
        <pt x="111" y="652" on="0"/>
        <pt x="168" y="652" on="1"/>
        <pt x="198" y="652" on="0"/>
        <pt x="284" y="626" on="1"/>
        <pt x="284" y="657" on="1"/>
      </contour>
    </TTGlyph>
    <TTGlyph name="b" xMin="30" yMin="-10" xMax="507" yMax="641">
      <contour>
        <pt x="507" y="251" on="1"/>
        <pt x="507" y="185" on="0"/>
        <pt x="492" y="96" on="0"/>
        <pt x="472" y="60" on="1"/>
        <pt x="433" y="-10" on="0"/>
        <pt x="317" y="-10" on="1"/>
        <pt x="245" y="-10" on="0"/>
        <pt x="202" y="21" on="1"/>
        <pt x="194" y="0" on="1"/>
        <pt x="30" y="0" on="1"/>
        <pt x="30" y="641" on="1"/>
        <pt x="231" y="641" on="1"/>
        <pt x="231" y="471" on="1"/>
        <pt x="273" y="491" on="0"/>
        <pt x="323" y="491" on="1"/>
        <pt x="434" y="491" on="0"/>
        <pt x="507" y="380" on="0"/>
      </contour>
      <contour>
        <pt x="289" y="132" on="0"/>
        <pt x="299" y="177" on="0"/>
        <pt x="299" y="290" on="0"/>
        <pt x="287" y="337" on="0"/>
        <pt x="267" y="337" on="1"/>
        <pt x="254" y="337" on="0"/>
        <pt x="236" y="329" on="1"/>
        <pt x="236" y="136" on="1"/>
        <pt x="254" y="132" on="0"/>
        <pt x="268" y="132" on="1"/>
      </contour>
    </TTGlyph>
    <TTGlyph name="backslash" xMin="-15" yMin="-142" xMax="432" yMax="616">
      <contour>
        <pt x="228" y="-142" on="1"/>
        <pt x="-15" y="616" on="1"/>
        <pt x="190" y="616" on="1"/>
        <pt x="432" y="-142" on="1"/>
      </contour>
    </TTGlyph>
    <TTGlyph name="bar" xMin="90" yMin="-142" xMax="287" yMax="616">
      <contour>
        <pt x="287" y="-142" on="1"/>
        <pt x="90" y="-142" on="1"/>
        <pt x="90" y="616" on="1"/>
        <pt x="287" y="616" on="1"/>
      </contour>
    </TTGlyph>
    <TTGlyph name="braceleft" xMin="12" yMin="-137" xMax="350" yMax="631">
      <contour>
        <pt x="350" y="-137" on="1"/>
        <pt x="217" y="-137" on="1"/>
        <pt x="139" y="-137" on="0"/>
        <pt x="72" y="-76" on="0"/>
        <pt x="72" y="-4" on="1"/>
        <pt x="72" y="154" on="1"/>
        <pt x="72" y="175" on="0"/>
        <pt x="51" y="183" on="0"/>
        <pt x="12" y="183" on="1"/>
        <pt x="12" y="322" on="1"/>
        <pt x="52" y="322" on="0"/>
        <pt x="72" y="330" on="0"/>
        <pt x="72" y="350" on="1"/>
        <pt x="72" y="490" on="1"/>
        <pt x="72" y="568" on="0"/>
        <pt x="137" y="631" on="0"/>
        <pt x="217" y="631" on="1"/>
        <pt x="350" y="631" on="1"/>
        <pt x="350" y="487" on="1"/>
        <pt x="274" y="487" on="1"/>
        <pt x="274" y="329" on="1"/>
        <pt x="274" y="295" on="0"/>
        <pt x="256" y="267" on="0"/>
        <pt x="232" y="254" on="1"/>
        <pt x="232" y="248" on="1"/>
        <pt x="254" y="237" on="0"/>
        <pt x="274" y="205" on="0"/>
        <pt x="274" y="174" on="1"/>
        <pt x="274" y="2" on="1"/>
        <pt x="350" y="2" on="1"/>
      </contour>
    </TTGlyph>
    <TTGlyph name="braceright" xMin="44" yMin="-137" xMax="382" yMax="631">
      <contour>
        <pt x="177" y="-137" on="1"/>
        <pt x="44" y="-137" on="1"/>
        <pt x="44" y="2" on="1"/>
        <pt x="120" y="2" on="1"/>
        <pt x="120" y="174" on="1"/>
        <pt x="120" y="205" on="0"/>
        <pt x="140" y="237" on="0"/>
        <pt x="162" y="248" on="1"/>
        <pt x="162" y="254" on="1"/>
        <pt x="138" y="267" on="0"/>
        <pt x="120" y="295" on="0"/>
        <pt x="120" y="329" on="1"/>
        <pt x="120" y="487" on="1"/>
        <pt x="44" y="487" on="1"/>
        <pt x="44" y="631" on="1"/>
        <pt x="177" y="631" on="1"/>
        <pt x="257" y="631" on="0"/>
        <pt x="322" y="568" on="0"/>
        <pt x="322" y="490" on="1"/>
        <pt x="322" y="350" on="1"/>
        <pt x="322" y="330" on="0"/>
        <pt x="341" y="322" on="0"/>
        <pt x="382" y="322" on="1"/>
        <pt x="382" y="183" on="1"/>
        <pt x="343" y="183" on="0"/>
        <pt x="322" y="175" on="0"/>
        <pt x="322" y="154" on="1"/>
        <pt x="322" y="-4" on="1"/>
        <pt x="322" y="-76" on="0"/>
        <pt x="255" y="-137" on="0"/>
      </contour>
    </TTGlyph>
    <TTGlyph name="bracketleft" xMin="52" yMin="-137" xMax="335" yMax="631">
      <contour>
        <pt x="335" y="-137" on="1"/>
        <pt x="52" y="-137" on="1"/>
        <pt x="52" y="631" on="1"/>
        <pt x="335" y="631" on="1"/>
        <pt x="335" y="490" on="1"/>
        <pt x="263" y="490" on="1"/>
        <pt x="263" y="3" on="1"/>
        <pt x="335" y="3" on="1"/>
      </contour>
    </TTGlyph>
    <TTGlyph name="bracketright" xMin="44" yMin="-137" xMax="328" yMax="631">
      <contour>
        <pt x="328" y="-137" on="1"/>
        <pt x="44" y="-137" on="1"/>
        <pt x="44" y="3" on="1"/>
        <pt x="118" y="3" on="1"/>
        <pt x="118" y="490" on="1"/>
        <pt x="44" y="490" on="1"/>
        <pt x="44" y="631" on="1"/>
        <pt x="328" y="631" on="1"/>
      </contour>
    </TTGlyph>
    <TTGlyph name="breve" xMin="90" yMin="498" xMax="410" yMax="660">
      <contour>
        <pt x="252" y="614" on="1"/>
        <pt x="275" y="614" on="0"/>
        <pt x="275" y="660" on="1"/>
        <pt x="410" y="660" on="1"/>
        <pt x="406" y="498" on="0"/>
        <pt x="90" y="498" on="0"/>
        <pt x="90" y="660" on="1"/>
        <pt x="227" y="660" on="1"/>
        <pt x="227" y="614" on="0"/>
      </contour>
    </TTGlyph>
    <TTGlyph name="brokenbar" xMin="90" yMin="-142" xMax="287" yMax="616">
      <contour>
        <pt x="287" y="-142" on="1"/>
        <pt x="90" y="-142" on="1"/>
        <pt x="90" y="177" on="1"/>
        <pt x="287" y="177" on="1"/>
      </contour>
      <contour>
        <pt x="287" y="616" on="1"/>
        <pt x="287" y="325" on="1"/>
        <pt x="90" y="325" on="1"/>
        <pt x="90" y="616" on="1"/>
      </contour>
    </TTGlyph>
    <TTGlyph name="bullet" xMin="82" yMin="179" xMax="331" yMax="430">
      <contour>
        <pt x="146" y="179" on="0"/>
        <pt x="82" y="239" on="0"/>
        <pt x="82" y="368" on="0"/>
        <pt x="143" y="430" on="0"/>
        <pt x="272" y="430" on="0"/>
        <pt x="331" y="369" on="0"/>
        <pt x="331" y="306" on="1"/>
        <pt x="331" y="179" on="0"/>
        <pt x="209" y="179" on="1"/>
      </contour>
    </TTGlyph>
    <TTGlyph name="c" xMin="15" yMin="-10" xMax="395" yMax="491">
      <contour>
        <pt x="241" y="334" on="0"/>
        <pt x="224" y="286" on="0"/>
        <pt x="224" y="186" on="0"/>
        <pt x="240" y="141" on="0"/>
        <pt x="300" y="141" on="0"/>
        <pt x="365" y="154" on="1"/>
        <pt x="387" y="15" on="1"/>
        <pt x="299" y="-10" on="0"/>
        <pt x="239" y="-10" on="1"/>
        <pt x="128" y="-10" on="0"/>
        <pt x="15" y="118" on="0"/>
        <pt x="15" y="348" on="0"/>
        <pt x="131" y="491" on="0"/>
        <pt x="242" y="491" on="1"/>
        <pt x="323" y="491" on="0"/>
        <pt x="395" y="464" on="1"/>
        <pt x="374" y="306" on="1"/>
        <pt x="296" y="334" on="0"/>
      </contour>
    </TTGlyph>
    <TTGlyph name="caron" xMin="83" yMin="515" xMax="417" yMax="646">
      <contour>
        <pt x="161" y="515" on="1"/>
        <pt x="83" y="646" on="1"/>
        <pt x="214" y="646" on="1"/>
        <pt x="249" y="594" on="1"/>
        <pt x="285" y="646" on="1"/>
        <pt x="417" y="646" on="1"/>
        <pt x="339" y="515" on="1"/>
      </contour>
    </TTGlyph>
    <TTGlyph name="ccedilla" xMin="12" yMin="-168" xMax="392" yMax="491">
      <contour>
        <pt x="239" y="491" on="1"/>
        <pt x="320" y="491" on="0"/>
        <pt x="392" y="464" on="1"/>
        <pt x="371" y="306" on="1"/>
        <pt x="293" y="334" on="0"/>
        <pt x="238" y="334" on="0"/>
        <pt x="221" y="286" on="0"/>
        <pt x="221" y="186" on="0"/>
        <pt x="237" y="141" on="0"/>
        <pt x="297" y="141" on="0"/>
        <pt x="362" y="154" on="1"/>
        <pt x="384" y="15" on="1"/>
        <pt x="308" y="-8" on="0"/>
        <pt x="253" y="-10" on="1"/>
        <pt x="248" y="-17" on="0"/>
        <pt x="248" y="-24" on="0"/>
        <pt x="283" y="-38" on="0"/>
        <pt x="318" y="-69" on="0"/>
        <pt x="318" y="-94" on="1"/>
        <pt x="318" y="-168" on="0"/>
        <pt x="209" y="-168" on="1"/>
        <pt x="144" y="-168" on="0"/>
        <pt x="100" y="-138" on="1"/>
        <pt x="137" y="-67" on="1"/>
        <pt x="183" y="-98" on="0"/>
        <pt x="207" y="-98" on="1"/>
        <pt x="214" y="-98" on="0"/>
        <pt x="214" y="-92" on="1"/>
        <pt x="214" y="-88" on="0"/>
        <pt x="201" y="-81" on="1"/>
        <pt x="175" y="-69" on="1"/>
        <pt x="152" y="-56" on="0"/>
        <pt x="152" y="-18" on="0"/>
        <pt x="170" y="-3" on="1"/>
        <pt x="92" y="15" on="0"/>
        <pt x="12" y="137" on="0"/>
        <pt x="12" y="231" on="1"/>
        <pt x="12" y="348" on="0"/>
        <pt x="128" y="491" on="0"/>
      </contour>
    </TTGlyph>
    <TTGlyph name="cedilla" xMin="160" yMin="-168" xMax="378" yMax="0">
      <contour>
        <pt x="378" y="-94" on="1"/>
        <pt x="378" y="-168" on="0"/>
        <pt x="269" y="-168" on="1"/>
        <pt x="204" y="-168" on="0"/>
        <pt x="160" y="-138" on="1"/>
        <pt x="197" y="-67" on="1"/>
        <pt x="243" y="-98" on="0"/>
        <pt x="267" y="-98" on="1"/>
        <pt x="274" y="-98" on="0"/>
        <pt x="274" y="-92" on="1"/>
        <pt x="274" y="-88" on="0"/>
        <pt x="261" y="-81" on="1"/>
        <pt x="235" y="-69" on="1"/>
        <pt x="212" y="-56" on="0"/>
        <pt x="212" y="-17" on="0"/>
        <pt x="234" y="0" on="1"/>
        <pt x="323" y="0" on="1"/>
        <pt x="308" y="-15" on="0"/>
        <pt x="308" y="-21" on="1"/>
        <pt x="308" y="-24" on="0"/>
        <pt x="343" y="-38" on="0"/>
        <pt x="378" y="-69" on="0"/>
      </contour>
    </TTGlyph>
    <TTGlyph name="cent" xMin="20" yMin="-82" xMax="400" yMax="572">
      <contour>
        <pt x="246" y="334" on="0"/>
        <pt x="229" y="286" on="0"/>
        <pt x="229" y="186" on="0"/>
        <pt x="245" y="141" on="0"/>
        <pt x="305" y="141" on="0"/>
        <pt x="370" y="154" on="1"/>
        <pt x="392" y="15" on="1"/>
        <pt x="351" y="3" on="0"/>
        <pt x="307" y="-5" on="1"/>
        <pt x="307" y="-82" on="1"/>
        <pt x="140" y="-82" on="1"/>
        <pt x="140" y="9" on="1"/>
        <pt x="20" y="61" on="0"/>
        <pt x="20" y="231" on="1"/>
        <pt x="20" y="314" on="0"/>
        <pt x="81" y="439" on="0"/>
        <pt x="140" y="468" on="1"/>
        <pt x="140" y="572" on="1"/>
        <pt x="307" y="572" on="1"/>
        <pt x="307" y="487" on="1"/>
        <pt x="350" y="482" on="0"/>
        <pt x="400" y="464" on="1"/>
        <pt x="379" y="306" on="1"/>
        <pt x="301" y="334" on="0"/>
      </contour>
    </TTGlyph>
    <TTGlyph name="circumflex" xMin="83" yMin="511" xMax="417" yMax="642">
      <contour>
        <pt x="339" y="642" on="1"/>
        <pt x="417" y="511" on="1"/>
        <pt x="286" y="511" on="1"/>
        <pt x="251" y="563" on="1"/>
        <pt x="215" y="511" on="1"/>
        <pt x="83" y="511" on="1"/>
        <pt x="161" y="642" on="1"/>
      </contour>
    </TTGlyph>
    <TTGlyph name="colon" xMin="48" yMin="-10" xMax="243" yMax="442">
      <contour>
        <pt x="92" y="-10" on="0"/>
        <pt x="48" y="29" on="0"/>
        <pt x="48" y="111" on="0"/>
        <pt x="91" y="150" on="0"/>
        <pt x="201" y="150" on="0"/>
        <pt x="243" y="111" on="0"/>
        <pt x="243" y="29" on="0"/>
        <pt x="200" y="-10" on="0"/>
      </contour>
      <contour>
        <pt x="92" y="282" on="0"/>
        <pt x="48" y="321" on="0"/>
        <pt x="48" y="403" on="0"/>
        <pt x="91" y="442" on="0"/>
        <pt x="201" y="442" on="0"/>
        <pt x="243" y="403" on="0"/>
        <pt x="243" y="321" on="0"/>
        <pt x="200" y="282" on="0"/>
      </contour>
    </TTGlyph>
    <TTGlyph name="comma" xMin="48" yMin="-112" xMax="258" yMax="151">
      <contour>
        <pt x="55" y="112" on="0"/>
        <pt x="105" y="151" on="0"/>
        <pt x="212" y="151" on="0"/>
        <pt x="258" y="106" on="0"/>
        <pt x="258" y="0" on="0"/>
        <pt x="193" y="-77" on="0"/>
        <pt x="135" y="-112" on="1"/>
        <pt x="48" y="-99" on="1"/>
        <pt x="117" y="-6" on="1"/>
        <pt x="84" y="1" on="0"/>
        <pt x="55" y="33" on="0"/>
      </contour>
    </TTGlyph>
    <TTGlyph name="commaaccent" xMin="170" yMin="-164" xMax="334" yMax="-10">
      <contour>
        <pt x="252" y="-10" on="1"/>
        <pt x="290" y="-10" on="0"/>
        <pt x="334" y="-44" on="0"/>
        <pt x="334" y="-74" on="1"/>
        <pt x="334" y="-130" on="0"/>
        <pt x="253" y="-164" on="1"/>
        <pt x="178" y="-155" on="1"/>
        <pt x="220" y="-113" on="1"/>
        <pt x="170" y="-104" on="0"/>
        <pt x="170" y="-65" on="1"/>
        <pt x="170" y="-10" on="0"/>
      </contour>
    </TTGlyph>
    <TTGlyph name="copyright" xMin="48" yMin="-181" xMax="951" yMax="652">
      <contour>
        <pt x="474" y="166" on="0"/>
        <pt x="500" y="116" on="0"/>
        <pt x="568" y="116" on="0"/>
        <pt x="630" y="131" on="1"/>
        <pt x="649" y="14" on="1"/>
        <pt x="572" y="-10" on="0"/>
        <pt x="503" y="-10" on="1"/>
        <pt x="307" y="-10" on="0"/>
        <pt x="307" y="223" on="1"/>
        <pt x="307" y="340" on="0"/>
        <pt x="405" y="464" on="0"/>
        <pt x="515" y="464" on="1"/>
        <pt x="583" y="464" on="0"/>
        <pt x="649" y="438" on="1"/>
        <pt x="629" y="307" on="1"/>
        <pt x="561" y="326" on="0"/>
        <pt x="499" y="326" on="0"/>
        <pt x="474" y="277" on="0"/>
      </contour>
      <contour>
        <pt x="766" y="382" on="0"/>
        <pt x="650" y="502" on="0"/>
        <pt x="362" y="502" on="0"/>
        <pt x="239" y="377" on="0"/>
        <pt x="239" y="87" on="0"/>
        <pt x="356" y="-38" on="0"/>
        <pt x="648" y="-38" on="0"/>
        <pt x="766" y="85" on="0"/>
      </contour>
      <contour>
        <pt x="48" y="440" on="0"/>
        <pt x="273" y="652" on="0"/>
        <pt x="725" y="652" on="0"/>
        <pt x="951" y="435" on="0"/>
        <pt x="951" y="26" on="0"/>
        <pt x="728" y="-181" on="0"/>
        <pt x="264" y="-181" on="0"/>
        <pt x="48" y="26" on="0"/>
      </contour>
    </TTGlyph>
    <TTGlyph name="currency" xMin="48" yMin="72" xMax="731" yMax="542">
      <contour>
        <pt x="84" y="76" on="1"/>
        <pt x="54" y="126" on="1"/>
        <pt x="178" y="198" on="1"/>
        <pt x="161" y="252" on="0"/>
        <pt x="161" y="350" on="0"/>
        <pt x="173" y="395" on="1"/>
        <pt x="48" y="468" on="1"/>
        <pt x="79" y="521" on="1"/>
        <pt x="199" y="452" on="1"/>
        <pt x="268" y="542" on="0"/>
        <pt x="519" y="542" on="0"/>
        <pt x="587" y="454" on="1"/>
        <pt x="701" y="521" on="1"/>
        <pt x="731" y="468" on="1"/>
        <pt x="614" y="400" on="1"/>
        <pt x="627" y="355" on="0"/>
        <pt x="627" y="255" on="0"/>
        <pt x="607" y="197" on="1"/>
        <pt x="727" y="126" on="1"/>
        <pt x="695" y="75" on="1"/>
        <pt x="575" y="146" on="1"/>
        <pt x="506" y="72" on="0"/>
        <pt x="274" y="72" on="0"/>
        <pt x="206" y="148" on="1"/>
        <pt x="163" y="124" on="0"/>
      </contour>
      <contour>
        <pt x="391" y="122" on="1"/>
        <pt x="565" y="122" on="0"/>
        <pt x="565" y="306" on="1"/>
        <pt x="565" y="394" on="0"/>
        <pt x="478" y="490" on="0"/>
        <pt x="391" y="490" on="1"/>
        <pt x="219" y="490" on="0"/>
        <pt x="219" y="305" on="1"/>
        <pt x="219" y="214" on="0"/>
        <pt x="309" y="122" on="0"/>
      </contour>
    </TTGlyph>
    <TTGlyph name="d" xMin="15" yMin="-10" xMax="531" yMax="641">
      <contour>
        <pt x="427" y="-10" on="1"/>
        <pt x="349" y="-10" on="0"/>
        <pt x="320" y="29" on="1"/>
        <pt x="316" y="29" on="1"/>
        <pt x="270" y="-10" on="0"/>
        <pt x="207" y="-10" on="1"/>
        <pt x="103" y="-10" on="0"/>
        <pt x="15" y="122" on="0"/>
        <pt x="15" y="364" on="0"/>
        <pt x="112" y="491" on="0"/>
        <pt x="203" y="491" on="1"/>
        <pt x="255" y="491" on="0"/>
        <pt x="287" y="475" on="1"/>
        <pt x="287" y="641" on="1"/>
        <pt x="488" y="641" on="1"/>
        <pt x="488" y="150" on="1"/>
        <pt x="488" y="137" on="0"/>
        <pt x="507" y="127" on="0"/>
        <pt x="531" y="127" on="1"/>
        <pt x="513" y="-6" on="1"/>
        <pt x="461" y="-10" on="0"/>
      </contour>
      <contour>
        <pt x="235" y="339" on="0"/>
        <pt x="224" y="293" on="0"/>
        <pt x="224" y="179" on="0"/>
        <pt x="234" y="134" on="0"/>
        <pt x="275" y="134" on="0"/>
        <pt x="287" y="138" on="1"/>
        <pt x="287" y="332" on="1"/>
        <pt x="270" y="339" on="0"/>
        <pt x="255" y="339" on="1"/>
      </contour>
    </TTGlyph>
    <TTGlyph name="dagger" xMin="22" yMin="-137" xMax="427" yMax="607">
      <contour>
        <pt x="22" y="323" on="1"/>
        <pt x="22" y="479" on="1"/>
        <pt x="131" y="479" on="1"/>
        <pt x="131" y="607" on="1"/>
        <pt x="313" y="607" on="1"/>
        <pt x="313" y="479" on="1"/>
        <pt x="427" y="479" on="1"/>
        <pt x="427" y="323" on="1"/>
        <pt x="313" y="323" on="1"/>
        <pt x="313" y="-137" on="1"/>
        <pt x="131" y="-137" on="1"/>
        <pt x="131" y="323" on="1"/>
      </contour>
    </TTGlyph>
    <TTGlyph name="daggerdbl" xMin="22" yMin="-137" xMax="427" yMax="607">
      <contour>
        <pt x="22" y="0" on="1"/>
        <pt x="22" y="156" on="1"/>
        <pt x="131" y="156" on="1"/>
        <pt x="131" y="323" on="1"/>
        <pt x="22" y="323" on="1"/>
        <pt x="22" y="479" on="1"/>
        <pt x="131" y="479" on="1"/>
        <pt x="131" y="607" on="1"/>
        <pt x="313" y="607" on="1"/>
        <pt x="313" y="479" on="1"/>
        <pt x="427" y="479" on="1"/>
        <pt x="427" y="323" on="1"/>
        <pt x="313" y="323" on="1"/>
        <pt x="313" y="156" on="1"/>
        <pt x="427" y="156" on="1"/>
        <pt x="427" y="0" on="1"/>
        <pt x="313" y="0" on="1"/>
        <pt x="313" y="-137" on="1"/>
        <pt x="131" y="-137" on="1"/>
        <pt x="131" y="0" on="1"/>
      </contour>
    </TTGlyph>
    <TTGlyph name="degree" xMin="31" yMin="370" xMax="308" yMax="626">
      <contour>
        <pt x="243" y="626" on="0"/>
        <pt x="308" y="564" on="0"/>
        <pt x="308" y="431" on="0"/>
        <pt x="243" y="370" on="0"/>
        <pt x="96" y="370" on="0"/>
        <pt x="31" y="431" on="0"/>
        <pt x="31" y="562" on="0"/>
        <pt x="97" y="626" on="0"/>
      </contour>
      <contour>
        <pt x="188" y="497" on="1"/>
        <pt x="188" y="513" on="0"/>
        <pt x="179" y="525" on="0"/>
        <pt x="168" y="525" on="1"/>
        <pt x="148" y="525" on="0"/>
        <pt x="148" y="468" on="0"/>
        <pt x="188" y="468" on="0"/>
      </contour>
    </TTGlyph>
    <TTGlyph name="dieresis" xMin="82" yMin="510" xMax="423" yMax="641">
      <contour>
        <pt x="82" y="576" on="1"/>
        <pt x="82" y="608" on="0"/>
        <pt x="122" y="641" on="0"/>
        <pt x="157" y="641" on="1"/>
        <pt x="237" y="641" on="0"/>
        <pt x="237" y="576" on="1"/>
        <pt x="237" y="542" on="0"/>
        <pt x="198" y="510" on="0"/>
        <pt x="157" y="510" on="1"/>
        <pt x="82" y="510" on="0"/>
      </contour>
      <contour>
        <pt x="268" y="576" on="1"/>
        <pt x="268" y="608" on="0"/>
        <pt x="308" y="641" on="0"/>
        <pt x="343" y="641" on="1"/>
        <pt x="423" y="641" on="0"/>
        <pt x="423" y="576" on="1"/>
        <pt x="423" y="542" on="0"/>
        <pt x="384" y="510" on="0"/>
        <pt x="343" y="510" on="1"/>
        <pt x="268" y="510" on="0"/>
      </contour>
    </TTGlyph>
    <TTGlyph name="divide" xMin="32" yMin="11" xMax="444" yMax="569">
      <contour>
        <pt x="188" y="11" on="0"/>
        <pt x="144" y="50" on="0"/>
        <pt x="144" y="132" on="0"/>
        <pt x="187" y="171" on="0"/>
        <pt x="297" y="171" on="0"/>
        <pt x="339" y="132" on="0"/>
        <pt x="339" y="50" on="0"/>
        <pt x="296" y="11" on="0"/>
      </contour>
      <contour>
        <pt x="188" y="409" on="0"/>
        <pt x="144" y="448" on="0"/>
        <pt x="144" y="530" on="0"/>
        <pt x="187" y="569" on="0"/>
        <pt x="297" y="569" on="0"/>
        <pt x="339" y="530" on="0"/>
        <pt x="339" y="448" on="0"/>
        <pt x="296" y="409" on="0"/>
      </contour>
      <contour>
        <pt x="444" y="209" on="1"/>
        <pt x="32" y="209" on="1"/>
        <pt x="32" y="371" on="1"/>
        <pt x="444" y="371" on="1"/>
      </contour>
    </TTGlyph>
    <TTGlyph name="dollar" xMin="32" yMin="-82" xMax="495" yMax="710">
      <contour>
        <pt x="32" y="421" on="1"/>
        <pt x="32" y="578" on="0"/>
        <pt x="181" y="619" on="1"/>
        <pt x="181" y="710" on="1"/>
        <pt x="348" y="710" on="1"/>
        <pt x="348" y="627" on="1"/>
        <pt x="438" y="618" on="0"/>
        <pt x="478" y="611" on="1"/>
        <pt x="455" y="435" on="1"/>
        <pt x="330" y="460" on="0"/>
        <pt x="252" y="460" on="0"/>
        <pt x="252" y="436" on="1"/>
        <pt x="252" y="427" on="0"/>
        <pt x="264" y="420" on="0"/>
        <pt x="270" y="416" on="0"/>
        <pt x="287" y="410" on="0"/>
        <pt x="298" y="405" on="0"/>
        <pt x="359" y="380" on="0"/>
        <pt x="390" y="365" on="0"/>
        <pt x="417" y="348" on="1"/>
        <pt x="495" y="297" on="0"/>
        <pt x="495" y="194" on="1"/>
        <pt x="495" y="124" on="0"/>
        <pt x="417" y="19" on="0"/>
        <pt x="348" y="2" on="1"/>
        <pt x="348" y="-82" on="1"/>
        <pt x="181" y="-82" on="1"/>
        <pt x="181" y="-5" on="1"/>
        <pt x="113" y="1" on="0"/>
        <pt x="50" y="17" on="1"/>
        <pt x="64" y="186" on="1"/>
        <pt x="198" y="152" on="0"/>
        <pt x="245" y="152" on="1"/>
        <pt x="276" y="152" on="0"/>
        <pt x="276" y="174" on="1"/>
        <pt x="276" y="184" on="0"/>
        <pt x="261" y="196" on="0"/>
        <pt x="232" y="210" on="0"/>
        <pt x="176" y="233" on="0"/>
        <pt x="138" y="250" on="0"/>
        <pt x="112" y="268" on="1"/>
        <pt x="32" y="323" on="0"/>
      </contour>
    </TTGlyph>
    <TTGlyph name="dotaccent" xMin="154" yMin="488" xMax="368" yMax="655">
      <contour>
        <pt x="154" y="570" on="1"/>
        <pt x="154" y="655" on="0"/>
        <pt x="368" y="655" on="0"/>
        <pt x="368" y="570" on="1"/>
        <pt x="368" y="526" on="0"/>
        <pt x="315" y="488" on="0"/>
        <pt x="207" y="488" on="0"/>
        <pt x="154" y="525" on="0"/>
      </contour>
    </TTGlyph>
    <TTGlyph name="dotaccentcmb" xMin="142" yMin="488" xMax="356" yMax="655">
      <contour>
        <pt x="142" y="570" on="1"/>
        <pt x="142" y="655" on="0"/>
        <pt x="356" y="655" on="0"/>
        <pt x="356" y="570" on="1"/>
        <pt x="356" y="526" on="0"/>
        <pt x="303" y="488" on="0"/>
        <pt x="195" y="488" on="0"/>
        <pt x="142" y="525" on="0"/>
      </contour>
    </TTGlyph>
    <TTGlyph name="dotlessi" xMin="36" yMin="0" xMax="244" yMax="469">
      <contour>
        <pt x="244" y="0" on="1"/>
        <pt x="36" y="0" on="1"/>
        <pt x="36" y="469" on="1"/>
        <pt x="244" y="469" on="1"/>
      </contour>
    </TTGlyph>
    <TTGlyph name="e" xMin="15" yMin="-10" xMax="484" yMax="491">
      <contour>
        <pt x="258" y="330" on="1"/>
        <pt x="237" y="330" on="0"/>
        <pt x="221" y="304" on="0"/>
        <pt x="221" y="277" on="1"/>
        <pt x="293" y="277" on="1"/>
        <pt x="293" y="293" on="1"/>
        <pt x="293" y="330" on="0"/>
      </contour>
      <contour>
        <pt x="15" y="360" on="0"/>
        <pt x="140" y="491" on="0"/>
        <pt x="383" y="491" on="0"/>
        <pt x="484" y="391" on="0"/>
        <pt x="484" y="298" on="1"/>
        <pt x="484" y="261" on="0"/>
        <pt x="476" y="186" on="1"/>
        <pt x="225" y="186" on="1"/>
        <pt x="229" y="132" on="0"/>
        <pt x="291" y="132" on="1"/>
        <pt x="320" y="132" on="0"/>
        <pt x="443" y="153" on="1"/>
        <pt x="460" y="18" on="1"/>
        <pt x="354" y="-10" on="0"/>
        <pt x="262" y="-10" on="1"/>
        <pt x="142" y="-10" on="0"/>
        <pt x="15" y="122" on="0"/>
      </contour>
    </TTGlyph>
    <TTGlyph name="eacute" xMin="12" yMin="-10" xMax="481" yMax="647">
      <contour>
        <pt x="255" y="330" on="1"/>
        <pt x="234" y="330" on="0"/>
        <pt x="218" y="304" on="0"/>
        <pt x="218" y="277" on="1"/>
        <pt x="290" y="277" on="1"/>
        <pt x="290" y="293" on="1"/>
        <pt x="290" y="330" on="0"/>
      </contour>
      <contour>
        <pt x="12" y="360" on="0"/>
        <pt x="137" y="491" on="0"/>
        <pt x="380" y="491" on="0"/>
        <pt x="481" y="391" on="0"/>
        <pt x="481" y="298" on="1"/>
        <pt x="481" y="261" on="0"/>
        <pt x="473" y="186" on="1"/>
        <pt x="222" y="186" on="1"/>
        <pt x="226" y="132" on="0"/>
        <pt x="288" y="132" on="1"/>
        <pt x="317" y="132" on="0"/>
        <pt x="440" y="153" on="1"/>
        <pt x="457" y="18" on="1"/>
        <pt x="351" y="-10" on="0"/>
        <pt x="259" y="-10" on="1"/>
        <pt x="139" y="-10" on="0"/>
        <pt x="12" y="122" on="0"/>
      </contour>
      <contour>
        <pt x="455" y="647" on="1"/>
        <pt x="316" y="517" on="1"/>
        <pt x="177" y="517" on="1"/>
        <pt x="241" y="647" on="1"/>
      </contour>
    </TTGlyph>
    <TTGlyph name="ecircumflex" xMin="12" yMin="-10" xMax="481" yMax="642">
      <contour>
        <pt x="255" y="330" on="1"/>
        <pt x="234" y="330" on="0"/>
        <pt x="218" y="304" on="0"/>
        <pt x="218" y="277" on="1"/>
        <pt x="290" y="277" on="1"/>
        <pt x="290" y="293" on="1"/>
        <pt x="290" y="330" on="0"/>
      </contour>
      <contour>
        <pt x="12" y="360" on="0"/>
        <pt x="137" y="491" on="0"/>
        <pt x="380" y="491" on="0"/>
        <pt x="481" y="391" on="0"/>
        <pt x="481" y="298" on="1"/>
        <pt x="481" y="261" on="0"/>
        <pt x="473" y="186" on="1"/>
        <pt x="222" y="186" on="1"/>
        <pt x="226" y="132" on="0"/>
        <pt x="288" y="132" on="1"/>
        <pt x="317" y="132" on="0"/>
        <pt x="440" y="153" on="1"/>
        <pt x="457" y="18" on="1"/>
        <pt x="351" y="-10" on="0"/>
        <pt x="259" y="-10" on="1"/>
        <pt x="139" y="-10" on="0"/>
        <pt x="12" y="122" on="0"/>
      </contour>
      <contour>
        <pt x="345" y="642" on="1"/>
        <pt x="423" y="511" on="1"/>
        <pt x="292" y="511" on="1"/>
        <pt x="257" y="563" on="1"/>
        <pt x="221" y="511" on="1"/>
        <pt x="89" y="511" on="1"/>
        <pt x="167" y="642" on="1"/>
      </contour>
    </TTGlyph>
    <TTGlyph name="edieresis" xMin="12" yMin="-10" xMax="481" yMax="641">
      <contour>
        <pt x="255" y="330" on="1"/>
        <pt x="234" y="330" on="0"/>
        <pt x="218" y="304" on="0"/>
        <pt x="218" y="277" on="1"/>
        <pt x="290" y="277" on="1"/>
        <pt x="290" y="293" on="1"/>
        <pt x="290" y="330" on="0"/>
      </contour>
      <contour>
        <pt x="12" y="360" on="0"/>
        <pt x="137" y="491" on="0"/>
        <pt x="380" y="491" on="0"/>
        <pt x="481" y="391" on="0"/>
        <pt x="481" y="298" on="1"/>
        <pt x="481" y="261" on="0"/>
        <pt x="473" y="186" on="1"/>
        <pt x="222" y="186" on="1"/>
        <pt x="226" y="132" on="0"/>
        <pt x="288" y="132" on="1"/>
        <pt x="317" y="132" on="0"/>
        <pt x="440" y="153" on="1"/>
        <pt x="457" y="18" on="1"/>
        <pt x="351" y="-10" on="0"/>
        <pt x="259" y="-10" on="1"/>
        <pt x="139" y="-10" on="0"/>
        <pt x="12" y="122" on="0"/>
      </contour>
      <contour>
        <pt x="86" y="576" on="1"/>
        <pt x="86" y="608" on="0"/>
        <pt x="126" y="641" on="0"/>
        <pt x="161" y="641" on="1"/>
        <pt x="241" y="641" on="0"/>
        <pt x="241" y="576" on="1"/>
        <pt x="241" y="542" on="0"/>
        <pt x="202" y="510" on="0"/>
        <pt x="161" y="510" on="1"/>
        <pt x="86" y="510" on="0"/>
      </contour>
      <contour>
        <pt x="272" y="576" on="1"/>
        <pt x="272" y="608" on="0"/>
        <pt x="312" y="641" on="0"/>
        <pt x="347" y="641" on="1"/>
        <pt x="427" y="641" on="0"/>
        <pt x="427" y="576" on="1"/>
        <pt x="427" y="542" on="0"/>
        <pt x="388" y="510" on="0"/>
        <pt x="347" y="510" on="1"/>
        <pt x="272" y="510" on="0"/>
      </contour>
    </TTGlyph>
    <TTGlyph name="egrave" xMin="12" yMin="-10" xMax="481" yMax="647">
      <contour>
        <pt x="255" y="330" on="1"/>
        <pt x="234" y="330" on="0"/>
        <pt x="218" y="304" on="0"/>
        <pt x="218" y="277" on="1"/>
        <pt x="290" y="277" on="1"/>
        <pt x="290" y="293" on="1"/>
        <pt x="290" y="330" on="0"/>
      </contour>
      <contour>
        <pt x="12" y="360" on="0"/>
        <pt x="137" y="491" on="0"/>
        <pt x="380" y="491" on="0"/>
        <pt x="481" y="391" on="0"/>
        <pt x="481" y="298" on="1"/>
        <pt x="481" y="261" on="0"/>
        <pt x="473" y="186" on="1"/>
        <pt x="222" y="186" on="1"/>
        <pt x="226" y="132" on="0"/>
        <pt x="288" y="132" on="1"/>
        <pt x="317" y="132" on="0"/>
        <pt x="440" y="153" on="1"/>
        <pt x="457" y="18" on="1"/>
        <pt x="351" y="-10" on="0"/>
        <pt x="259" y="-10" on="1"/>
        <pt x="139" y="-10" on="0"/>
        <pt x="12" y="122" on="0"/>
      </contour>
      <contour>
        <pt x="223" y="517" on="1"/>
        <pt x="96" y="647" on="1"/>
        <pt x="297" y="647" on="1"/>
        <pt x="365" y="517" on="1"/>
      </contour>
    </TTGlyph>
    <TTGlyph name="eight" xMin="14" yMin="-10" xMax="505" yMax="631">
      <contour>
        <pt x="20" y="539" on="0"/>
        <pt x="148" y="631" on="0"/>
        <pt x="371" y="631" on="0"/>
        <pt x="497" y="543" on="0"/>
        <pt x="497" y="464" on="1"/>
        <pt x="497" y="409" on="0"/>
        <pt x="463" y="344" on="0"/>
        <pt x="421" y="316" on="1"/>
        <pt x="421" y="312" on="1"/>
        <pt x="505" y="272" on="0"/>
        <pt x="505" y="88" on="0"/>
        <pt x="379" y="-10" on="0"/>
        <pt x="145" y="-10" on="0"/>
        <pt x="14" y="84" on="0"/>
        <pt x="14" y="173" on="1"/>
        <pt x="14" y="225" on="0"/>
        <pt x="55" y="287" on="0"/>
        <pt x="98" y="307" on="1"/>
        <pt x="98" y="311" on="1"/>
        <pt x="57" y="339" on="0"/>
        <pt x="20" y="407" on="0"/>
        <pt x="20" y="460" on="1"/>
      </contour>
      <contour>
        <pt x="261" y="131" on="1"/>
        <pt x="302" y="131" on="0"/>
        <pt x="302" y="172" on="1"/>
        <pt x="302" y="192" on="0"/>
        <pt x="278" y="219" on="0"/>
        <pt x="249" y="237" on="1"/>
        <pt x="216" y="211" on="0"/>
        <pt x="216" y="184" on="1"/>
        <pt x="216" y="131" on="0"/>
      </contour>
      <contour>
        <pt x="263" y="479" on="1"/>
        <pt x="222" y="479" on="0"/>
        <pt x="222" y="441" on="1"/>
        <pt x="222" y="421" on="0"/>
        <pt x="244" y="397" on="0"/>
        <pt x="270" y="380" on="1"/>
        <pt x="307" y="409" on="0"/>
        <pt x="307" y="434" on="1"/>
        <pt x="307" y="479" on="0"/>
      </contour>
    </TTGlyph>
    <TTGlyph name="ellipsis" xMin="48" yMin="-10" xMax="736" yMax="150">
      <contour>
        <pt x="92" y="-10" on="0"/>
        <pt x="48" y="29" on="0"/>
        <pt x="48" y="111" on="0"/>
        <pt x="91" y="150" on="0"/>
        <pt x="201" y="150" on="0"/>
        <pt x="243" y="111" on="0"/>
        <pt x="243" y="29" on="0"/>
        <pt x="200" y="-10" on="0"/>
      </contour>
      <contour>
        <pt x="340" y="-10" on="0"/>
        <pt x="296" y="29" on="0"/>
        <pt x="296" y="111" on="0"/>
        <pt x="339" y="150" on="0"/>
        <pt x="449" y="150" on="0"/>
        <pt x="491" y="111" on="0"/>
        <pt x="491" y="29" on="0"/>
        <pt x="448" y="-10" on="0"/>
      </contour>
      <contour>
        <pt x="585" y="-10" on="0"/>
        <pt x="541" y="29" on="0"/>
        <pt x="541" y="111" on="0"/>
        <pt x="584" y="150" on="0"/>
        <pt x="694" y="150" on="0"/>
        <pt x="736" y="111" on="0"/>
        <pt x="736" y="29" on="0"/>
        <pt x="693" y="-10" on="0"/>
      </contour>
    </TTGlyph>
    <TTGlyph name="emdash" xMin="32" yMin="167" xMax="568" yMax="329">
      <contour>
        <pt x="32" y="167" on="1"/>
        <pt x="32" y="329" on="1"/>
        <pt x="568" y="329" on="1"/>
        <pt x="568" y="167" on="1"/>
      </contour>
    </TTGlyph>
    <TTGlyph name="endash" xMin="32" yMin="167" xMax="375" yMax="329">
      <contour>
        <pt x="32" y="167" on="1"/>
        <pt x="32" y="329" on="1"/>
        <pt x="375" y="329" on="1"/>
        <pt x="375" y="167" on="1"/>
      </contour>
    </TTGlyph>
    <TTGlyph name="equal" xMin="36" yMin="93" xMax="418" yMax="427">
      <contour>
        <pt x="418" y="280" on="1"/>
        <pt x="36" y="280" on="1"/>
        <pt x="36" y="427" on="1"/>
        <pt x="418" y="427" on="1"/>
      </contour>
      <contour>
        <pt x="418" y="93" on="1"/>
        <pt x="36" y="93" on="1"/>
        <pt x="36" y="240" on="1"/>
        <pt x="418" y="240" on="1"/>
      </contour>
    </TTGlyph>
    <TTGlyph name="eth" xMin="15" yMin="-10" xMax="506" yMax="671">
      <contour>
        <pt x="215" y="400" on="1"/>
        <pt x="253" y="400" on="0"/>
        <pt x="276" y="396" on="1"/>
        <pt x="280" y="400" on="1"/>
        <pt x="267" y="430" on="0"/>
        <pt x="240" y="447" on="1"/>
        <pt x="124" y="394" on="1"/>
        <pt x="124" y="491" on="1"/>
        <pt x="139" y="500" on="1"/>
        <pt x="139" y="504" on="1"/>
        <pt x="117" y="508" on="0"/>
        <pt x="65" y="508" on="1"/>
        <pt x="65" y="655" on="1"/>
        <pt x="202" y="655" on="0"/>
        <pt x="302" y="621" on="1"/>
        <pt x="413" y="671" on="1"/>
        <pt x="413" y="554" on="1"/>
        <pt x="395" y="543" on="1"/>
        <pt x="506" y="446" on="0"/>
        <pt x="506" y="265" on="1"/>
        <pt x="506" y="134" on="0"/>
        <pt x="381" y="-10" on="0"/>
        <pt x="136" y="-10" on="0"/>
        <pt x="15" y="93" on="0"/>
        <pt x="15" y="208" on="1"/>
        <pt x="15" y="302" on="0"/>
        <pt x="118" y="400" on="0"/>
      </contour>
      <contour>
        <pt x="295" y="249" on="0"/>
        <pt x="283" y="283" on="0"/>
        <pt x="241" y="283" on="0"/>
        <pt x="227" y="239" on="0"/>
        <pt x="227" y="154" on="0"/>
        <pt x="240" y="120" on="0"/>
        <pt x="282" y="120" on="0"/>
        <pt x="295" y="163" on="0"/>
      </contour>
    </TTGlyph>
    <TTGlyph name="exclam" xMin="82" yMin="-10" xMax="282" yMax="621">
      <contour>
        <pt x="94" y="176" on="1"/>
        <pt x="82" y="621" on="1"/>
        <pt x="282" y="621" on="1"/>
        <pt x="267" y="176" on="1"/>
      </contour>
      <contour>
        <pt x="129" y="-10" on="0"/>
        <pt x="85" y="29" on="0"/>
        <pt x="85" y="111" on="0"/>
        <pt x="128" y="150" on="0"/>
        <pt x="238" y="150" on="0"/>
        <pt x="280" y="111" on="0"/>
        <pt x="280" y="29" on="0"/>
        <pt x="237" y="-10" on="0"/>
      </contour>
    </TTGlyph>
    <TTGlyph name="exclamdown" xMin="48" yMin="-137" xMax="248" yMax="494">
      <contour>
        <pt x="236" y="308" on="1"/>
        <pt x="248" y="-137" on="1"/>
        <pt x="48" y="-137" on="1"/>
        <pt x="63" y="308" on="1"/>
      </contour>
      <contour>
        <pt x="201" y="494" on="0"/>
        <pt x="245" y="455" on="0"/>
        <pt x="245" y="373" on="0"/>
        <pt x="202" y="334" on="0"/>
        <pt x="92" y="334" on="0"/>
        <pt x="50" y="373" on="0"/>
        <pt x="50" y="455" on="0"/>
        <pt x="93" y="494" on="0"/>
      </contour>
    </TTGlyph>
    <TTGlyph name="f" xMin="1" yMin="0" xMax="359" yMax="648">
      <contour>
        <pt x="210" y="648" on="1"/>
        <pt x="277" y="648" on="0"/>
        <pt x="359" y="643" on="1"/>
        <pt x="343" y="486" on="1"/>
        <pt x="275" y="492" on="0"/>
        <pt x="256" y="492" on="0"/>
        <pt x="256" y="482" on="1"/>
        <pt x="256" y="465" on="1"/>
        <pt x="341" y="465" on="1"/>
        <pt x="330" y="330" on="1"/>
        <pt x="258" y="330" on="1"/>
        <pt x="258" y="0" on="1"/>
        <pt x="49" y="0" on="1"/>
        <pt x="49" y="330" on="1"/>
        <pt x="1" y="330" on="1"/>
        <pt x="1" y="465" on="1"/>
        <pt x="49" y="465" on="1"/>
        <pt x="49" y="513" on="1"/>
        <pt x="49" y="648" on="0"/>
      </contour>
    </TTGlyph>
    <TTGlyph name="ff" xMin="1" yMin="0" xMax="655" yMax="648">
      <contour>
        <pt x="506" y="648" on="1"/>
        <pt x="573" y="648" on="0"/>
        <pt x="655" y="643" on="1"/>
        <pt x="639" y="486" on="1"/>
        <pt x="571" y="492" on="0"/>
        <pt x="552" y="492" on="0"/>
        <pt x="552" y="482" on="1"/>
        <pt x="552" y="465" on="1"/>
        <pt x="637" y="465" on="1"/>
        <pt x="626" y="330" on="1"/>
        <pt x="554" y="330" on="1"/>
        <pt x="554" y="0" on="1"/>
        <pt x="345" y="0" on="1"/>
        <pt x="345" y="330" on="1"/>
        <pt x="258" y="330" on="1"/>
        <pt x="258" y="0" on="1"/>
        <pt x="49" y="0" on="1"/>
        <pt x="49" y="330" on="1"/>
        <pt x="1" y="330" on="1"/>
        <pt x="1" y="465" on="1"/>
        <pt x="49" y="465" on="1"/>
        <pt x="49" y="513" on="1"/>
        <pt x="49" y="648" on="0"/>
        <pt x="210" y="648" on="1"/>
        <pt x="249" y="648" on="0"/>
        <pt x="339" y="644" on="1"/>
        <pt x="325" y="489" on="1"/>
        <pt x="286" y="492" on="0"/>
        <pt x="266" y="492" on="1"/>
        <pt x="256" y="492" on="0"/>
        <pt x="256" y="482" on="1"/>
        <pt x="256" y="465" on="1"/>
        <pt x="345" y="465" on="1"/>
        <pt x="345" y="513" on="1"/>
        <pt x="345" y="648" on="0"/>
      </contour>
    </TTGlyph>
    <TTGlyph name="ffi" xMin="1" yMin="0" xMax="851" yMax="655">
      <contour>
        <pt x="850" y="0" on="1"/>
        <pt x="642" y="0" on="1"/>
        <pt x="642" y="330" on="1"/>
        <pt x="555" y="330" on="1"/>
        <pt x="555" y="0" on="1"/>
        <pt x="346" y="0" on="1"/>
        <pt x="346" y="330" on="1"/>
        <pt x="258" y="330" on="1"/>
        <pt x="258" y="0" on="1"/>
        <pt x="49" y="0" on="1"/>
        <pt x="49" y="330" on="1"/>
        <pt x="1" y="330" on="1"/>
        <pt x="1" y="465" on="1"/>
        <pt x="49" y="465" on="1"/>
        <pt x="49" y="513" on="1"/>
        <pt x="49" y="648" on="0"/>
        <pt x="210" y="648" on="1"/>
        <pt x="249" y="648" on="0"/>
        <pt x="339" y="644" on="1"/>
        <pt x="325" y="489" on="1"/>
        <pt x="286" y="492" on="0"/>
        <pt x="266" y="492" on="1"/>
        <pt x="256" y="492" on="0"/>
        <pt x="256" y="482" on="1"/>
        <pt x="256" y="465" on="1"/>
        <pt x="346" y="465" on="1"/>
        <pt x="346" y="513" on="1"/>
        <pt x="346" y="648" on="0"/>
        <pt x="507" y="648" on="1"/>
        <pt x="570" y="648" on="0"/>
        <pt x="628" y="645" on="1"/>
        <pt x="616" y="489" on="1"/>
        <pt x="577" y="492" on="0"/>
        <pt x="553" y="492" on="0"/>
        <pt x="553" y="482" on="1"/>
        <pt x="553" y="465" on="1"/>
        <pt x="850" y="465" on="1"/>
      </contour>
      <contour>
        <pt x="637" y="570" on="1"/>
        <pt x="637" y="655" on="0"/>
        <pt x="851" y="655" on="0"/>
        <pt x="851" y="570" on="1"/>
        <pt x="851" y="526" on="0"/>
        <pt x="798" y="488" on="0"/>
        <pt x="690" y="488" on="0"/>
        <pt x="637" y="525" on="0"/>
      </contour>
    </TTGlyph>
    <TTGlyph name="ffl" xMin="1" yMin="-10" xMax="883" yMax="648">
      <contour>
        <pt x="506" y="648" on="1"/>
        <pt x="543" y="648" on="0"/>
        <pt x="627" y="641" on="1"/>
        <pt x="615" y="489" on="1"/>
        <pt x="581" y="492" on="0"/>
        <pt x="552" y="492" on="0"/>
        <pt x="552" y="482" on="1"/>
        <pt x="552" y="465" on="1"/>
        <pt x="641" y="465" on="1"/>
        <pt x="641" y="641" on="1"/>
        <pt x="846" y="641" on="1"/>
        <pt x="846" y="170" on="1"/>
        <pt x="846" y="143" on="0"/>
        <pt x="883" y="143" on="1"/>
        <pt x="868" y="-10" on="1"/>
        <pt x="786" y="-10" on="1"/>
        <pt x="641" y="-10" on="0"/>
        <pt x="641" y="124" on="1"/>
        <pt x="641" y="330" on="1"/>
        <pt x="554" y="330" on="1"/>
        <pt x="554" y="0" on="1"/>
        <pt x="345" y="0" on="1"/>
        <pt x="345" y="330" on="1"/>
        <pt x="258" y="330" on="1"/>
        <pt x="258" y="0" on="1"/>
        <pt x="49" y="0" on="1"/>
        <pt x="49" y="330" on="1"/>
        <pt x="1" y="330" on="1"/>
        <pt x="1" y="465" on="1"/>
        <pt x="49" y="465" on="1"/>
        <pt x="49" y="513" on="1"/>
        <pt x="49" y="648" on="0"/>
        <pt x="210" y="648" on="1"/>
        <pt x="249" y="648" on="0"/>
        <pt x="339" y="644" on="1"/>
        <pt x="325" y="489" on="1"/>
        <pt x="286" y="492" on="0"/>
        <pt x="266" y="492" on="1"/>
        <pt x="256" y="492" on="0"/>
        <pt x="256" y="482" on="1"/>
        <pt x="256" y="465" on="1"/>
        <pt x="345" y="465" on="1"/>
        <pt x="345" y="513" on="1"/>
        <pt x="345" y="648" on="0"/>
      </contour>
    </TTGlyph>
    <TTGlyph name="fi" xMin="1" yMin="0" xMax="555" yMax="655">
      <contour>
        <pt x="553" y="0" on="1"/>
        <pt x="345" y="0" on="1"/>
        <pt x="345" y="330" on="1"/>
        <pt x="258" y="330" on="1"/>
        <pt x="258" y="0" on="1"/>
        <pt x="49" y="0" on="1"/>
        <pt x="49" y="330" on="1"/>
        <pt x="1" y="330" on="1"/>
        <pt x="1" y="465" on="1"/>
        <pt x="49" y="465" on="1"/>
        <pt x="49" y="513" on="1"/>
        <pt x="49" y="648" on="0"/>
        <pt x="210" y="648" on="1"/>
        <pt x="272" y="648" on="0"/>
        <pt x="331" y="645" on="1"/>
        <pt x="319" y="489" on="1"/>
        <pt x="280" y="492" on="0"/>
        <pt x="256" y="492" on="0"/>
        <pt x="256" y="482" on="1"/>
        <pt x="256" y="465" on="1"/>
        <pt x="553" y="465" on="1"/>
      </contour>
      <contour>
        <pt x="341" y="570" on="1"/>
        <pt x="341" y="655" on="0"/>
        <pt x="555" y="655" on="0"/>
        <pt x="555" y="570" on="1"/>
        <pt x="555" y="526" on="0"/>
        <pt x="502" y="488" on="0"/>
        <pt x="394" y="488" on="0"/>
        <pt x="341" y="525" on="0"/>
      </contour>
    </TTGlyph>
    <TTGlyph name="five" xMin="30" yMin="-10" xMax="456" yMax="616">
      <contour>
        <pt x="456" y="212" on="1"/>
        <pt x="456" y="-10" on="0"/>
        <pt x="229" y="-10" on="1"/>
        <pt x="122" y="-10" on="0"/>
        <pt x="30" y="21" on="1"/>
        <pt x="46" y="192" on="1"/>
        <pt x="181" y="157" on="0"/>
        <pt x="236" y="157" on="0"/>
        <pt x="254" y="179" on="0"/>
        <pt x="254" y="202" on="1"/>
        <pt x="254" y="245" on="0"/>
        <pt x="225" y="245" on="1"/>
        <pt x="210" y="245" on="0"/>
        <pt x="202" y="229" on="1"/>
        <pt x="31" y="249" on="1"/>
        <pt x="31" y="616" on="1"/>
        <pt x="426" y="616" on="1"/>
        <pt x="426" y="457" on="1"/>
        <pt x="226" y="457" on="1"/>
        <pt x="226" y="392" on="1"/>
        <pt x="253" y="400" on="0"/>
        <pt x="287" y="400" on="1"/>
        <pt x="456" y="400" on="0"/>
      </contour>
    </TTGlyph>
    <TTGlyph name="fj" xMin="1" yMin="-142" xMax="553" yMax="655">
      <contour>
        <pt x="553" y="465" on="1"/>
        <pt x="553" y="-4" on="1"/>
        <pt x="553" y="-83" on="0"/>
        <pt x="472" y="-142" on="0"/>
        <pt x="361" y="-142" on="1"/>
        <pt x="295" y="-142" on="1"/>
        <pt x="278" y="7" on="1"/>
        <pt x="328" y="7" on="1"/>
        <pt x="340" y="7" on="0"/>
        <pt x="346" y="13" on="0"/>
        <pt x="346" y="22" on="1"/>
        <pt x="346" y="330" on="1"/>
        <pt x="258" y="330" on="1"/>
        <pt x="258" y="0" on="1"/>
        <pt x="49" y="0" on="1"/>
        <pt x="49" y="330" on="1"/>
        <pt x="1" y="330" on="1"/>
        <pt x="1" y="465" on="1"/>
        <pt x="49" y="465" on="1"/>
        <pt x="49" y="513" on="1"/>
        <pt x="49" y="648" on="0"/>
        <pt x="210" y="648" on="1"/>
        <pt x="274" y="648" on="0"/>
        <pt x="331" y="645" on="1"/>
        <pt x="319" y="489" on="1"/>
        <pt x="281" y="492" on="0"/>
        <pt x="256" y="492" on="0"/>
        <pt x="256" y="482" on="1"/>
        <pt x="256" y="465" on="1"/>
      </contour>
      <contour>
        <pt x="339" y="570" on="1"/>
        <pt x="339" y="655" on="0"/>
        <pt x="553" y="655" on="0"/>
        <pt x="553" y="570" on="1"/>
        <pt x="553" y="526" on="0"/>
        <pt x="500" y="488" on="0"/>
        <pt x="392" y="488" on="0"/>
        <pt x="339" y="525" on="0"/>
      </contour>
    </TTGlyph>
    <TTGlyph name="fl" xMin="1" yMin="-10" xMax="587" yMax="648">
      <contour>
        <pt x="345" y="124" on="1"/>
        <pt x="345" y="330" on="1"/>
        <pt x="258" y="330" on="1"/>
        <pt x="258" y="0" on="1"/>
        <pt x="49" y="0" on="1"/>
        <pt x="49" y="330" on="1"/>
        <pt x="1" y="330" on="1"/>
        <pt x="1" y="465" on="1"/>
        <pt x="49" y="465" on="1"/>
        <pt x="49" y="513" on="1"/>
        <pt x="49" y="648" on="0"/>
        <pt x="210" y="648" on="1"/>
        <pt x="247" y="648" on="0"/>
        <pt x="331" y="641" on="1"/>
        <pt x="319" y="489" on="1"/>
        <pt x="285" y="492" on="0"/>
        <pt x="256" y="492" on="0"/>
        <pt x="256" y="482" on="1"/>
        <pt x="256" y="465" on="1"/>
        <pt x="345" y="465" on="1"/>
        <pt x="345" y="641" on="1"/>
        <pt x="550" y="641" on="1"/>
        <pt x="550" y="170" on="1"/>
        <pt x="550" y="143" on="0"/>
        <pt x="587" y="143" on="1"/>
        <pt x="572" y="-10" on="1"/>
        <pt x="490" y="-10" on="1"/>
        <pt x="345" y="-10" on="0"/>
      </contour>
    </TTGlyph>
    <TTGlyph name="florin" xMin="-10" yMin="-147" xMax="404" yMax="641">
      <contour>
        <pt x="-1" y="18" on="1"/>
        <pt x="41" y="11" on="0"/>
        <pt x="63" y="11" on="0"/>
        <pt x="64" y="19" on="1"/>
        <pt x="91" y="314" on="1"/>
        <pt x="28" y="314" on="1"/>
        <pt x="40" y="425" on="1"/>
        <pt x="100" y="425" on="1"/>
        <pt x="106" y="482" on="1"/>
        <pt x="115" y="562" on="0"/>
        <pt x="196" y="641" on="0"/>
        <pt x="282" y="641" on="1"/>
        <pt x="329" y="641" on="0"/>
        <pt x="404" y="630" on="1"/>
        <pt x="382" y="461" on="1"/>
        <pt x="323" y="470" on="1"/>
        <pt x="316" y="470" on="0"/>
        <pt x="314" y="459" on="1"/>
        <pt x="311" y="425" on="1"/>
        <pt x="380" y="425" on="1"/>
        <pt x="368" y="314" on="1"/>
        <pt x="301" y="314" on="1"/>
        <pt x="273" y="9" on="1"/>
        <pt x="265" y="-71" on="0"/>
        <pt x="181" y="-147" on="0"/>
        <pt x="96" y="-147" on="1"/>
        <pt x="54" y="-147" on="0"/>
        <pt x="-10" y="-136" on="1"/>
      </contour>
    </TTGlyph>
    <TTGlyph name="foundryicon" xMin="40" yMin="23" xMax="1201" yMax="569">
      <contour>
        <pt x="186" y="157" on="1"/>
        <pt x="40" y="300" on="1"/>
        <pt x="186" y="441" on="1"/>
        <pt x="226" y="409" on="1"/>
        <pt x="138" y="325" on="1"/>
        <pt x="386" y="325" on="1"/>
        <pt x="380" y="355" on="0"/>
        <pt x="380" y="387" on="1"/>
        <pt x="380" y="469" on="0"/>
        <pt x="465" y="569" on="0"/>
        <pt x="535" y="569" on="1"/>
        <pt x="584" y="569" on="0"/>
        <pt x="643" y="536" on="0"/>
        <pt x="668" y="501" on="1"/>
        <pt x="714" y="569" on="0"/>
        <pt x="804" y="569" on="1"/>
        <pt x="875" y="569" on="0"/>
        <pt x="957" y="469" on="0"/>
        <pt x="957" y="387" on="1"/>
        <pt x="957" y="360" on="0"/>
        <pt x="950" y="325" on="1"/>
        <pt x="1151" y="325" on="1"/>
        <pt x="1151" y="441" on="1"/>
        <pt x="1201" y="441" on="1"/>
        <pt x="1201" y="157" on="1"/>
        <pt x="1151" y="157" on="1"/>
        <pt x="1151" y="273" on="1"/>
        <pt x="935" y="273" on="1"/>
        <pt x="895" y="171" on="0"/>
        <pt x="713" y="23" on="0"/>
        <pt x="618" y="23" on="0"/>
        <pt x="440" y="170" on="0"/>
        <pt x="401" y="273" on="1"/>
        <pt x="139" y="273" on="1"/>
        <pt x="226" y="188" on="1"/>
      </contour>
      <contour>
        <pt x="668" y="73" on="1"/>
        <pt x="695" y="77" on="0"/>
        <pt x="773" y="130" on="0"/>
        <pt x="850" y="210" on="0"/>
        <pt x="905" y="323" on="0"/>
        <pt x="905" y="444" on="0"/>
        <pt x="845" y="521" on="0"/>
        <pt x="790" y="521" on="1"/>
        <pt x="707" y="521" on="0"/>
        <pt x="676" y="437" on="1"/>
        <pt x="660" y="437" on="1"/>
        <pt x="629" y="521" on="0"/>
        <pt x="546" y="521" on="1"/>
        <pt x="492" y="521" on="0"/>
        <pt x="432" y="443" on="0"/>
        <pt x="432" y="376" on="1"/>
        <pt x="432" y="352" on="0"/>
        <pt x="437" y="325" on="1"/>
        <pt x="635" y="325" on="1"/>
        <pt x="635" y="273" on="1"/>
        <pt x="455" y="273" on="1"/>
        <pt x="488" y="196" on="0"/>
        <pt x="621" y="80" on="0"/>
      </contour>
    </TTGlyph>
    <TTGlyph name="four" xMin="8" yMin="0" xMax="548" yMax="616">
      <contour>
        <pt x="540" y="117" on="1"/>
        <pt x="473" y="117" on="1"/>
        <pt x="473" y="0" on="1"/>
        <pt x="266" y="0" on="1"/>
        <pt x="266" y="117" on="1"/>
        <pt x="24" y="117" on="1"/>
        <pt x="8" y="240" on="1"/>
        <pt x="226" y="616" on="1"/>
        <pt x="473" y="616" on="1"/>
        <pt x="473" y="263" on="1"/>
        <pt x="548" y="263" on="1"/>
      </contour>
      <contour>
        <pt x="271" y="259" on="1"/>
        <pt x="271" y="389" on="1"/>
        <pt x="267" y="389" on="1"/>
        <pt x="197" y="259" on="1"/>
      </contour>
    </TTGlyph>
    <TTGlyph name="fraction" xMin="-15" yMin="-142" xMax="432" yMax="616">
      <contour>
        <pt x="432" y="616" on="1"/>
        <pt x="189" y="-142" on="1"/>
        <pt x="-15" y="-142" on="1"/>
        <pt x="227" y="616" on="1"/>
      </contour>
    </TTGlyph>
    <TTGlyph name="g" xMin="14" yMin="-147" xMax="513" yMax="491">
      <contour>
        <pt x="241" y="491" on="1"/>
        <pt x="513" y="491" on="1"/>
        <pt x="513" y="369" on="1"/>
        <pt x="439" y="369" on="1"/>
        <pt x="439" y="365" on="1"/>
        <pt x="470" y="341" on="0"/>
        <pt x="470" y="294" on="1"/>
        <pt x="470" y="137" on="0"/>
        <pt x="268" y="137" on="1"/>
        <pt x="205" y="137" on="1"/>
        <pt x="197" y="137" on="0"/>
        <pt x="197" y="119" on="0"/>
        <pt x="205" y="119" on="1"/>
        <pt x="364" y="119" on="1"/>
        <pt x="492" y="119" on="0"/>
        <pt x="492" y="15" on="1"/>
        <pt x="492" y="-147" on="0"/>
        <pt x="239" y="-147" on="1"/>
        <pt x="137" y="-147" on="0"/>
        <pt x="25" y="-101" on="0"/>
        <pt x="25" y="-41" on="1"/>
        <pt x="25" y="-8" on="0"/>
        <pt x="60" y="8" on="1"/>
        <pt x="60" y="12" on="1"/>
        <pt x="14" y="36" on="0"/>
        <pt x="14" y="148" on="0"/>
        <pt x="90" y="179" on="1"/>
        <pt x="20" y="229" on="0"/>
        <pt x="20" y="406" on="0"/>
        <pt x="136" y="491" on="0"/>
      </contour>
      <contour>
        <pt x="250" y="338" on="1"/>
        <pt x="224" y="338" on="0"/>
        <pt x="224" y="238" on="0"/>
        <pt x="252" y="238" on="1"/>
        <pt x="278" y="238" on="0"/>
        <pt x="278" y="287" on="1"/>
        <pt x="278" y="314" on="0"/>
        <pt x="266" y="338" on="0"/>
      </contour>
      <contour>
        <pt x="197" y="-29" on="1"/>
        <pt x="311" y="-29" on="1"/>
        <pt x="320" y="-29" on="0"/>
        <pt x="320" y="-22" on="1"/>
        <pt x="320" y="-16" on="1"/>
        <pt x="320" y="-9" on="0"/>
        <pt x="311" y="-9" on="1"/>
        <pt x="197" y="-9" on="1"/>
        <pt x="190" y="-9" on="0"/>
        <pt x="190" y="-16" on="1"/>
        <pt x="190" y="-22" on="1"/>
        <pt x="190" y="-29" on="0"/>
      </contour>
    </TTGlyph>
    <TTGlyph name="germandbls" xMin="1" yMin="-6" xMax="561" yMax="649">
      <contour>
        <pt x="259" y="459" on="1"/>
        <pt x="259" y="0" on="1"/>
        <pt x="49" y="0" on="1"/>
        <pt x="49" y="330" on="1"/>
        <pt x="1" y="330" on="1"/>
        <pt x="1" y="465" on="1"/>
        <pt x="49" y="465" on="1"/>
        <pt x="49" y="473" on="1"/>
        <pt x="49" y="649" on="0"/>
        <pt x="291" y="649" on="1"/>
        <pt x="415" y="649" on="0"/>
        <pt x="538" y="553" on="0"/>
        <pt x="538" y="463" on="1"/>
        <pt x="538" y="416" on="0"/>
        <pt x="511" y="362" on="0"/>
        <pt x="477" y="339" on="1"/>
        <pt x="477" y="334" on="1"/>
        <pt x="561" y="296" on="0"/>
        <pt x="561" y="186" on="1"/>
        <pt x="561" y="-6" on="0"/>
        <pt x="365" y="-6" on="1"/>
        <pt x="326" y="-6" on="0"/>
        <pt x="277" y="0" on="1"/>
        <pt x="277" y="145" on="1"/>
        <pt x="292" y="144" on="0"/>
        <pt x="305" y="144" on="1"/>
        <pt x="351" y="144" on="0"/>
        <pt x="351" y="191" on="1"/>
        <pt x="351" y="221" on="0"/>
        <pt x="314" y="246" on="0"/>
        <pt x="277" y="246" on="1"/>
        <pt x="277" y="383" on="1"/>
        <pt x="330" y="383" on="0"/>
        <pt x="330" y="488" on="0"/>
        <pt x="288" y="488" on="1"/>
        <pt x="259" y="488" on="0"/>
      </contour>
    </TTGlyph>
    <TTGlyph name="grave" xMin="110" yMin="517" xMax="379" yMax="647">
      <contour>
        <pt x="237" y="517" on="1"/>
        <pt x="110" y="647" on="1"/>
        <pt x="311" y="647" on="1"/>
        <pt x="379" y="517" on="1"/>
      </contour>
    </TTGlyph>
    <TTGlyph name="greater" xMin="32" yMin="30" xMax="467" yMax="533">
      <contour>
        <pt x="467" y="207" on="1"/>
        <pt x="32" y="30" on="1"/>
        <pt x="32" y="189" on="1"/>
        <pt x="270" y="285" on="1"/>
        <pt x="32" y="373" on="1"/>
        <pt x="32" y="533" on="1"/>
        <pt x="467" y="361" on="1"/>
      </contour>
    </TTGlyph>
    <TTGlyph name="greaterequal" xMin="32" yMin="0" xMax="467" yMax="605">
      <contour>
        <pt x="467" y="299" on="1"/>
        <pt x="32" y="152" on="1"/>
        <pt x="32" y="311" on="1"/>
        <pt x="270" y="377" on="1"/>
        <pt x="32" y="445" on="1"/>
        <pt x="32" y="605" on="1"/>
        <pt x="467" y="453" on="1"/>
      </contour>
      <contour>
        <pt x="467" y="0" on="1"/>
        <pt x="32" y="0" on="1"/>
        <pt x="32" y="145" on="1"/>
        <pt x="467" y="145" on="1"/>
      </contour>
    </TTGlyph>
    <TTGlyph name="guillemotleft" xMin="4" yMin="-1" xMax="565" yMax="482">
      <contour>
        <pt x="4" y="205" on="1"/>
        <pt x="4" y="271" on="1"/>
        <pt x="208" y="482" on="1"/>
        <pt x="316" y="413" on="1"/>
        <pt x="200" y="242" on="1"/>
        <pt x="319" y="71" on="1"/>
        <pt x="202" y="-1" on="1"/>
      </contour>
      <contour>
        <pt x="250" y="205" on="1"/>
        <pt x="250" y="271" on="1"/>
        <pt x="454" y="482" on="1"/>
        <pt x="562" y="413" on="1"/>
        <pt x="446" y="242" on="1"/>
        <pt x="565" y="71" on="1"/>
        <pt x="448" y="-1" on="1"/>
      </contour>
    </TTGlyph>
    <TTGlyph name="guillemotright" xMin="20" yMin="-1" xMax="581" yMax="482">
      <contour>
        <pt x="581" y="276" on="1"/>
        <pt x="581" y="210" on="1"/>
        <pt x="377" y="-1" on="1"/>
        <pt x="269" y="68" on="1"/>
        <pt x="385" y="239" on="1"/>
        <pt x="266" y="410" on="1"/>
        <pt x="383" y="482" on="1"/>
      </contour>
      <contour>
        <pt x="335" y="276" on="1"/>
        <pt x="335" y="210" on="1"/>
        <pt x="131" y="-1" on="1"/>
        <pt x="23" y="68" on="1"/>
        <pt x="139" y="239" on="1"/>
        <pt x="20" y="410" on="1"/>
        <pt x="137" y="482" on="1"/>
      </contour>
    </TTGlyph>
    <TTGlyph name="guilsinglleft" xMin="4" yMin="-1" xMax="319" yMax="482">
      <contour>
        <pt x="4" y="205" on="1"/>
        <pt x="4" y="271" on="1"/>
        <pt x="208" y="482" on="1"/>
        <pt x="316" y="413" on="1"/>
        <pt x="200" y="242" on="1"/>
        <pt x="319" y="71" on="1"/>
        <pt x="202" y="-1" on="1"/>
      </contour>
    </TTGlyph>
    <TTGlyph name="guilsinglright" xMin="20" yMin="-1" xMax="335" yMax="482">
      <contour>
        <pt x="335" y="276" on="1"/>
        <pt x="335" y="210" on="1"/>
        <pt x="131" y="-1" on="1"/>
        <pt x="23" y="68" on="1"/>
        <pt x="139" y="239" on="1"/>
        <pt x="20" y="410" on="1"/>
        <pt x="137" y="482" on="1"/>
      </contour>
    </TTGlyph>
    <TTGlyph name="h" xMin="30" yMin="0" xMax="502" yMax="641">
      <contour>
        <pt x="366" y="491" on="1"/>
        <pt x="502" y="491" on="0"/>
        <pt x="502" y="365" on="1"/>
        <pt x="502" y="0" on="1"/>
        <pt x="291" y="0" on="1"/>
        <pt x="291" y="310" on="1"/>
        <pt x="291" y="326" on="0"/>
        <pt x="258" y="326" on="0"/>
        <pt x="238" y="316" on="1"/>
        <pt x="238" y="0" on="1"/>
        <pt x="30" y="0" on="1"/>
        <pt x="30" y="641" on="1"/>
        <pt x="231" y="641" on="1"/>
        <pt x="231" y="449" on="1"/>
        <pt x="292" y="491" on="0"/>
      </contour>
    </TTGlyph>
    <TTGlyph name="hbar" xMin="0" yMin="0" xMax="502" yMax="641">
      <contour>
        <pt x="366" y="491" on="1"/>
        <pt x="502" y="491" on="0"/>
        <pt x="502" y="365" on="1"/>
        <pt x="502" y="0" on="1"/>
        <pt x="291" y="0" on="1"/>
        <pt x="291" y="310" on="1"/>
        <pt x="291" y="326" on="0"/>
        <pt x="258" y="326" on="0"/>
        <pt x="238" y="316" on="1"/>
        <pt x="238" y="0" on="1"/>
        <pt x="30" y="0" on="1"/>
        <pt x="30" y="506" on="1"/>
        <pt x="0" y="506" on="1"/>
        <pt x="0" y="607" on="1"/>
        <pt x="30" y="607" on="1"/>
        <pt x="30" y="641" on="1"/>
        <pt x="231" y="641" on="1"/>
        <pt x="231" y="607" on="1"/>
        <pt x="305" y="607" on="1"/>
        <pt x="305" y="506" on="1"/>
        <pt x="231" y="506" on="1"/>
        <pt x="231" y="449" on="1"/>
        <pt x="292" y="491" on="0"/>
      </contour>
    </TTGlyph>
    <TTGlyph name="hungarumlaut" xMin="62" yMin="520" xMax="501" yMax="656">
      <contour>
        <pt x="303" y="656" on="1"/>
        <pt x="173" y="520" on="1"/>
        <pt x="62" y="520" on="1"/>
        <pt x="142" y="656" on="1"/>
      </contour>
      <contour>
        <pt x="501" y="656" on="1"/>
        <pt x="355" y="520" on="1"/>
        <pt x="243" y="520" on="1"/>
        <pt x="330" y="656" on="1"/>
      </contour>
    </TTGlyph>
    <TTGlyph name="hyphen" xMin="32" yMin="179" xMax="371" yMax="341">
      <contour>
        <pt x="371" y="179" on="1"/>
        <pt x="32" y="179" on="1"/>
        <pt x="32" y="341" on="1"/>
        <pt x="371" y="341" on="1"/>
      </contour>
    </TTGlyph>
    <TTGlyph name="i" xMin="33" yMin="0" xMax="247" yMax="655">
      <contour>
        <pt x="245" y="0" on="1"/>
        <pt x="37" y="0" on="1"/>
        <pt x="37" y="469" on="1"/>
        <pt x="245" y="469" on="1"/>
      </contour>
      <contour>
        <pt x="33" y="570" on="1"/>
        <pt x="33" y="655" on="0"/>
        <pt x="247" y="655" on="0"/>
        <pt x="247" y="570" on="1"/>
        <pt x="247" y="526" on="0"/>
        <pt x="194" y="488" on="0"/>
        <pt x="86" y="488" on="0"/>
        <pt x="33" y="525" on="0"/>
      </contour>
    </TTGlyph>
    <TTGlyph name="iacute" xMin="38" yMin="0" xMax="319" yMax="647">
      <contour>
        <pt x="246" y="0" on="1"/>
        <pt x="38" y="0" on="1"/>
        <pt x="38" y="469" on="1"/>
        <pt x="246" y="469" on="1"/>
      </contour>
      <contour>
        <pt x="319" y="647" on="1"/>
        <pt x="180" y="517" on="1"/>
        <pt x="41" y="517" on="1"/>
        <pt x="105" y="647" on="1"/>
      </contour>
    </TTGlyph>
    <TTGlyph name="icircumflex" xMin="-26" yMin="0" xMax="308" yMax="642">
      <contour>
        <pt x="246" y="0" on="1"/>
        <pt x="38" y="0" on="1"/>
        <pt x="38" y="469" on="1"/>
        <pt x="246" y="469" on="1"/>
      </contour>
      <contour>
        <pt x="230" y="642" on="1"/>
        <pt x="308" y="511" on="1"/>
        <pt x="177" y="511" on="1"/>
        <pt x="142" y="563" on="1"/>
        <pt x="106" y="511" on="1"/>
        <pt x="-26" y="511" on="1"/>
        <pt x="52" y="642" on="1"/>
      </contour>
    </TTGlyph>
    <TTGlyph name="idieresis" xMin="-28" yMin="0" xMax="313" yMax="641">
      <contour>
        <pt x="245" y="0" on="1"/>
        <pt x="37" y="0" on="1"/>
        <pt x="37" y="469" on="1"/>
        <pt x="245" y="469" on="1"/>
      </contour>
      <contour>
        <pt x="-28" y="576" on="1"/>
        <pt x="-28" y="608" on="0"/>
        <pt x="12" y="641" on="0"/>
        <pt x="47" y="641" on="1"/>
        <pt x="127" y="641" on="0"/>
        <pt x="127" y="576" on="1"/>
        <pt x="127" y="542" on="0"/>
        <pt x="88" y="510" on="0"/>
        <pt x="47" y="510" on="1"/>
        <pt x="-28" y="510" on="0"/>
      </contour>
      <contour>
        <pt x="158" y="576" on="1"/>
        <pt x="158" y="608" on="0"/>
        <pt x="198" y="641" on="0"/>
        <pt x="233" y="641" on="1"/>
        <pt x="313" y="641" on="0"/>
        <pt x="313" y="576" on="1"/>
        <pt x="313" y="542" on="0"/>
        <pt x="274" y="510" on="0"/>
        <pt x="233" y="510" on="1"/>
        <pt x="158" y="510" on="0"/>
      </contour>
    </TTGlyph>
    <TTGlyph name="igrave" xMin="-30" yMin="0" xMax="245" yMax="647">
      <contour>
        <pt x="245" y="0" on="1"/>
        <pt x="37" y="0" on="1"/>
        <pt x="37" y="469" on="1"/>
        <pt x="245" y="469" on="1"/>
      </contour>
      <contour>
        <pt x="97" y="517" on="1"/>
        <pt x="-30" y="647" on="1"/>
        <pt x="171" y="647" on="1"/>
        <pt x="239" y="517" on="1"/>
      </contour>
    </TTGlyph>
    <TTGlyph name="ij" xMin="33" yMin="-142" xMax="521" yMax="655">
      <contour>
        <pt x="519" y="469" on="1"/>
        <pt x="519" y="-4" on="1"/>
        <pt x="519" y="-83" on="0"/>
        <pt x="438" y="-142" on="0"/>
        <pt x="327" y="-142" on="1"/>
        <pt x="261" y="-142" on="1"/>
        <pt x="245" y="0" on="1"/>
        <pt x="37" y="0" on="1"/>
        <pt x="37" y="469" on="1"/>
        <pt x="245" y="469" on="1"/>
        <pt x="245" y="7" on="1"/>
        <pt x="294" y="7" on="1"/>
        <pt x="306" y="7" on="0"/>
        <pt x="312" y="13" on="0"/>
        <pt x="312" y="22" on="1"/>
        <pt x="312" y="469" on="1"/>
      </contour>
      <contour>
        <pt x="33" y="570" on="1"/>
        <pt x="33" y="655" on="0"/>
        <pt x="247" y="655" on="0"/>
        <pt x="247" y="570" on="1"/>
        <pt x="247" y="526" on="0"/>
        <pt x="194" y="488" on="0"/>
        <pt x="86" y="488" on="0"/>
        <pt x="33" y="525" on="0"/>
      </contour>
      <contour>
        <pt x="307" y="570" on="1"/>
        <pt x="307" y="655" on="0"/>
        <pt x="521" y="655" on="0"/>
        <pt x="521" y="570" on="1"/>
        <pt x="521" y="526" on="0"/>
        <pt x="468" y="488" on="0"/>
        <pt x="360" y="488" on="0"/>
        <pt x="307" y="525" on="0"/>
      </contour>
    </TTGlyph>
    <TTGlyph name="infinity" xMin="32" yMin="72" xMax="694" yMax="463">
      <contour>
        <pt x="130" y="463" on="0"/>
        <pt x="292" y="463" on="0"/>
        <pt x="355" y="388" on="1"/>
        <pt x="360" y="388" on="1"/>
        <pt x="391" y="424" on="0"/>
        <pt x="460" y="463" on="0"/>
        <pt x="512" y="463" on="1"/>
        <pt x="604" y="463" on="0"/>
        <pt x="694" y="360" on="0"/>
        <pt x="694" y="269" on="1"/>
        <pt x="694" y="72" on="0"/>
        <pt x="512" y="72" on="1"/>
        <pt x="426" y="72" on="0"/>
        <pt x="365" y="148" on="1"/>
        <pt x="356" y="148" on="1"/>
        <pt x="324" y="111" on="0"/>
        <pt x="260" y="72" on="0"/>
        <pt x="211" y="72" on="1"/>
        <pt x="121" y="72" on="0"/>
        <pt x="32" y="173" on="0"/>
        <pt x="32" y="357" on="0"/>
      </contour>
      <contour>
        <pt x="502" y="325" on="1"/>
        <pt x="469" y="325" on="0"/>
        <pt x="435" y="264" on="1"/>
        <pt x="469" y="209" on="0"/>
        <pt x="502" y="209" on="1"/>
        <pt x="532" y="209" on="0"/>
        <pt x="532" y="325" on="0"/>
      </contour>
      <contour>
        <pt x="222" y="325" on="1"/>
        <pt x="194" y="325" on="0"/>
        <pt x="194" y="209" on="0"/>
        <pt x="222" y="209" on="1"/>
        <pt x="256" y="209" on="0"/>
        <pt x="290" y="267" on="1"/>
        <pt x="255" y="325" on="0"/>
      </contour>
    </TTGlyph>
    <TTGlyph name="integral" xMin="-42" yMin="-142" xMax="483" yMax="832">
      <contour>
        <pt x="117" y="162" on="1"/>
        <pt x="136" y="591" on="1"/>
        <pt x="142" y="713" on="0"/>
        <pt x="256" y="832" on="0"/>
        <pt x="388" y="832" on="1"/>
        <pt x="483" y="832" on="1"/>
        <pt x="473" y="670" on="1"/>
        <pt x="394" y="670" on="0"/>
        <pt x="347" y="622" on="0"/>
        <pt x="344" y="552" on="1"/>
        <pt x="323" y="103" on="1"/>
        <pt x="316" y="-36" on="0"/>
        <pt x="199" y="-142" on="0"/>
        <pt x="49" y="-142" on="1"/>
        <pt x="-42" y="-142" on="1"/>
        <pt x="-26" y="32" on="1"/>
        <pt x="23" y="32" on="0"/>
        <pt x="78" y="43" on="0"/>
        <pt x="107" y="78" on="0"/>
        <pt x="115" y="120" on="0"/>
      </contour>
    </TTGlyph>
    <TTGlyph name="itilde" xMin="-35" yMin="0" xMax="316" yMax="657">
      <contour>
        <pt x="244" y="0" on="1"/>
        <pt x="36" y="0" on="1"/>
        <pt x="36" y="469" on="1"/>
        <pt x="244" y="469" on="1"/>
      </contour>
      <contour>
        <pt x="316" y="657" on="1"/>
        <pt x="316" y="645" on="1"/>
        <pt x="316" y="579" on="0"/>
        <pt x="273" y="509" on="0"/>
        <pt x="209" y="509" on="1"/>
        <pt x="172" y="509" on="0"/>
        <pt x="98" y="535" on="1"/>
        <pt x="98" y="503" on="1"/>
        <pt x="-35" y="503" on="1"/>
        <pt x="-35" y="516" on="1"/>
        <pt x="-35" y="583" on="0"/>
        <pt x="10" y="652" on="0"/>
        <pt x="67" y="652" on="1"/>
        <pt x="97" y="652" on="0"/>
        <pt x="183" y="626" on="1"/>
        <pt x="183" y="657" on="1"/>
      </contour>
    </TTGlyph>
    <TTGlyph name="j" xMin="-25" yMin="-142" xMax="251" yMax="655">
      <contour>
        <pt x="250" y="469" on="1"/>
        <pt x="250" y="-4" on="1"/>
        <pt x="250" y="-83" on="0"/>
        <pt x="169" y="-142" on="0"/>
        <pt x="58" y="-142" on="1"/>
        <pt x="-8" y="-142" on="1"/>
        <pt x="-25" y="7" on="1"/>
        <pt x="25" y="7" on="1"/>
        <pt x="37" y="7" on="0"/>
        <pt x="43" y="13" on="0"/>
        <pt x="43" y="22" on="1"/>
        <pt x="43" y="469" on="1"/>
      </contour>
      <contour>
        <pt x="37" y="570" on="1"/>
        <pt x="37" y="655" on="0"/>
        <pt x="251" y="655" on="0"/>
        <pt x="251" y="570" on="1"/>
        <pt x="251" y="526" on="0"/>
        <pt x="198" y="488" on="0"/>
        <pt x="90" y="488" on="0"/>
        <pt x="37" y="525" on="0"/>
      </contour>
    </TTGlyph>
    <TTGlyph name="jcircumflex" xMin="-25" yMin="-142" xMax="310" yMax="642">
      <contour>
        <pt x="250" y="469" on="1"/>
        <pt x="250" y="-4" on="1"/>
        <pt x="250" y="-83" on="0"/>
        <pt x="169" y="-142" on="0"/>
        <pt x="58" y="-142" on="1"/>
        <pt x="-8" y="-142" on="1"/>
        <pt x="-25" y="7" on="1"/>
        <pt x="25" y="7" on="1"/>
        <pt x="37" y="7" on="0"/>
        <pt x="43" y="13" on="0"/>
        <pt x="43" y="22" on="1"/>
        <pt x="43" y="469" on="1"/>
      </contour>
      <contour>
        <pt x="232" y="642" on="1"/>
        <pt x="310" y="511" on="1"/>
        <pt x="179" y="511" on="1"/>
        <pt x="144" y="563" on="1"/>
        <pt x="108" y="511" on="1"/>
        <pt x="-24" y="511" on="1"/>
        <pt x="54" y="642" on="1"/>
      </contour>
    </TTGlyph>
    <TTGlyph name="k" xMin="30" yMin="0" xMax="526" yMax="641">
      <contour>
        <pt x="522" y="0" on="1"/>
        <pt x="297" y="0" on="1"/>
        <pt x="239" y="157" on="1"/>
        <pt x="235" y="157" on="1"/>
        <pt x="235" y="0" on="1"/>
        <pt x="30" y="0" on="1"/>
        <pt x="30" y="641" on="1"/>
        <pt x="235" y="641" on="1"/>
        <pt x="235" y="311" on="1"/>
        <pt x="239" y="311" on="1"/>
        <pt x="309" y="479" on="1"/>
        <pt x="526" y="479" on="1"/>
        <pt x="414" y="230" on="1"/>
        <pt x="433" y="189" on="0"/>
        <pt x="506" y="34" on="0"/>
      </contour>
    </TTGlyph>
    <TTGlyph name="kcommaaccent" xMin="30" yMin="-164" xMax="526" yMax="641">
      <contour>
        <pt x="522" y="0" on="1"/>
        <pt x="297" y="0" on="1"/>
        <pt x="239" y="157" on="1"/>
        <pt x="235" y="157" on="1"/>
        <pt x="235" y="0" on="1"/>
        <pt x="30" y="0" on="1"/>
        <pt x="30" y="641" on="1"/>
        <pt x="235" y="641" on="1"/>
        <pt x="235" y="311" on="1"/>
        <pt x="239" y="311" on="1"/>
        <pt x="309" y="479" on="1"/>
        <pt x="526" y="479" on="1"/>
        <pt x="414" y="230" on="1"/>
        <pt x="433" y="189" on="0"/>
        <pt x="506" y="34" on="0"/>
      </contour>
      <contour>
        <pt x="261" y="-10" on="1"/>
        <pt x="299" y="-10" on="0"/>
        <pt x="343" y="-44" on="0"/>
        <pt x="343" y="-74" on="1"/>
        <pt x="343" y="-130" on="0"/>
        <pt x="262" y="-164" on="1"/>
        <pt x="187" y="-155" on="1"/>
        <pt x="229" y="-113" on="1"/>
        <pt x="179" y="-104" on="0"/>
        <pt x="179" y="-65" on="1"/>
        <pt x="179" y="-10" on="0"/>
      </contour>
    </TTGlyph>
    <TTGlyph name="kgreenlandic" xMin="30" yMin="0" xMax="523" yMax="491">
      <contour>
        <pt x="523" y="0" on="1"/>
        <pt x="306" y="0" on="1"/>
        <pt x="244" y="170" on="1"/>
        <pt x="240" y="170" on="1"/>
        <pt x="240" y="0" on="1"/>
        <pt x="30" y="0" on="1"/>
        <pt x="30" y="479" on="1"/>
        <pt x="240" y="479" on="1"/>
        <pt x="240" y="288" on="1"/>
        <pt x="244" y="288" on="1"/>
        <pt x="289" y="399" on="0"/>
        <pt x="318" y="433" on="0"/>
        <pt x="334" y="450" on="1"/>
        <pt x="376" y="491" on="0"/>
        <pt x="470" y="491" on="1"/>
        <pt x="500" y="491" on="1"/>
        <pt x="493" y="300" on="1"/>
        <pt x="469" y="300" on="0"/>
        <pt x="442" y="277" on="0"/>
        <pt x="424" y="244" on="1"/>
      </contour>
    </TTGlyph>
    <TTGlyph name="l" xMin="32" yMin="-10" xMax="274" yMax="641">
      <contour>
        <pt x="32" y="124" on="1"/>
        <pt x="32" y="641" on="1"/>
        <pt x="237" y="641" on="1"/>
        <pt x="237" y="170" on="1"/>
        <pt x="237" y="143" on="0"/>
        <pt x="274" y="143" on="1"/>
        <pt x="259" y="-10" on="1"/>
        <pt x="177" y="-10" on="1"/>
        <pt x="32" y="-10" on="0"/>
      </contour>
    </TTGlyph>
    <TTGlyph name="ldot" xMin="32" yMin="-10" xMax="503" yMax="641">
      <contour>
        <pt x="32" y="124" on="1"/>
        <pt x="32" y="641" on="1"/>
        <pt x="237" y="641" on="1"/>
        <pt x="237" y="170" on="1"/>
        <pt x="237" y="143" on="0"/>
        <pt x="274" y="143" on="1"/>
        <pt x="259" y="-10" on="1"/>
        <pt x="177" y="-10" on="1"/>
        <pt x="32" y="-10" on="0"/>
      </contour>
      <contour>
        <pt x="270" y="305" on="1"/>
        <pt x="270" y="396" on="0"/>
        <pt x="387" y="396" on="1"/>
        <pt x="447" y="396" on="0"/>
        <pt x="503" y="353" on="0"/>
        <pt x="503" y="255" on="0"/>
        <pt x="448" y="214" on="0"/>
        <pt x="327" y="214" on="0"/>
        <pt x="270" y="256" on="0"/>
      </contour>
    </TTGlyph>
    <TTGlyph name="less" xMin="32" yMin="30" xMax="467" yMax="533">
      <contour>
        <pt x="467" y="30" on="1"/>
        <pt x="32" y="207" on="1"/>
        <pt x="32" y="361" on="1"/>
        <pt x="467" y="533" on="1"/>
        <pt x="467" y="373" on="1"/>
        <pt x="229" y="285" on="1"/>
        <pt x="467" y="189" on="1"/>
      </contour>
    </TTGlyph>
    <TTGlyph name="lessequal" xMin="32" yMin="0" xMax="467" yMax="605">
      <contour>
        <pt x="467" y="152" on="1"/>
        <pt x="32" y="299" on="1"/>
        <pt x="32" y="453" on="1"/>
        <pt x="467" y="605" on="1"/>
        <pt x="467" y="445" on="1"/>
        <pt x="229" y="377" on="1"/>
        <pt x="467" y="311" on="1"/>
      </contour>
      <contour>
        <pt x="467" y="0" on="1"/>
        <pt x="32" y="0" on="1"/>
        <pt x="32" y="145" on="1"/>
        <pt x="467" y="145" on="1"/>
      </contour>
    </TTGlyph>
    <TTGlyph name="logicalnot" xMin="32" yMin="104" xMax="444" yMax="371">
      <contour>
        <pt x="265" y="104" on="1"/>
        <pt x="265" y="209" on="1"/>
        <pt x="32" y="209" on="1"/>
        <pt x="32" y="371" on="1"/>
        <pt x="444" y="371" on="1"/>
        <pt x="444" y="104" on="1"/>
      </contour>
    </TTGlyph>
    <TTGlyph name="lozenge" xMin="40" yMin="-55" xMax="537" yMax="647">
      <contour>
        <pt x="537" y="296" on="1"/>
        <pt x="349" y="-55" on="1"/>
        <pt x="225" y="-55" on="1"/>
        <pt x="40" y="296" on="1"/>
        <pt x="227" y="647" on="1"/>
        <pt x="349" y="647" on="1"/>
      </contour>
      <contour>
        <pt x="369" y="296" on="1"/>
        <pt x="288" y="461" on="1"/>
        <pt x="208" y="296" on="1"/>
        <pt x="288" y="130" on="1"/>
      </contour>
    </TTGlyph>
    <TTGlyph name="lslash" xMin="0" yMin="-10" xMax="274" yMax="641">
      <contour>
        <pt x="32" y="124" on="1"/>
        <pt x="32" y="170" on="1"/>
        <pt x="0" y="151" on="1"/>
        <pt x="0" y="308" on="1"/>
        <pt x="32" y="327" on="1"/>
        <pt x="32" y="641" on="1"/>
        <pt x="237" y="641" on="1"/>
        <pt x="237" y="451" on="1"/>
        <pt x="273" y="473" on="1"/>
        <pt x="273" y="317" on="1"/>
        <pt x="237" y="295" on="1"/>
        <pt x="237" y="170" on="1"/>
        <pt x="237" y="143" on="0"/>
        <pt x="274" y="143" on="1"/>
        <pt x="259" y="-10" on="1"/>
        <pt x="177" y="-10" on="1"/>
        <pt x="32" y="-10" on="0"/>
      </contour>
    </TTGlyph>
    <TTGlyph name="m" xMin="30" yMin="0" xMax="765" yMax="491">
      <contour>
        <pt x="627" y="491" on="1"/>
        <pt x="765" y="491" on="0"/>
        <pt x="765" y="355" on="1"/>
        <pt x="765" y="0" on="1"/>
        <pt x="554" y="0" on="1"/>
        <pt x="554" y="310" on="1"/>
        <pt x="554" y="326" on="0"/>
        <pt x="542" y="326" on="1"/>
        <pt x="526" y="326" on="0"/>
        <pt x="502" y="316" on="1"/>
        <pt x="502" y="0" on="1"/>
        <pt x="291" y="0" on="1"/>
        <pt x="291" y="310" on="1"/>
        <pt x="291" y="326" on="0"/>
        <pt x="278" y="326" on="1"/>
        <pt x="260" y="326" on="0"/>
        <pt x="238" y="316" on="1"/>
        <pt x="238" y="0" on="1"/>
        <pt x="30" y="0" on="1"/>
        <pt x="30" y="479" on="1"/>
        <pt x="219" y="479" on="1"/>
        <pt x="225" y="448" on="1"/>
        <pt x="292" y="491" on="0"/>
        <pt x="448" y="491" on="0"/>
        <pt x="482" y="443" on="1"/>
        <pt x="550" y="491" on="0"/>
      </contour>
    </TTGlyph>
    <TTGlyph name="macron" xMin="98" yMin="521" xMax="413" yMax="642">
      <contour>
        <pt x="413" y="521" on="1"/>
        <pt x="98" y="521" on="1"/>
        <pt x="98" y="642" on="1"/>
        <pt x="413" y="642" on="1"/>
      </contour>
    </TTGlyph>
    <TTGlyph name="minus" xMin="32" yMin="209" xMax="444" yMax="371">
      <contour>
        <pt x="444" y="209" on="1"/>
        <pt x="32" y="209" on="1"/>
        <pt x="32" y="371" on="1"/>
        <pt x="444" y="371" on="1"/>
      </contour>
    </TTGlyph>
    <TTGlyph name="mu" xMin="32" yMin="-137" xMax="547" yMax="479">
      <contour>
        <pt x="32" y="-137" on="1"/>
        <pt x="32" y="479" on="1"/>
        <pt x="242" y="479" on="1"/>
        <pt x="242" y="173" on="1"/>
        <pt x="242" y="149" on="0"/>
        <pt x="295" y="149" on="0"/>
        <pt x="295" y="173" on="1"/>
        <pt x="295" y="479" on="1"/>
        <pt x="504" y="479" on="1"/>
        <pt x="504" y="150" on="1"/>
        <pt x="504" y="137" on="0"/>
        <pt x="523" y="127" on="0"/>
        <pt x="547" y="127" on="1"/>
        <pt x="529" y="-6" on="1"/>
        <pt x="477" y="-10" on="0"/>
        <pt x="443" y="-10" on="1"/>
        <pt x="363" y="-10" on="0"/>
        <pt x="322" y="31" on="1"/>
        <pt x="318" y="31" on="1"/>
        <pt x="289" y="-10" on="0"/>
        <pt x="235" y="-10" on="1"/>
        <pt x="235" y="-137" on="1"/>
      </contour>
    </TTGlyph>
    <TTGlyph name="multiply" xMin="32" yMin="87" xMax="438" yMax="493">
      <contour>
        <pt x="32" y="202" on="1"/>
        <pt x="120" y="290" on="1"/>
        <pt x="32" y="378" on="1"/>
        <pt x="147" y="493" on="1"/>
        <pt x="235" y="405" on="1"/>
        <pt x="323" y="493" on="1"/>
        <pt x="438" y="378" on="1"/>
        <pt x="350" y="290" on="1"/>
        <pt x="438" y="202" on="1"/>
        <pt x="323" y="87" on="1"/>
        <pt x="235" y="175" on="1"/>
        <pt x="147" y="87" on="1"/>
      </contour>
    </TTGlyph>
    <TTGlyph name="n" xMin="30" yMin="0" xMax="502" yMax="491">
      <contour>
        <pt x="362" y="491" on="1"/>
        <pt x="502" y="491" on="0"/>
        <pt x="502" y="355" on="1"/>
        <pt x="502" y="0" on="1"/>
        <pt x="291" y="0" on="1"/>
        <pt x="291" y="310" on="1"/>
        <pt x="291" y="326" on="0"/>
        <pt x="258" y="326" on="0"/>
        <pt x="238" y="316" on="1"/>
        <pt x="238" y="0" on="1"/>
        <pt x="30" y="0" on="1"/>
        <pt x="30" y="479" on="1"/>
        <pt x="219" y="479" on="1"/>
        <pt x="225" y="448" on="1"/>
        <pt x="288" y="491" on="0"/>
      </contour>
    </TTGlyph>
    <TTGlyph name="nacute" xMin="30" yMin="0" xMax="502" yMax="647">
      <contour>
        <pt x="362" y="491" on="1"/>
        <pt x="502" y="491" on="0"/>
        <pt x="502" y="355" on="1"/>
        <pt x="502" y="0" on="1"/>
        <pt x="291" y="0" on="1"/>
        <pt x="291" y="310" on="1"/>
        <pt x="291" y="326" on="0"/>
        <pt x="258" y="326" on="0"/>
        <pt x="238" y="316" on="1"/>
        <pt x="238" y="0" on="1"/>
        <pt x="30" y="0" on="1"/>
        <pt x="30" y="479" on="1"/>
        <pt x="219" y="479" on="1"/>
        <pt x="225" y="448" on="1"/>
        <pt x="288" y="491" on="0"/>
      </contour>
      <contour>
        <pt x="455" y="647" on="1"/>
        <pt x="316" y="517" on="1"/>
        <pt x="177" y="517" on="1"/>
        <pt x="241" y="647" on="1"/>
      </contour>
    </TTGlyph>
    <TTGlyph name="nine" xMin="4" yMin="-10" xMax="493" yMax="631">
      <contour>
        <pt x="197" y="382" on="0"/>
        <pt x="218" y="353" on="0"/>
        <pt x="270" y="353" on="0"/>
        <pt x="289" y="359" on="1"/>
        <pt x="289" y="377" on="1"/>
        <pt x="289" y="425" on="0"/>
        <pt x="271" y="470" on="0"/>
        <pt x="239" y="470" on="1"/>
        <pt x="197" y="470" on="0"/>
        <pt x="197" y="414" on="1"/>
      </contour>
      <contour>
        <pt x="197" y="219" on="1"/>
        <pt x="103" y="219" on="0"/>
        <pt x="4" y="312" on="0"/>
        <pt x="4" y="516" on="0"/>
        <pt x="120" y="631" on="0"/>
        <pt x="372" y="631" on="0"/>
        <pt x="493" y="501" on="0"/>
        <pt x="493" y="363" on="1"/>
        <pt x="493" y="269" on="0"/>
        <pt x="448" y="134" on="0"/>
        <pt x="398" y="86" on="1"/>
        <pt x="298" y="-10" on="0"/>
        <pt x="51" y="-10" on="1"/>
        <pt x="59" y="141" on="1"/>
        <pt x="158" y="141" on="0"/>
        <pt x="253" y="180" on="0"/>
        <pt x="273" y="225" on="1"/>
        <pt x="237" y="219" on="0"/>
      </contour>
    </TTGlyph>
    <TTGlyph name="notequal" xMin="36" yMin="45" xMax="418" yMax="504">
      <contour>
        <pt x="418" y="93" on="1"/>
        <pt x="250" y="93" on="1"/>
        <pt x="234" y="45" on="1"/>
        <pt x="70" y="45" on="1"/>
        <pt x="86" y="93" on="1"/>
        <pt x="36" y="93" on="1"/>
        <pt x="36" y="240" on="1"/>
        <pt x="137" y="240" on="1"/>
        <pt x="150" y="280" on="1"/>
        <pt x="36" y="280" on="1"/>
        <pt x="36" y="427" on="1"/>
        <pt x="200" y="427" on="1"/>
        <pt x="227" y="504" on="1"/>
        <pt x="392" y="504" on="1"/>
        <pt x="365" y="427" on="1"/>
        <pt x="418" y="427" on="1"/>
        <pt x="418" y="280" on="1"/>
        <pt x="315" y="280" on="1"/>
        <pt x="301" y="240" on="1"/>
        <pt x="418" y="240" on="1"/>
      </contour>
    </TTGlyph>
    <TTGlyph name="ntilde" xMin="30" yMin="0" xMax="502" yMax="657">
      <contour>
        <pt x="362" y="491" on="1"/>
        <pt x="502" y="491" on="0"/>
        <pt x="502" y="355" on="1"/>
        <pt x="502" y="0" on="1"/>
        <pt x="291" y="0" on="1"/>
        <pt x="291" y="310" on="1"/>
        <pt x="291" y="326" on="0"/>
        <pt x="258" y="326" on="0"/>
        <pt x="238" y="316" on="1"/>
        <pt x="238" y="0" on="1"/>
        <pt x="30" y="0" on="1"/>
        <pt x="30" y="479" on="1"/>
        <pt x="219" y="479" on="1"/>
        <pt x="225" y="448" on="1"/>
        <pt x="288" y="491" on="0"/>
      </contour>
      <contour>
        <pt x="437" y="657" on="1"/>
        <pt x="437" y="645" on="1"/>
        <pt x="437" y="579" on="0"/>
        <pt x="394" y="509" on="0"/>
        <pt x="330" y="509" on="1"/>
        <pt x="293" y="509" on="0"/>
        <pt x="219" y="535" on="1"/>
        <pt x="219" y="503" on="1"/>
        <pt x="86" y="503" on="1"/>
        <pt x="86" y="516" on="1"/>
        <pt x="86" y="583" on="0"/>
        <pt x="131" y="652" on="0"/>
        <pt x="188" y="652" on="1"/>
        <pt x="218" y="652" on="0"/>
        <pt x="304" y="626" on="1"/>
        <pt x="304" y="657" on="1"/>
      </contour>
    </TTGlyph>
    <TTGlyph name="numbersign" xMin="20" yMin="0" xMax="534" yMax="592">
      <contour>
        <pt x="534" y="312" on="1"/>
        <pt x="452" y="312" on="1"/>
        <pt x="447" y="285" on="1"/>
        <pt x="511" y="285" on="1"/>
        <pt x="511" y="149" on="1"/>
        <pt x="427" y="149" on="1"/>
        <pt x="404" y="0" on="1"/>
        <pt x="245" y="0" on="1"/>
        <pt x="266" y="149" on="1"/>
        <pt x="241" y="149" on="1"/>
        <pt x="218" y="0" on="1"/>
        <pt x="51" y="0" on="1"/>
        <pt x="76" y="149" on="1"/>
        <pt x="20" y="149" on="1"/>
        <pt x="20" y="285" on="1"/>
        <pt x="98" y="285" on="1"/>
        <pt x="103" y="312" on="1"/>
        <pt x="44" y="312" on="1"/>
        <pt x="44" y="446" on="1"/>
        <pt x="122" y="446" on="1"/>
        <pt x="147" y="592" on="1"/>
        <pt x="309" y="592" on="1"/>
        <pt x="287" y="446" on="1"/>
        <pt x="310" y="446" on="1"/>
        <pt x="332" y="592" on="1"/>
        <pt x="494" y="592" on="1"/>
        <pt x="472" y="446" on="1"/>
        <pt x="534" y="446" on="1"/>
      </contour>
      <contour>
        <pt x="293" y="317" on="1"/>
        <pt x="265" y="317" on="1"/>
        <pt x="258" y="280" on="1"/>
        <pt x="286" y="280" on="1"/>
      </contour>
    </TTGlyph>
    <TTGlyph name="o" xMin="15" yMin="-10" xMax="495" yMax="491">
      <contour>
        <pt x="15" y="373" on="0"/>
        <pt x="132" y="491" on="0"/>
        <pt x="381" y="491" on="0"/>
        <pt x="495" y="375" on="0"/>
        <pt x="495" y="110" on="0"/>
        <pt x="384" y="-10" on="0"/>
        <pt x="131" y="-10" on="0"/>
        <pt x="15" y="110" on="0"/>
      </contour>
      <contour>
        <pt x="277" y="344" on="0"/>
        <pt x="235" y="344" on="0"/>
        <pt x="224" y="309" on="0"/>
        <pt x="224" y="252" on="1"/>
        <pt x="224" y="228" on="1"/>
        <pt x="224" y="164" on="0"/>
        <pt x="235" y="127" on="0"/>
        <pt x="277" y="127" on="0"/>
        <pt x="288" y="164" on="0"/>
        <pt x="288" y="223" on="1"/>
        <pt x="288" y="251" on="1"/>
        <pt x="288" y="309" on="0"/>
      </contour>
    </TTGlyph>
    <TTGlyph name="oacute" xMin="12" yMin="-10" xMax="492" yMax="647">
      <contour>
        <pt x="12" y="373" on="0"/>
        <pt x="129" y="491" on="0"/>
        <pt x="378" y="491" on="0"/>
        <pt x="492" y="375" on="0"/>
        <pt x="492" y="110" on="0"/>
        <pt x="381" y="-10" on="0"/>
        <pt x="128" y="-10" on="0"/>
        <pt x="12" y="110" on="0"/>
      </contour>
      <contour>
        <pt x="274" y="344" on="0"/>
        <pt x="232" y="344" on="0"/>
        <pt x="221" y="309" on="0"/>
        <pt x="221" y="252" on="1"/>
        <pt x="221" y="228" on="1"/>
        <pt x="221" y="164" on="0"/>
        <pt x="232" y="127" on="0"/>
        <pt x="274" y="127" on="0"/>
        <pt x="285" y="164" on="0"/>
        <pt x="285" y="223" on="1"/>
        <pt x="285" y="251" on="1"/>
        <pt x="285" y="309" on="0"/>
      </contour>
      <contour>
        <pt x="445" y="647" on="1"/>
        <pt x="306" y="517" on="1"/>
        <pt x="167" y="517" on="1"/>
        <pt x="231" y="647" on="1"/>
      </contour>
    </TTGlyph>
    <TTGlyph name="ocircumflex" xMin="12" yMin="-10" xMax="492" yMax="642">
      <contour>
        <pt x="12" y="373" on="0"/>
        <pt x="129" y="491" on="0"/>
        <pt x="378" y="491" on="0"/>
        <pt x="492" y="375" on="0"/>
        <pt x="492" y="110" on="0"/>
        <pt x="381" y="-10" on="0"/>
        <pt x="128" y="-10" on="0"/>
        <pt x="12" y="110" on="0"/>
      </contour>
      <contour>
        <pt x="274" y="344" on="0"/>
        <pt x="232" y="344" on="0"/>
        <pt x="221" y="309" on="0"/>
        <pt x="221" y="252" on="1"/>
        <pt x="221" y="228" on="1"/>
        <pt x="221" y="164" on="0"/>
        <pt x="232" y="127" on="0"/>
        <pt x="274" y="127" on="0"/>
        <pt x="285" y="164" on="0"/>
        <pt x="285" y="223" on="1"/>
        <pt x="285" y="251" on="1"/>
        <pt x="285" y="309" on="0"/>
      </contour>
      <contour>
        <pt x="342" y="642" on="1"/>
        <pt x="420" y="511" on="1"/>
        <pt x="289" y="511" on="1"/>
        <pt x="254" y="563" on="1"/>
        <pt x="218" y="511" on="1"/>
        <pt x="86" y="511" on="1"/>
        <pt x="164" y="642" on="1"/>
      </contour>
    </TTGlyph>
    <TTGlyph name="odieresis" xMin="12" yMin="-10" xMax="492" yMax="641">
      <contour>
        <pt x="12" y="373" on="0"/>
        <pt x="129" y="491" on="0"/>
        <pt x="378" y="491" on="0"/>
        <pt x="492" y="375" on="0"/>
        <pt x="492" y="110" on="0"/>
        <pt x="381" y="-10" on="0"/>
        <pt x="128" y="-10" on="0"/>
        <pt x="12" y="110" on="0"/>
      </contour>
      <contour>
        <pt x="274" y="344" on="0"/>
        <pt x="232" y="344" on="0"/>
        <pt x="221" y="309" on="0"/>
        <pt x="221" y="252" on="1"/>
        <pt x="221" y="228" on="1"/>
        <pt x="221" y="164" on="0"/>
        <pt x="232" y="127" on="0"/>
        <pt x="274" y="127" on="0"/>
        <pt x="285" y="164" on="0"/>
        <pt x="285" y="223" on="1"/>
        <pt x="285" y="251" on="1"/>
        <pt x="285" y="309" on="0"/>
      </contour>
      <contour>
        <pt x="82" y="576" on="1"/>
        <pt x="82" y="608" on="0"/>
        <pt x="122" y="641" on="0"/>
        <pt x="157" y="641" on="1"/>
        <pt x="237" y="641" on="0"/>
        <pt x="237" y="576" on="1"/>
        <pt x="237" y="542" on="0"/>
        <pt x="198" y="510" on="0"/>
        <pt x="157" y="510" on="1"/>
        <pt x="82" y="510" on="0"/>
      </contour>
      <contour>
        <pt x="268" y="576" on="1"/>
        <pt x="268" y="608" on="0"/>
        <pt x="308" y="641" on="0"/>
        <pt x="343" y="641" on="1"/>
        <pt x="423" y="641" on="0"/>
        <pt x="423" y="576" on="1"/>
        <pt x="423" y="542" on="0"/>
        <pt x="384" y="510" on="0"/>
        <pt x="343" y="510" on="1"/>
        <pt x="268" y="510" on="0"/>
      </contour>
    </TTGlyph>
    <TTGlyph name="oe" xMin="15" yMin="-10" xMax="758" yMax="491">
      <contour>
        <pt x="258" y="491" on="1"/>
        <pt x="344" y="491" on="0"/>
        <pt x="397" y="463" on="1"/>
        <pt x="453" y="491" on="0"/>
        <pt x="535" y="491" on="1"/>
        <pt x="655" y="491" on="0"/>
        <pt x="758" y="391" on="0"/>
        <pt x="758" y="298" on="1"/>
        <pt x="758" y="267" on="0"/>
        <pt x="750" y="186" on="1"/>
        <pt x="499" y="186" on="1"/>
        <pt x="503" y="131" on="0"/>
        <pt x="564" y="131" on="1"/>
        <pt x="612" y="131" on="0"/>
        <pt x="717" y="153" on="1"/>
        <pt x="734" y="18" on="1"/>
        <pt x="628" y="-10" on="0"/>
        <pt x="459" y="-10" on="0"/>
        <pt x="402" y="20" on="1"/>
        <pt x="348" y="-10" on="0"/>
        <pt x="258" y="-10" on="1"/>
        <pt x="131" y="-10" on="0"/>
        <pt x="15" y="110" on="0"/>
        <pt x="15" y="373" on="0"/>
        <pt x="132" y="491" on="0"/>
      </contour>
      <contour>
        <pt x="277" y="344" on="0"/>
        <pt x="235" y="344" on="0"/>
        <pt x="224" y="309" on="0"/>
        <pt x="224" y="252" on="1"/>
        <pt x="224" y="228" on="1"/>
        <pt x="224" y="164" on="0"/>
        <pt x="235" y="127" on="0"/>
        <pt x="277" y="127" on="0"/>
        <pt x="288" y="164" on="0"/>
        <pt x="288" y="223" on="1"/>
        <pt x="288" y="251" on="1"/>
        <pt x="288" y="309" on="0"/>
      </contour>
      <contour>
        <pt x="532" y="330" on="1"/>
        <pt x="495" y="330" on="0"/>
        <pt x="495" y="277" on="1"/>
        <pt x="567" y="277" on="1"/>
        <pt x="567" y="292" on="1"/>
        <pt x="567" y="330" on="0"/>
      </contour>
    </TTGlyph>
    <TTGlyph name="ogonek" xMin="175" yMin="-168" xMax="377" yMax="0">
      <contour>
        <pt x="175" y="-96" on="1"/>
        <pt x="175" y="-47" on="0"/>
        <pt x="241" y="0" on="1"/>
        <pt x="350" y="0" on="1"/>
        <pt x="296" y="-56" on="0"/>
        <pt x="296" y="-77" on="1"/>
        <pt x="296" y="-82" on="0"/>
        <pt x="315" y="-82" on="0"/>
        <pt x="347" y="-63" on="1"/>
        <pt x="377" y="-133" on="1"/>
        <pt x="327" y="-168" on="0"/>
        <pt x="266" y="-168" on="1"/>
        <pt x="175" y="-168" on="0"/>
      </contour>
    </TTGlyph>
    <TTGlyph name="ograve" xMin="12" yMin="-10" xMax="492" yMax="647">
      <contour>
        <pt x="12" y="373" on="0"/>
        <pt x="129" y="491" on="0"/>
        <pt x="378" y="491" on="0"/>
        <pt x="492" y="375" on="0"/>
        <pt x="492" y="110" on="0"/>
        <pt x="381" y="-10" on="0"/>
        <pt x="128" y="-10" on="0"/>
        <pt x="12" y="110" on="0"/>
      </contour>
      <contour>
        <pt x="274" y="344" on="0"/>
        <pt x="232" y="344" on="0"/>
        <pt x="221" y="309" on="0"/>
        <pt x="221" y="252" on="1"/>
        <pt x="221" y="228" on="1"/>
        <pt x="221" y="164" on="0"/>
        <pt x="232" y="127" on="0"/>
        <pt x="274" y="127" on="0"/>
        <pt x="285" y="164" on="0"/>
        <pt x="285" y="223" on="1"/>
        <pt x="285" y="251" on="1"/>
        <pt x="285" y="309" on="0"/>
      </contour>
      <contour>
        <pt x="218" y="517" on="1"/>
        <pt x="91" y="647" on="1"/>
        <pt x="292" y="647" on="1"/>
        <pt x="360" y="517" on="1"/>
      </contour>
    </TTGlyph>
    <TTGlyph name="one" xMin="4" yMin="0" xMax="281" yMax="621">
      <contour>
        <pt x="281" y="0" on="1"/>
        <pt x="74" y="0" on="1"/>
        <pt x="74" y="452" on="1"/>
        <pt x="4" y="452" on="1"/>
        <pt x="4" y="565" on="1"/>
        <pt x="115" y="621" on="1"/>
        <pt x="281" y="621" on="1"/>
      </contour>
    </TTGlyph>
    <TTGlyph name="onehalf" xMin="44" yMin="0" xMax="852" yMax="621">
      <contour>
        <pt x="574" y="621" on="1"/>
        <pt x="375" y="0" on="1"/>
        <pt x="228" y="0" on="1"/>
        <pt x="426" y="621" on="1"/>
      </contour>
      <contour>
        <pt x="238" y="186" on="1"/>
        <pt x="93" y="186" on="1"/>
        <pt x="93" y="502" on="1"/>
        <pt x="44" y="502" on="1"/>
        <pt x="44" y="581" on="1"/>
        <pt x="121" y="621" on="1"/>
        <pt x="238" y="621" on="1"/>
      </contour>
      <contour>
        <pt x="537" y="410" on="1"/>
        <pt x="618" y="442" on="0"/>
        <pt x="774" y="442" on="0"/>
        <pt x="851" y="372" on="0"/>
        <pt x="851" y="250" on="0"/>
        <pt x="804" y="167" on="0"/>
        <pt x="750" y="111" on="1"/>
        <pt x="750" y="108" on="1"/>
        <pt x="852" y="108" on="1"/>
        <pt x="852" y="0" on="1"/>
        <pt x="554" y="0" on="1"/>
        <pt x="547" y="76" on="1"/>
        <pt x="573" y="102" on="0"/>
        <pt x="605" y="132" on="0"/>
        <pt x="635" y="162" on="0"/>
        <pt x="649" y="179" on="0"/>
        <pt x="660" y="192" on="1"/>
        <pt x="699" y="238" on="0"/>
        <pt x="699" y="308" on="0"/>
        <pt x="666" y="308" on="1"/>
        <pt x="638" y="308" on="0"/>
        <pt x="560" y="288" on="1"/>
      </contour>
    </TTGlyph>
    <TTGlyph name="onequarter" xMin="44" yMin="0" xMax="877" yMax="621">
      <contour>
        <pt x="574" y="621" on="1"/>
        <pt x="375" y="0" on="1"/>
        <pt x="228" y="0" on="1"/>
        <pt x="426" y="621" on="1"/>
      </contour>
      <contour>
        <pt x="238" y="186" on="1"/>
        <pt x="93" y="186" on="1"/>
        <pt x="93" y="502" on="1"/>
        <pt x="44" y="502" on="1"/>
        <pt x="44" y="581" on="1"/>
        <pt x="121" y="621" on="1"/>
        <pt x="238" y="621" on="1"/>
      </contour>
      <contour>
        <pt x="871" y="82" on="1"/>
        <pt x="824" y="82" on="1"/>
        <pt x="824" y="0" on="1"/>
        <pt x="679" y="0" on="1"/>
        <pt x="679" y="82" on="1"/>
        <pt x="510" y="82" on="1"/>
        <pt x="499" y="168" on="1"/>
        <pt x="651" y="431" on="1"/>
        <pt x="824" y="431" on="1"/>
        <pt x="824" y="184" on="1"/>
        <pt x="877" y="184" on="1"/>
      </contour>
      <contour>
        <pt x="683" y="181" on="1"/>
        <pt x="683" y="272" on="1"/>
        <pt x="680" y="272" on="1"/>
        <pt x="631" y="181" on="1"/>
      </contour>
    </TTGlyph>
    <TTGlyph name="onesuperior" xMin="44" yMin="186" xMax="238" yMax="621">
      <contour>
        <pt x="238" y="186" on="1"/>
        <pt x="93" y="186" on="1"/>
        <pt x="93" y="502" on="1"/>
        <pt x="44" y="502" on="1"/>
        <pt x="44" y="581" on="1"/>
        <pt x="121" y="621" on="1"/>
        <pt x="238" y="621" on="1"/>
      </contour>
    </TTGlyph>
    <TTGlyph name="ordfeminine" xMin="44" yMin="288" xMax="380" yMax="639">
      <contour>
        <pt x="351" y="540" on="1"/>
        <pt x="347" y="400" on="1"/>
        <pt x="347" y="384" on="0"/>
        <pt x="380" y="384" on="1"/>
        <pt x="367" y="291" on="1"/>
        <pt x="336" y="288" on="0"/>
        <pt x="310" y="288" on="1"/>
        <pt x="260" y="288" on="0"/>
        <pt x="236" y="315" on="1"/>
        <pt x="231" y="315" on="1"/>
        <pt x="197" y="288" on="0"/>
        <pt x="97" y="288" on="0"/>
        <pt x="44" y="342" on="0"/>
        <pt x="44" y="448" on="0"/>
        <pt x="123" y="494" on="0"/>
        <pt x="209" y="501" on="1"/>
        <pt x="209" y="513" on="1"/>
        <pt x="209" y="526" on="0"/>
        <pt x="196" y="526" on="1"/>
        <pt x="161" y="526" on="0"/>
        <pt x="73" y="504" on="1"/>
        <pt x="51" y="615" on="1"/>
        <pt x="152" y="639" on="0"/>
        <pt x="296" y="639" on="0"/>
        <pt x="351" y="591" on="0"/>
      </contour>
      <contour>
        <pt x="193" y="378" on="1"/>
        <pt x="213" y="378" on="0"/>
        <pt x="213" y="399" on="1"/>
        <pt x="213" y="426" on="1"/>
        <pt x="177" y="420" on="0"/>
        <pt x="177" y="378" on="0"/>
      </contour>
    </TTGlyph>
    <TTGlyph name="ordmasculine" xMin="43" yMin="288" xMax="379" yMax="639">
      <contour>
        <pt x="43" y="556" on="0"/>
        <pt x="125" y="639" on="0"/>
        <pt x="300" y="639" on="0"/>
        <pt x="379" y="558" on="0"/>
        <pt x="379" y="373" on="0"/>
        <pt x="301" y="288" on="0"/>
        <pt x="125" y="288" on="0"/>
        <pt x="43" y="372" on="0"/>
      </contour>
      <contour>
        <pt x="235" y="511" on="0"/>
        <pt x="227" y="536" on="0"/>
        <pt x="198" y="536" on="0"/>
        <pt x="190" y="511" on="0"/>
        <pt x="190" y="471" on="1"/>
        <pt x="190" y="455" on="1"/>
        <pt x="190" y="410" on="0"/>
        <pt x="198" y="384" on="0"/>
        <pt x="227" y="384" on="0"/>
        <pt x="235" y="410" on="0"/>
        <pt x="235" y="451" on="1"/>
        <pt x="235" y="471" on="1"/>
      </contour>
    </TTGlyph>
    <TTGlyph name="oslash" xMin="15" yMin="-69" xMax="495" yMax="548">
      <contour>
        <pt x="258" y="491" on="1"/>
        <pt x="277" y="491" on="0"/>
        <pt x="287" y="490" on="1"/>
        <pt x="313" y="548" on="1"/>
        <pt x="482" y="548" on="1"/>
        <pt x="433" y="438" on="1"/>
        <pt x="495" y="379" on="0"/>
        <pt x="495" y="110" on="0"/>
        <pt x="384" y="-10" on="0"/>
        <pt x="258" y="-10" on="1"/>
        <pt x="241" y="-10" on="0"/>
        <pt x="233" y="-9" on="1"/>
        <pt x="206" y="-69" on="1"/>
        <pt x="34" y="-69" on="1"/>
        <pt x="83" y="40" on="1"/>
        <pt x="15" y="98" on="0"/>
        <pt x="15" y="373" on="0"/>
        <pt x="132" y="491" on="0"/>
      </contour>
      <contour>
        <pt x="277" y="344" on="0"/>
        <pt x="235" y="344" on="0"/>
        <pt x="224" y="309" on="0"/>
        <pt x="224" y="252" on="1"/>
        <pt x="224" y="228" on="1"/>
        <pt x="224" y="164" on="0"/>
        <pt x="235" y="127" on="0"/>
        <pt x="277" y="127" on="0"/>
        <pt x="288" y="164" on="0"/>
        <pt x="288" y="223" on="1"/>
        <pt x="288" y="251" on="1"/>
        <pt x="288" y="309" on="0"/>
      </contour>
    </TTGlyph>
    <TTGlyph name="otilde" xMin="12" yMin="-10" xMax="492" yMax="657">
      <contour>
        <pt x="12" y="373" on="0"/>
        <pt x="129" y="491" on="0"/>
        <pt x="378" y="491" on="0"/>
        <pt x="492" y="375" on="0"/>
        <pt x="492" y="110" on="0"/>
        <pt x="381" y="-10" on="0"/>
        <pt x="128" y="-10" on="0"/>
        <pt x="12" y="110" on="0"/>
      </contour>
      <contour>
        <pt x="274" y="344" on="0"/>
        <pt x="232" y="344" on="0"/>
        <pt x="221" y="309" on="0"/>
        <pt x="221" y="252" on="1"/>
        <pt x="221" y="228" on="1"/>
        <pt x="221" y="164" on="0"/>
        <pt x="232" y="127" on="0"/>
        <pt x="274" y="127" on="0"/>
        <pt x="285" y="164" on="0"/>
        <pt x="285" y="223" on="1"/>
        <pt x="285" y="251" on="1"/>
        <pt x="285" y="309" on="0"/>
      </contour>
      <contour>
        <pt x="423" y="657" on="1"/>
        <pt x="423" y="645" on="1"/>
        <pt x="423" y="579" on="0"/>
        <pt x="380" y="509" on="0"/>
        <pt x="316" y="509" on="1"/>
        <pt x="279" y="509" on="0"/>
        <pt x="205" y="535" on="1"/>
        <pt x="205" y="503" on="1"/>
        <pt x="72" y="503" on="1"/>
        <pt x="72" y="516" on="1"/>
        <pt x="72" y="583" on="0"/>
        <pt x="117" y="652" on="0"/>
        <pt x="174" y="652" on="1"/>
        <pt x="204" y="652" on="0"/>
        <pt x="290" y="626" on="1"/>
        <pt x="290" y="657" on="1"/>
      </contour>
    </TTGlyph>
    <TTGlyph name="p" xMin="30" yMin="-137" xMax="507" yMax="491">
      <contour>
        <pt x="312" y="-10" on="1"/>
        <pt x="275" y="-10" on="0"/>
        <pt x="238" y="4" on="1"/>
        <pt x="238" y="-137" on="1"/>
        <pt x="30" y="-137" on="1"/>
        <pt x="30" y="479" on="1"/>
        <pt x="202" y="479" on="1"/>
        <pt x="210" y="457" on="1"/>
        <pt x="257" y="491" on="0"/>
        <pt x="323" y="491" on="1"/>
        <pt x="431" y="491" on="0"/>
        <pt x="507" y="380" on="0"/>
        <pt x="507" y="113" on="0"/>
        <pt x="425" y="-10" on="0"/>
      </contour>
      <contour>
        <pt x="289" y="132" on="0"/>
        <pt x="299" y="177" on="0"/>
        <pt x="299" y="290" on="0"/>
        <pt x="287" y="337" on="0"/>
        <pt x="267" y="337" on="1"/>
        <pt x="254" y="337" on="0"/>
        <pt x="236" y="329" on="1"/>
        <pt x="236" y="136" on="1"/>
        <pt x="254" y="132" on="0"/>
        <pt x="268" y="132" on="1"/>
      </contour>
    </TTGlyph>
    <TTGlyph name="paragraph" xMin="16" yMin="-137" xMax="584" yMax="629">
      <contour>
        <pt x="584" y="-137" on="1"/>
        <pt x="416" y="-137" on="1"/>
        <pt x="416" y="478" on="1"/>
        <pt x="392" y="478" on="1"/>
        <pt x="392" y="-137" on="1"/>
        <pt x="223" y="-137" on="1"/>
        <pt x="223" y="187" on="1"/>
        <pt x="126" y="190" on="0"/>
        <pt x="16" y="301" on="0"/>
        <pt x="16" y="510" on="0"/>
        <pt x="152" y="629" on="0"/>
        <pt x="272" y="629" on="1"/>
        <pt x="584" y="629" on="1"/>
      </contour>
    </TTGlyph>
    <TTGlyph name="parenleft" xMin="24" yMin="-147" xMax="372" yMax="645">
      <contour>
        <pt x="216" y="645" on="1"/>
        <pt x="372" y="597" on="1"/>
        <pt x="254" y="440" on="0"/>
        <pt x="254" y="79" on="0"/>
        <pt x="372" y="-108" on="1"/>
        <pt x="210" y="-147" on="1"/>
        <pt x="119" y="-58" on="0"/>
        <pt x="24" y="125" on="0"/>
        <pt x="24" y="379" on="0"/>
        <pt x="118" y="565" on="0"/>
      </contour>
    </TTGlyph>
    <TTGlyph name="parenright" xMin="16" yMin="-147" xMax="364" yMax="645">
      <contour>
        <pt x="269" y="565" on="0"/>
        <pt x="364" y="376" on="0"/>
        <pt x="364" y="129" on="0"/>
        <pt x="267" y="-60" on="0"/>
        <pt x="177" y="-147" on="1"/>
        <pt x="16" y="-108" on="1"/>
        <pt x="135" y="65" on="0"/>
        <pt x="135" y="438" on="0"/>
        <pt x="16" y="596" on="1"/>
        <pt x="173" y="645" on="1"/>
      </contour>
    </TTGlyph>
    <TTGlyph name="partialdiff" xMin="20" yMin="-10" xMax="511" yMax="631">
      <contour>
        <pt x="220" y="400" on="1"/>
        <pt x="258" y="400" on="0"/>
        <pt x="281" y="396" on="1"/>
        <pt x="285" y="400" on="1"/>
        <pt x="225" y="464" on="0"/>
        <pt x="70" y="464" on="1"/>
        <pt x="70" y="631" on="1"/>
        <pt x="300" y="631" on="0"/>
        <pt x="511" y="460" on="0"/>
        <pt x="511" y="265" on="1"/>
        <pt x="511" y="134" on="0"/>
        <pt x="386" y="-10" on="0"/>
        <pt x="141" y="-10" on="0"/>
        <pt x="20" y="93" on="0"/>
        <pt x="20" y="208" on="1"/>
        <pt x="20" y="302" on="0"/>
        <pt x="123" y="400" on="0"/>
      </contour>
      <contour>
        <pt x="300" y="249" on="0"/>
        <pt x="288" y="283" on="0"/>
        <pt x="246" y="283" on="0"/>
        <pt x="232" y="239" on="0"/>
        <pt x="232" y="154" on="0"/>
        <pt x="245" y="120" on="0"/>
        <pt x="287" y="120" on="0"/>
        <pt x="300" y="163" on="0"/>
      </contour>
    </TTGlyph>
    <TTGlyph name="percent" xMin="20" yMin="-10" xMax="909" yMax="631">
      <contour>
        <pt x="638" y="621" on="1"/>
        <pt x="439" y="0" on="1"/>
        <pt x="292" y="0" on="1"/>
        <pt x="490" y="621" on="1"/>
      </contour>
      <contour>
        <pt x="229" y="399" on="1"/>
        <pt x="229" y="442" on="1"/>
        <pt x="229" y="476" on="0"/>
        <pt x="222" y="494" on="0"/>
        <pt x="213" y="514" on="0"/>
        <pt x="182" y="514" on="0"/>
        <pt x="175" y="508" on="1"/>
        <pt x="161" y="498" on="0"/>
        <pt x="161" y="412" on="1"/>
        <pt x="161" y="399" on="1"/>
        <pt x="161" y="338" on="0"/>
        <pt x="169" y="298" on="0"/>
        <pt x="184" y="286" on="0"/>
        <pt x="197" y="286" on="1"/>
        <pt x="219" y="286" on="0"/>
        <pt x="229" y="333" on="0"/>
      </contour>
      <contour>
        <pt x="298" y="631" on="0"/>
        <pt x="369" y="523" on="0"/>
        <pt x="369" y="288" on="0"/>
        <pt x="298" y="182" on="0"/>
        <pt x="93" y="182" on="0"/>
        <pt x="20" y="289" on="0"/>
        <pt x="20" y="522" on="0"/>
        <pt x="92" y="631" on="0"/>
      </contour>
      <contour>
        <pt x="769" y="207" on="1"/>
        <pt x="769" y="250" on="1"/>
        <pt x="769" y="284" on="0"/>
        <pt x="762" y="302" on="0"/>
        <pt x="753" y="322" on="0"/>
        <pt x="722" y="322" on="0"/>
        <pt x="715" y="316" on="1"/>
        <pt x="701" y="306" on="0"/>
        <pt x="701" y="220" on="1"/>
        <pt x="701" y="207" on="1"/>
        <pt x="701" y="146" on="0"/>
        <pt x="709" y="106" on="0"/>
        <pt x="724" y="94" on="0"/>
        <pt x="737" y="94" on="1"/>
        <pt x="759" y="94" on="0"/>
        <pt x="769" y="141" on="0"/>
      </contour>
      <contour>
        <pt x="838" y="439" on="0"/>
        <pt x="909" y="331" on="0"/>
        <pt x="909" y="96" on="0"/>
        <pt x="838" y="-10" on="0"/>
        <pt x="633" y="-10" on="0"/>
        <pt x="560" y="97" on="0"/>
        <pt x="560" y="330" on="0"/>
        <pt x="632" y="439" on="0"/>
      </contour>
    </TTGlyph>
    <TTGlyph name="period" xMin="48" yMin="-10" xMax="243" yMax="150">
      <contour>
        <pt x="92" y="-10" on="0"/>
        <pt x="48" y="29" on="0"/>
        <pt x="48" y="111" on="0"/>
        <pt x="91" y="150" on="0"/>
        <pt x="201" y="150" on="0"/>
        <pt x="243" y="111" on="0"/>
        <pt x="243" y="29" on="0"/>
        <pt x="200" y="-10" on="0"/>
      </contour>
    </TTGlyph>
    <TTGlyph name="periodcentered" xMin="84" yMin="214" xMax="317" yMax="396">
      <contour>
        <pt x="84" y="305" on="1"/>
        <pt x="84" y="396" on="0"/>
        <pt x="201" y="396" on="1"/>
        <pt x="261" y="396" on="0"/>
        <pt x="317" y="353" on="0"/>
        <pt x="317" y="255" on="0"/>
        <pt x="262" y="214" on="0"/>
        <pt x="141" y="214" on="0"/>
        <pt x="84" y="256" on="0"/>
      </contour>
    </TTGlyph>
    <TTGlyph name="perthousand" xMin="20" yMin="-10" xMax="1285" yMax="631">
      <contour>
        <pt x="638" y="621" on="1"/>
        <pt x="439" y="0" on="1"/>
        <pt x="292" y="0" on="1"/>
        <pt x="490" y="621" on="1"/>
      </contour>
      <contour>
        <pt x="229" y="399" on="1"/>
        <pt x="229" y="442" on="1"/>
        <pt x="229" y="476" on="0"/>
        <pt x="222" y="494" on="0"/>
        <pt x="213" y="514" on="0"/>
        <pt x="182" y="514" on="0"/>
        <pt x="175" y="508" on="1"/>
        <pt x="161" y="498" on="0"/>
        <pt x="161" y="412" on="1"/>
        <pt x="161" y="399" on="1"/>
        <pt x="161" y="338" on="0"/>
        <pt x="169" y="298" on="0"/>
        <pt x="184" y="286" on="0"/>
        <pt x="197" y="286" on="1"/>
        <pt x="219" y="286" on="0"/>
        <pt x="229" y="333" on="0"/>
      </contour>
      <contour>
        <pt x="298" y="631" on="0"/>
        <pt x="369" y="523" on="0"/>
        <pt x="369" y="288" on="0"/>
        <pt x="298" y="182" on="0"/>
        <pt x="93" y="182" on="0"/>
        <pt x="20" y="289" on="0"/>
        <pt x="20" y="522" on="0"/>
        <pt x="92" y="631" on="0"/>
      </contour>
      <contour>
        <pt x="769" y="207" on="1"/>
        <pt x="769" y="250" on="1"/>
        <pt x="769" y="284" on="0"/>
        <pt x="762" y="302" on="0"/>
        <pt x="753" y="322" on="0"/>
        <pt x="722" y="322" on="0"/>
        <pt x="715" y="316" on="1"/>
        <pt x="701" y="306" on="0"/>
        <pt x="701" y="220" on="1"/>
        <pt x="701" y="207" on="1"/>
        <pt x="701" y="146" on="0"/>
        <pt x="709" y="106" on="0"/>
        <pt x="724" y="94" on="0"/>
        <pt x="737" y="94" on="1"/>
        <pt x="759" y="94" on="0"/>
        <pt x="769" y="141" on="0"/>
      </contour>
      <contour>
        <pt x="838" y="439" on="0"/>
        <pt x="909" y="331" on="0"/>
        <pt x="909" y="96" on="0"/>
        <pt x="838" y="-10" on="0"/>
        <pt x="633" y="-10" on="0"/>
        <pt x="560" y="97" on="0"/>
        <pt x="560" y="330" on="0"/>
        <pt x="632" y="439" on="0"/>
      </contour>
      <contour>
        <pt x="1145" y="207" on="1"/>
        <pt x="1145" y="250" on="1"/>
        <pt x="1145" y="284" on="0"/>
        <pt x="1138" y="302" on="0"/>
        <pt x="1129" y="322" on="0"/>
        <pt x="1098" y="322" on="0"/>
        <pt x="1091" y="316" on="1"/>
        <pt x="1077" y="306" on="0"/>
        <pt x="1077" y="220" on="1"/>
        <pt x="1077" y="207" on="1"/>
        <pt x="1077" y="146" on="0"/>
        <pt x="1085" y="106" on="0"/>
        <pt x="1100" y="94" on="0"/>
        <pt x="1113" y="94" on="1"/>
        <pt x="1135" y="94" on="0"/>
        <pt x="1145" y="141" on="0"/>
      </contour>
      <contour>
        <pt x="1214" y="439" on="0"/>
        <pt x="1285" y="331" on="0"/>
        <pt x="1285" y="96" on="0"/>
        <pt x="1214" y="-10" on="0"/>
        <pt x="1009" y="-10" on="0"/>
        <pt x="936" y="97" on="0"/>
        <pt x="936" y="330" on="0"/>
        <pt x="1008" y="439" on="0"/>
      </contour>
    </TTGlyph>
    <TTGlyph name="pi" xMin="0" yMin="0" xMax="557" yMax="479">
      <contour>
        <pt x="515" y="0" on="1"/>
        <pt x="304" y="0" on="1"/>
        <pt x="304" y="327" on="1"/>
        <pt x="251" y="327" on="1"/>
        <pt x="251" y="0" on="1"/>
        <pt x="43" y="0" on="1"/>
        <pt x="43" y="327" on="1"/>
        <pt x="0" y="327" on="1"/>
        <pt x="0" y="479" on="1"/>
        <pt x="557" y="479" on="1"/>
        <pt x="557" y="327" on="1"/>
        <pt x="515" y="327" on="1"/>
      </contour>
    </TTGlyph>
    <TTGlyph name="plus" xMin="32" yMin="84" xMax="444" yMax="496">
      <contour>
        <pt x="157" y="84" on="1"/>
        <pt x="157" y="209" on="1"/>
        <pt x="32" y="209" on="1"/>
        <pt x="32" y="371" on="1"/>
        <pt x="157" y="371" on="1"/>
        <pt x="157" y="496" on="1"/>
        <pt x="319" y="496" on="1"/>
        <pt x="319" y="371" on="1"/>
        <pt x="444" y="371" on="1"/>
        <pt x="444" y="209" on="1"/>
        <pt x="319" y="209" on="1"/>
        <pt x="319" y="84" on="1"/>
      </contour>
    </TTGlyph>
    <TTGlyph name="plusminus" xMin="32" yMin="0" xMax="444" yMax="555">
      <contour>
        <pt x="157" y="181" on="1"/>
        <pt x="157" y="276" on="1"/>
        <pt x="32" y="276" on="1"/>
        <pt x="32" y="438" on="1"/>
        <pt x="157" y="438" on="1"/>
        <pt x="157" y="555" on="1"/>
        <pt x="319" y="555" on="1"/>
        <pt x="319" y="438" on="1"/>
        <pt x="444" y="438" on="1"/>
        <pt x="444" y="276" on="1"/>
        <pt x="319" y="276" on="1"/>
        <pt x="319" y="181" on="1"/>
      </contour>
      <contour>
        <pt x="444" y="0" on="1"/>
        <pt x="32" y="0" on="1"/>
        <pt x="32" y="152" on="1"/>
        <pt x="444" y="152" on="1"/>
      </contour>
    </TTGlyph>
    <TTGlyph name="product" xMin="0" yMin="0" xMax="611" yMax="621">
      <contour>
        <pt x="280" y="0" on="1"/>
        <pt x="69" y="0" on="1"/>
        <pt x="69" y="452" on="1"/>
        <pt x="0" y="452" on="1"/>
        <pt x="0" y="621" on="1"/>
        <pt x="611" y="621" on="1"/>
        <pt x="611" y="452" on="1"/>
        <pt x="546" y="452" on="1"/>
        <pt x="546" y="0" on="1"/>
        <pt x="335" y="0" on="1"/>
        <pt x="335" y="452" on="1"/>
        <pt x="280" y="452" on="1"/>
      </contour>
    </TTGlyph>
    <TTGlyph name="q" xMin="15" yMin="-137" xMax="493" yMax="491">
      <contour>
        <pt x="102" y="-10" on="0"/>
        <pt x="15" y="117" on="0"/>
        <pt x="15" y="362" on="0"/>
        <pt x="112" y="491" on="0"/>
        <pt x="203" y="491" on="1"/>
        <pt x="272" y="491" on="0"/>
        <pt x="312" y="457" on="1"/>
        <pt x="321" y="479" on="1"/>
        <pt x="493" y="479" on="1"/>
        <pt x="493" y="-137" on="1"/>
        <pt x="285" y="-137" on="1"/>
        <pt x="285" y="8" on="1"/>
        <pt x="245" y="-10" on="0"/>
        <pt x="207" y="-10" on="1"/>
      </contour>
      <contour>
        <pt x="235" y="339" on="0"/>
        <pt x="224" y="293" on="0"/>
        <pt x="224" y="179" on="0"/>
        <pt x="234" y="134" on="0"/>
        <pt x="271" y="134" on="0"/>
        <pt x="287" y="138" on="1"/>
        <pt x="287" y="331" on="1"/>
        <pt x="267" y="339" on="0"/>
        <pt x="255" y="339" on="1"/>
      </contour>
    </TTGlyph>
</ttFont>
